<svg xmlns="http://www.w3.org/2000/svg" width="2120" height="656"><path fill="none" fill-opacity="0" stroke="none" stroke-opacity="0" stroke-width=".3" d="M0 656h2120V0H0v656m1889-476 10 10c32 40 62 84 102 119l-10-16c5 2 11 10 16 15l29 28c10 9 19 24 32 24 14 0 32-3 45 7-2 5-1 11-1 16 0 6-11 2-8 10-12-5-18 13-29 15 5 9-8 20-18 25-9 6-18 16-29 20-11 3-19 14-28 21-10 7-14 20-26 23s-15 19-24 25c-9 5-22 11-28 21-7 10-15 19-24 25 2 4-5 6-7 10s-7 8-11 8c0 8-7 16-12 22-5 7-8 14-17 17s-10 11-16 18c-5 7-17-2-24-4-7-3-14-9-18-16-5-6-7-19 4-20 0-3 1-8 5-7 0-3-1-7 3-8 1-3-2-5-1-8 8-3 10-12 15-18 6-6 16-11 12-20 8 4 6-7 13-9 7-3 6-11 7-16 4 1 7 1 5-4 11-9 22-21 28-34s15 0 17-15c7 3 6-6 13-6 7 1 6-8 13-8 1-4-5-5-4-9 7 0 11 3 18 1l4-9c7 2 8-6 15-4 0-7-6-11-6-18 3 5 7 2 12 5 0-6 4-7 8-4 2-6 3-16 11-16 7-1 13-6 20-8-72-5-144-16-218-18l-13-1c-71 0-138-15-208-15l-13-1-36-1h-13l-21-1-12-1h-16l-19-1h-37a304 304 0 0 0-41-2h-19l-14-1h-25c-30-3-59-7-89-7h-21l-16-1-14-1h-47c-30 0-58 1-88-3s-61-5-91-5h-13l-25-1h-88l-66-1h-48c-10-1-19 1-28-2-10-2-15 2-24 1l-30-1h-25l-48-1c-15 0-29-5-44-1s-31 2-46 3H333l-66 1c-21 0-41-5-62-5l-12-1h-24c-13 1-27 2-40 5s-25 3-38 8-25 4-39 3l-12-1c-12 0-19-8-30-13 4-13 15-18 25-28 9-11 23-13 37-17s30-9 46-8 32-7 49-5h14c9-1 18-5 27-4s18 3 26-1c9-4 19-1 28-1h38l28-1h76l39 1c12 0 26 3 38 2 12-2 22-9 34-4s24 2 37 2h18l27 1h33l34-1c4-7 17-1 25-3 2 9 12 3 20 2s20 1 29 1l29 1c9 0 19 2 29 1l20-1 50 2h39l11-1h10l11-1 38-1 13 1c17 0 30 5 46 6h23c10 0 23-4 33-1s18 4 29 2c4-1 10 0 14 1 17 5 37 7 53 4-2 6 5 2 8 4h11c5-1 8-5 13-1 2-4 10-1 15 0s15 3 20 2 6-13 13-9 10 4 18 2c1 5 5 2 8 2-1 8 16 11 18 5 4 5 14 0 16 6 4 1 6-3 10-3 11 7 27 1 42 2s27 5 43 5 28 1 43 3 18-16 34-14c-1 7 10 3 15 2 1 5 6 8 11 9h16c8 0 20-5 27 0s13 5 21 3c8-3 18-1 26 0h20c5 0 10-4 14-2 5 1 10 4 13-1a339 339 0 0 0 86 12c15 0 30 3 44 5 15 1 30-3 41 6h-30c-1 1 1 2 1 3 8 5 16-1 25 0a144 144 0 0 0 38 2c16-3 27 6 40 11 6-8 17 3 27 3 9 0 23 6 32 5-8-3-18-4-24-10 3-1 5 2 8 1-9-9-13-22-27-23s-14-20-22-28c-3 6-7-5-10-10-3-6-9-10-13-15l-10-18c-5-6-1-12-6-18-5 5-4-9-7-15l-11-17a119 119 0 0 1-19-37l-8-20c-2-7-6-13-9-19-2-7-5-13-9-19-5-5-2-16-6-22 4 2 0-9-1-14l-4-20c-1-6-5-14-3-19 7 11 15 21 20 34 5 12 18 20 25 30s8 27 18 37c9 10 17 20 22 33 4 13 13 24 20 35m-83-139c1 2 3 6 1 8 0-3-4-6-1-8m55 269c-4 2-10 0-15 1 4-2 10 0 15-1Z"/><path fill="none" fill-opacity="0" stroke="#FD76DB" stroke-width=".3" d="M1866 315c4 0 9 2 13 1-7 2-18 2-25 0-9 0-18-1-26-3-9-1-17 5-25 0-2-1-2-2-2-4 3 1 7-1 9 1h22c-11-9-26-5-41-6-14-2-29-5-44-5s-31-2-45-4-27-4-41-8c-3 5-8 2-13 1-4-2-9 2-14 2h-20c-8-1-18-3-26 0-8 2-14 2-21-3s-19 0-27 0h-16c-5-1-10-4-11-9-5 1-16 5-15-2-16-2-19 16-34 14s-27-3-43-3-28-4-43-5-31 5-42-2c-4 0-6 4-10 3-2-6-12-1-16-6-2 6-19 3-18-5-3 0-7 3-8-2-8 2-11 2-18-2s-8 8-13 9-15-1-20-2-13-4-15 0c-5-4-8 0-13 1h-11c-3-2-10 2-8-4-16 3-36 1-53-4l-14-1c-11 2-19 1-29-2s-23 1-33 1h-23c-16-1-29-6-46-6l-13-1-38 1-11 1h-10l-11 1h-12a171 171 0 0 1-27 0 735 735 0 0 0-70-1c-10 1-20-1-29-1l-29-1c-9 0-21-2-29-1s-18 7-20-2c-8 2-21-4-25 3l-34 1a229 229 0 0 1-33 0l-27-1h-18c-13 0-25 3-37-2s-22 2-34 4c-12 1-26-2-38-2l-39-1h-76l-28 1c-12 1-26 2-38 0-9 0-19-3-28 1-8 4-17 2-26 1s-18 3-27 4h-14c-17-2-33 6-49 5s-32 4-46 8-28 6-37 17c-10 10-21 15-25 28 11 5 18 13 30 13l12 1c14 1 26 2 39-3s25-5 38-8 27-4 40-5h24l12 1c21 0 41 5 62 5l66-1 42-1c19 0 40-1 58 1h16c15-1 31 1 46-3s29 1 44 1l48 1h25l30 1c9 1 14-3 24-1 9 3 18 1 28 2l28-1 20 1 66 1 39-1h16l25 1h33l13 1c30 0 61 1 91 5s58 3 88 3h47l14 1 16 1h21c30 0 59 4 89 7h25l14 1h19l17 1 24 1h37l19 1h16l12 1 21 1h13l36 1 13 1c70 0 137 15 208 15l13 1c74 2 146 13 218 18-7 2-13 7-20 8-8 0-9 10-11 16-4-3-8-2-8 4-5-3-9 0-12-5 0 7 6 11 6 18-7-2-8 6-15 4l-4 9c-7 2-11-1-18-1-1 4 5 5 4 9-7 0-6 9-13 8-7 0-6 9-13 6-2 15-11 2-17 15s-17 25-28 34c2 5-1 5-5 4-1 5 0 13-7 16-7 2-5 13-13 9 4 9-6 14-12 20-5 6-7 15-15 18-1 3 2 5 1 8-4 1-3 5-3 8-4-1-5 4-5 7-11 1-9 14-4 20 4 7 11 13 18 16 7 2 19 11 24 4 6-7 7-15 16-18s12-10 17-17c5-6 12-14 12-22 4 0 9-4 11-8s9-6 7-10c9-6 17-15 24-25 6-10 19-16 28-21 9-6 12-22 24-25s16-16 26-23c9-7 17-18 28-21 11-4 20-14 29-20 10-5 23-16 18-25 11-2 17-20 29-15-3-8 8-4 8-10 0-5-1-11 1-16-13-10-31-7-45-7-13 0-22-15-32-24l-29-28-16-15 10 16c-40-35-70-79-102-119l-10-10c-7-11-16-22-20-35-5-13-13-23-22-33-10-10-11-27-18-37s-20-18-25-30c-5-13-13-23-20-34-2 5 2 13 3 19l4 20c1 5 5 16 1 14 4 6 1 17 6 22 4 6 7 12 9 19 3 6 7 12 9 19l8 20 8 20 11 17 11 17c3 6 2 20 7 15 5 6 1 12 6 18l10 18c4 5 10 9 13 15 3 5 7 16 10 10 8 8 8 27 22 28s18 14 27 23c-3 1-5-2-8-1 6 6 16 7 24 10-9 1-23-5-32-5-10 0-21-11-27-3-13-5-24-14-40-11m147 78c-2 1-4 1-5-2 2-1 2-3 4-3h5c-1 2-5 2-4 5Z"/><path fill="none" fill-opacity="0" stroke="#FB76DC" stroke-opacity=".3" stroke-width=".3" d="M1806 41c-3 2 1 5 1 8 2-2 0-6-1-8Z"/><path fill="none" fill-opacity="0" stroke="#FCAEE3" stroke-opacity=".1" stroke-width=".3" d="m1899 190-10-10 10 10Z"/><path fill="none" fill-opacity="0" stroke="#FB9DE0" stroke-opacity=".1" stroke-width=".3" d="M364 258h-36 36Z"/><path fill="none" fill-opacity="0" stroke="none" stroke-opacity="0" stroke-width=".3" d="M552 259h18-18Z"/><path fill="none" fill-opacity="0" stroke="#FF9AE3" stroke-opacity=".5" stroke-width=".3" d="M300 259h-38c12 2 26 1 38 0Z"/><path fill="none" fill-opacity="0" stroke="#FEB2E9" stroke-opacity=".1" stroke-width=".3" d="m988 260-13-1 13 1Z"/><path fill="none" fill-opacity="0" stroke="#FDBEEB" stroke-opacity=".6" stroke-width=".3" d="M609 261v-1h-12l12 1Z"/><path fill="none" fill-opacity="0" stroke="#F7F7F8" stroke-opacity=".4" stroke-width=".3" d="m609 261 21-1h-21v1Z"/><path fill="none" fill-opacity="0" stroke="none" stroke-opacity="0" stroke-width=".3" d="M796 261Z"/><path fill="none" fill-opacity="0" stroke="#FCB2E7" stroke-opacity=".1" stroke-width=".3" d="m926 261 11-1-11 1Z"/><path fill="none" fill-opacity="0" stroke="#FFA8E3" stroke-opacity=".1" stroke-width=".3" d="m905 262 11-1-11 1Z"/><path fill="none" fill-opacity="0" stroke="#F6ECF7" stroke-opacity=".1" stroke-width=".3" d="M877 263v-1h-11l11 1Z"/><path fill="none" fill-opacity="0" stroke="#F7A4E2" stroke-opacity=".1" stroke-width=".3" d="m877 263 16-1h-16v1Z"/><path fill="none" fill-opacity="0" stroke="#FCD9F0" stroke-opacity=".3" stroke-width=".3" d="M181 265h-14 14Z"/><path fill="none" fill-opacity="0" stroke="#FDBBEA" stroke-opacity=".3" stroke-width=".3" d="M1057 266h-23 23Z"/><path fill="none" fill-opacity="0" stroke="#FDB7E8" stroke-opacity=".1" stroke-width=".3" d="M1133 268c-4-1-10-2-14-1l14 1Z"/><path fill="none" fill-opacity="0" stroke="#FDD6EB" stroke-opacity=".1" stroke-width=".3" d="M1205 276h-11 11Z"/><path fill="none" fill-opacity="0" stroke="#FBCBF0" stroke-opacity=".1" stroke-width=".3" d="M1540 287h-16 16Z"/><path fill="none" fill-opacity="0" stroke="#F8B0E9" stroke-opacity=".1" stroke-width=".3" d="M1634 290Z"/><path fill="none" fill-opacity="0" stroke="none" stroke-opacity="0" stroke-width=".3" d="m1991 293 16 15c-5-5-11-13-16-15Z"/><path fill="none" fill-opacity="0" stroke="#FFBAED" stroke-opacity=".1" stroke-width=".3" d="M1803 313c0-1-2-2-1-3h8c-2-2-6 0-9-1 0 2 0 3 2 4Z"/><path fill="none" fill-opacity="0" stroke="#F673D8" stroke-opacity=".1" stroke-width=".3" d="M1861 310c-5 1-11-1-15 1 5-1 11 1 15-1Z"/><path fill="none" fill-opacity="0" stroke="#FDC5EC" stroke-opacity=".4" stroke-width=".3" d="M1854 316c7 2 18 2 25 0-4 1-9-1-13-1l-12 1Z"/><path fill="none" fill-opacity="0" stroke="#FEA3E5" stroke-opacity=".6" stroke-width=".3" d="M169 321h21-21Z"/><path fill="none" fill-opacity="0" stroke="#FCC9EC" stroke-opacity=".1" stroke-width=".3" d="m205 322-12-1 12 1Z"/><path fill="none" fill-opacity="0" stroke="#FABFEC" stroke-opacity=".1" stroke-width=".3" d="M587 325h25-25Z"/><path fill="none" fill-opacity="0" stroke="#FE8DE1" stroke-opacity=".3" stroke-width=".3" d="M333 326h42v-1l-42 1Z"/><path fill="none" fill-opacity="0" stroke="#FAAEE3" stroke-opacity=".1" stroke-width=".3" d="M375 326h58c-18-2-39-1-58-1v1Z"/><path fill="none" fill-opacity="0" stroke="none" stroke-opacity="0" stroke-width=".3" d="M437 326h12-12Z"/><path fill="none" fill-opacity="0" stroke="#FAA2E7" stroke-opacity=".1" stroke-width=".3" d="M694 327h28v-1l-28 1Z"/><path fill="none" fill-opacity="0" stroke="#FE76DD" stroke-opacity=".2" stroke-width=".3" d="M722 327h20l-20-1v1Z"/><path fill="none" fill-opacity="0" stroke="#F8DBF0" stroke-opacity=".1" stroke-width=".3" d="M808 328h39v-1l-39 1Z"/><path fill="none" fill-opacity="0" stroke="#FDB9EC" stroke-opacity=".3" stroke-width=".3" d="M847 328h16v-1h-16v1Z"/><path fill="none" fill-opacity="0" stroke="#FEA0E4" stroke-opacity=".6" stroke-width=".3" d="M863 328h25l-25-1v1Z"/><path fill="none" fill-opacity="0" stroke="none" stroke-opacity="0" stroke-width=".3" d="M921 329v-1h-25l25 1Z"/><path fill="none" fill-opacity="0" stroke="#FF8FE1" stroke-opacity=".2" stroke-width=".3" d="M921 329h13l-13-1v1Z"/><path fill="none" fill-opacity="0" stroke="#FCDCF1" stroke-opacity=".1" stroke-width=".3" d="m52 337-12-1 12 1Z"/><path fill="none" fill-opacity="0" stroke="#FE91E1" stroke-opacity=".2" stroke-width=".3" d="M1113 337h35-35Z"/><path fill="none" fill-opacity="0" stroke="#FFB9EB" stroke-opacity=".1" stroke-width=".3" d="m1174 338-14-1 14 1Z"/><path fill="none" fill-opacity="0" stroke="#FF9DE5" stroke-opacity=".1" stroke-width=".3" d="M1190 339h21-21Z"/><path fill="none" fill-opacity="0" stroke="#FE91E4" stroke-opacity=".1" stroke-width=".3" d="M1300 346h12-12Z"/><path fill="none" fill-opacity="0" stroke="#FEB0EA" stroke-opacity=".1" stroke-width=".3" d="m1339 347-14-1 14 1Z"/><path fill="none" fill-opacity="0" stroke="#FDB2EA" stroke-opacity=".1" stroke-width=".3" d="M1375 348Z"/><path fill="none" fill-opacity="0" stroke="#FCA3E2" stroke-opacity=".1" stroke-width=".3" d="M1399 349h16-16Z"/><path fill="none" fill-opacity="0" stroke="#FBB4EA" stroke-opacity=".1" stroke-width=".3" d="M1455 350Z"/><path fill="none" fill-opacity="0" stroke="none" stroke-opacity="0" stroke-width=".3" d="m1483 351-12-1 12 1Z"/><path fill="none" fill-opacity="0" stroke="#FCB8E5" stroke-opacity=".1" stroke-width=".3" d="M1504 352h13-13Z"/><path fill="none" fill-opacity="0" stroke="#FFB9EB" stroke-opacity=".1" stroke-width=".3" d="m1566 354-13-1 13 1Z"/><path fill="none" fill-opacity="0" stroke="#FDA8EB" stroke-opacity=".1" stroke-width=".3" d="m1787 370-13-1 13 1Z"/><path fill="none" fill-opacity="0" stroke="#FBE2F5" stroke-opacity=".1" stroke-width=".3" d="m2013 393-4-1c1-2 3-2 3-4-2 0-2 2-4 3 1 3 3 3 5 2Z"/><path fill="none" fill-opacity="0" stroke="none" stroke-opacity="0" stroke-width=".3" d="M2013 393c-1-3 3-3 4-5h-5c0 2-2 2-3 4l4 1Z"/><path fill="none" fill-opacity="0" stroke="None" d="M0 656h2120V0H0v656m1889-476 10 10c32 40 62 84 102 119l-10-16c5 2 11 10 16 15l29 28c10 9 19 24 32 24 14 0 32-3 45 7-2 5-1 11-1 16 0 6-11 2-8 10-12-5-18 13-29 15 5 9-8 20-18 25-9 6-18 16-29 20-11 3-19 14-28 21-10 7-14 20-26 23s-15 19-24 25c-9 5-22 11-28 21-7 10-15 19-24 25 2 4-5 6-7 10s-7 8-11 8c0 8-7 16-12 22-5 7-8 14-17 17s-10 11-16 18c-5 7-17-2-24-4-7-3-14-9-18-16-5-6-7-19 4-20 0-3 1-8 5-7 0-3-1-7 3-8 1-3-2-5-1-8 8-3 10-12 15-18 6-6 16-11 12-20 8 4 6-7 13-9 7-3 6-11 7-16 4 1 7 1 5-4 11-9 22-21 28-34s15 0 17-15c7 3 6-6 13-6 7 1 6-8 13-8 1-4-5-5-4-9 7 0 11 3 18 1l4-9c7 2 8-6 15-4 0-7-6-11-6-18 3 5 7 2 12 5 0-6 4-7 8-4 2-6 3-16 11-16 7-1 13-6 20-8-72-5-144-16-218-18l-13-1c-71 0-138-15-208-15l-13-1-36-1h-13l-21-1-12-1h-16l-19-1h-37a304 304 0 0 0-41-2h-19l-14-1h-25c-30-3-59-7-89-7h-21l-16-1-14-1h-47c-30 0-58 1-88-3s-61-5-91-5h-13l-25-1h-88l-66-1h-48c-10-1-19 1-28-2-10-2-15 2-24 1l-30-1h-25l-48-1c-15 0-29-5-44-1s-31 2-46 3H333l-66 1c-21 0-41-5-62-5l-12-1h-24c-13 1-27 2-40 5s-25 3-38 8-25 4-39 3l-12-1c-12 0-19-8-30-13 4-13 15-18 25-28 9-11 23-13 37-17s30-9 46-8 32-7 49-5h14c9-1 18-5 27-4s18 3 26-1c9-4 19-1 28-1h38l28-1h76l39 1c12 0 26 3 38 2 12-2 22-9 34-4s24 2 37 2h18l27 1h33l34-1c4-7 17-1 25-3 2 9 12 3 20 2s20 1 29 1l29 1c9 0 19 2 29 1l20-1 50 2h39l11-1h10l11-1 38-1 13 1c17 0 30 5 46 6h23c10 0 23-4 33-1s18 4 29 2c4-1 10 0 14 1 17 5 37 7 53 4-2 6 5 2 8 4h11c5-1 8-5 13-1 2-4 10-1 15 0s15 3 20 2 6-13 13-9 10 4 18 2c1 5 5 2 8 2-1 8 16 11 18 5 4 5 14 0 16 6 4 1 6-3 10-3 11 7 27 1 42 2s27 5 43 5 28 1 43 3 18-16 34-14c-1 7 10 3 15 2 1 5 6 8 11 9h16c8 0 20-5 27 0s13 5 21 3c8-3 18-1 26 0h20c5 0 10-4 14-2 5 1 10 4 13-1a339 339 0 0 0 86 12c15 0 30 3 44 5 15 1 30-3 41 6h-30c-1 1 1 2 1 3 8 5 16-1 25 0a144 144 0 0 0 38 2c16-3 27 6 40 11 6-8 17 3 27 3 9 0 23 6 32 5-8-3-18-4-24-10 3-1 5 2 8 1-9-9-13-22-27-23s-14-20-22-28c-3 6-7-5-10-10-3-6-9-10-13-15l-10-18c-5-6-1-12-6-18-5 5-4-9-7-15l-11-17a119 119 0 0 1-19-37l-8-20c-2-7-6-13-9-19-2-7-5-13-9-19-5-5-2-16-6-22 4 2 0-9-1-14l-4-20c-1-6-5-14-3-19 7 11 15 21 20 34 5 12 18 20 25 30s8 27 18 37c9 10 17 20 22 33 4 13 13 24 20 35m-83-139c1 2 3 6 1 8 0-3-4-6-1-8m55 269c-4 2-10 0-15 1 4-2 10 0 15-1Z"/><path fill="#FD76DB" stroke="None" d="M1866 315c4 0 9 2 13 1-7 2-18 2-25 0-9 0-18-1-26-3-9-1-17 5-25 0-2-1-2-2-2-4 3 1 7-1 9 1h22c-11-9-26-5-41-6-14-2-29-5-44-5s-31-2-45-4-27-4-41-8c-3 5-8 2-13 1-4-2-9 2-14 2h-20c-8-1-18-3-26 0-8 2-14 2-21-3s-19 0-27 0h-16c-5-1-10-4-11-9-5 1-16 5-15-2-16-2-19 16-34 14s-27-3-43-3-28-4-43-5-31 5-42-2c-4 0-6 4-10 3-2-6-12-1-16-6-2 6-19 3-18-5-3 0-7 3-8-2-8 2-11 2-18-2s-8 8-13 9-15-1-20-2-13-4-15 0c-5-4-8 0-13 1h-11c-3-2-10 2-8-4-16 3-36 1-53-4l-14-1c-11 2-19 1-29-2s-23 1-33 1h-23c-16-1-29-6-46-6l-13-1-38 1-11 1h-10l-11 1h-12a171 171 0 0 1-27 0 735 735 0 0 0-70-1c-10 1-20-1-29-1l-29-1c-9 0-21-2-29-1s-18 7-20-2c-8 2-21-4-25 3l-34 1a229 229 0 0 1-33 0l-27-1h-18c-13 0-25 3-37-2s-22 2-34 4c-12 1-26-2-38-2l-39-1h-76l-28 1c-12 1-26 2-38 0-9 0-19-3-28 1-8 4-17 2-26 1s-18 3-27 4h-14c-17-2-33 6-49 5s-32 4-46 8-28 6-37 17c-10 10-21 15-25 28 11 5 18 13 30 13l12 1c14 1 26 2 39-3s25-5 38-8 27-4 40-5h24l12 1c21 0 41 5 62 5l66-1 42-1c19 0 40-1 58 1h16c15-1 31 1 46-3s29 1 44 1l48 1h25l30 1c9 1 14-3 24-1 9 3 18 1 28 2l28-1 20 1 66 1 39-1h16l25 1h33l13 1c30 0 61 1 91 5s58 3 88 3h47l14 1 16 1h21c30 0 59 4 89 7h25l14 1h19l17 1 24 1h37l19 1h16l12 1 21 1h13l36 1 13 1c70 0 137 15 208 15l13 1c74 2 146 13 218 18-7 2-13 7-20 8-8 0-9 10-11 16-4-3-8-2-8 4-5-3-9 0-12-5 0 7 6 11 6 18-7-2-8 6-15 4l-4 9c-7 2-11-1-18-1-1 4 5 5 4 9-7 0-6 9-13 8-7 0-6 9-13 6-2 15-11 2-17 15s-17 25-28 34c2 5-1 5-5 4-1 5 0 13-7 16-7 2-5 13-13 9 4 9-6 14-12 20-5 6-7 15-15 18-1 3 2 5 1 8-4 1-3 5-3 8-4-1-5 4-5 7-11 1-9 14-4 20 4 7 11 13 18 16 7 2 19 11 24 4 6-7 7-15 16-18s12-10 17-17c5-6 12-14 12-22 4 0 9-4 11-8s9-6 7-10c9-6 17-15 24-25 6-10 19-16 28-21 9-6 12-22 24-25s16-16 26-23c9-7 17-18 28-21 11-4 20-14 29-20 10-5 23-16 18-25 11-2 17-20 29-15-3-8 8-4 8-10 0-5-1-11 1-16-13-10-31-7-45-7-13 0-22-15-32-24l-29-28-16-15 10 16c-40-35-70-79-102-119l-10-10c-7-11-16-22-20-35-5-13-13-23-22-33-10-10-11-27-18-37s-20-18-25-30c-5-13-13-23-20-34-2 5 2 13 3 19l4 20c1 5 5 16 1 14 4 6 1 17 6 22 4 6 7 12 9 19 3 6 7 12 9 19l8 20 8 20 11 17 11 17c3 6 2 20 7 15 5 6 1 12 6 18l10 18c4 5 10 9 13 15 3 5 7 16 10 10 8 8 8 27 22 28s18 14 27 23c-3 1-5-2-8-1 6 6 16 7 24 10-9 1-23-5-32-5-10 0-21-11-27-3-13-5-24-14-40-11m147 78c-2 1-4 1-5-2 2-1 2-3 4-3h5c-1 2-5 2-4 5Z"/><path fill="#FB76DC" fill-opacity=".3" stroke="None" d="M1806 41c-3 2 1 5 1 8 2-2 0-6-1-8Z"/><path fill="#FCAEE3" fill-opacity=".1" stroke="None" d="m1899 190-10-10 10 10Z"/><path fill="#FB9DE0" fill-opacity=".1" stroke="None" d="M364 258h-36 36Z"/><path fill="none" fill-opacity="0" stroke="None" d="M552 259h18-18Z"/><path fill="#FF9AE3" fill-opacity=".5" stroke="None" d="M300 259h-38c12 2 26 1 38 0Z"/><path fill="#FEB2E9" fill-opacity=".1" stroke="None" d="m988 260-13-1 13 1Z"/><path fill="#FDBEEB" fill-opacity=".6" stroke="None" d="M609 261v-1h-12l12 1Z"/><path fill="#F7F7F8" fill-opacity=".4" stroke="None" d="m609 261 21-1h-21v1Z"/><path fill="none" fill-opacity="0" stroke="None" d="M796 261Z"/><path fill="#FCB2E7" fill-opacity=".1" stroke="None" d="m926 261 11-1-11 1Z"/><path fill="#FFA8E3" fill-opacity=".1" stroke="None" d="m905 262 11-1-11 1Z"/><path fill="#F6ECF7" fill-opacity=".1" stroke="None" d="M877 263v-1h-11l11 1Z"/><path fill="#F7A4E2" fill-opacity=".1" stroke="None" d="m877 263 16-1h-16v1Z"/><path fill="#FCD9F0" fill-opacity=".3" stroke="None" d="M181 265h-14 14Z"/><path fill="#FDBBEA" fill-opacity=".3" stroke="None" d="M1057 266h-23 23Z"/><path fill="#FDB7E8" fill-opacity=".1" stroke="None" d="M1133 268c-4-1-10-2-14-1l14 1Z"/><path fill="#FDD6EB" fill-opacity=".1" stroke="None" d="M1205 276h-11 11Z"/><path fill="#FBCBF0" fill-opacity=".1" stroke="None" d="M1540 287h-16 16Z"/><path fill="#F8B0E9" fill-opacity=".1" stroke="None" d="M1634 290Z"/><path fill="none" fill-opacity="0" stroke="None" d="m1991 293 16 15c-5-5-11-13-16-15Z"/><path fill="#FFBAED" fill-opacity=".1" stroke="None" d="M1803 313c0-1-2-2-1-3h8c-2-2-6 0-9-1 0 2 0 3 2 4Z"/><path fill="#F673D8" fill-opacity=".1" stroke="None" d="M1861 310c-5 1-11-1-15 1 5-1 11 1 15-1Z"/><path fill="#FDC5EC" fill-opacity=".4" stroke="None" d="M1854 316c7 2 18 2 25 0-4 1-9-1-13-1l-12 1Z"/><path fill="#FEA3E5" fill-opacity=".6" stroke="None" d="M169 321h21-21Z"/><path fill="#FCC9EC" fill-opacity=".1" stroke="None" d="m205 322-12-1 12 1Z"/><path fill="#FABFEC" fill-opacity=".1" stroke="None" d="M587 325h25-25Z"/><path fill="#FE8DE1" fill-opacity=".3" stroke="None" d="M333 326h42v-1l-42 1Z"/><path fill="#FAAEE3" fill-opacity=".1" stroke="None" d="M375 326h58c-18-2-39-1-58-1v1Z"/><path fill="none" fill-opacity="0" stroke="None" d="M437 326h12-12Z"/><path fill="#FAA2E7" fill-opacity=".1" stroke="None" d="M694 327h28v-1l-28 1Z"/><path fill="#FE76DD" fill-opacity=".2" stroke="None" d="M722 327h20l-20-1v1Z"/><path fill="#F8DBF0" fill-opacity=".1" stroke="None" d="M808 328h39v-1l-39 1Z"/><path fill="#FDB9EC" fill-opacity=".3" stroke="None" d="M847 328h16v-1h-16v1Z"/><path fill="#FEA0E4" fill-opacity=".6" stroke="None" d="M863 328h25l-25-1v1Z"/><path fill="none" fill-opacity="0" stroke="None" d="M921 329v-1h-25l25 1Z"/><path fill="#FF8FE1" fill-opacity=".2" stroke="None" d="M921 329h13l-13-1v1Z"/><path fill="#FCDCF1" fill-opacity=".1" stroke="None" d="m52 337-12-1 12 1Z"/><path fill="#FE91E1" fill-opacity=".2" stroke="None" d="M1113 337h35-35Z"/><path fill="#FFB9EB" fill-opacity=".1" stroke="None" d="m1174 338-14-1 14 1Z"/><path fill="#FF9DE5" fill-opacity=".1" stroke="None" d="M1190 339h21-21Z"/><path fill="#FE91E4" fill-opacity=".1" stroke="None" d="M1300 346h12-12Z"/><path fill="#FEB0EA" fill-opacity=".1" stroke="None" d="m1339 347-14-1 14 1Z"/><path fill="#FDB2EA" fill-opacity=".1" stroke="None" d="M1375 348Z"/><path fill="#FCA3E2" fill-opacity=".1" stroke="None" d="M1399 349h16-16Z"/><path fill="#FBB4EA" fill-opacity=".1" stroke="None" d="M1455 350Z"/><path fill="none" fill-opacity="0" stroke="None" d="m1483 351-12-1 12 1Z"/><path fill="#FCB8E5" fill-opacity=".1" stroke="None" d="M1504 352h13-13Z"/><path fill="#FFB9EB" fill-opacity=".1" stroke="None" d="m1566 354-13-1 13 1Z"/><path fill="#FDA8EB" fill-opacity=".1" stroke="None" d="m1787 370-13-1 13 1Z"/><path fill="#FBE2F5" fill-opacity=".1" stroke="None" d="m2013 393-4-1c1-2 3-2 3-4-2 0-2 2-4 3 1 3 3 3 5 2Z"/><path fill="none" fill-opacity="0" stroke="None" d="M2013 393c-1-3 3-3 4-5h-5c0 2-2 2-3 4l4 1Z"/></svg>