<svg xmlns="http://www.w3.org/2000/svg" xmlns:v="https://svgstorm.com"
viewBox = "0 0 1000 435"
width="1000"
height="435">
<g fill="None" fill-opacity="0.0" stroke="#000000" stroke-opacity="0.00" stroke-width="0.3"><path d="
M 0.00 435.00 
L 1000.00 435.00
L 1000.00 0.00
L 0.00 0.00
L 0.00 435.00
M 757.00 152.00 
C 746.00 152.00 735.00 152.00 724.00 152.00
C 706.98 152.00 690.47 156.48 674.00 159.00
C 684.87 190.31 684.57 233.77 678.22 265.22 C 671.87 296.67 659.92 323.89 641.75 348.75 C 623.57 373.60 606.30 391.01 581.75 408.75 C 557.20 426.50 519.86 442.03 490.92 423.08 C 461.98 404.13 468.15 358.06 475.33 329.33 C 482.51 300.60 496.72 272.10 514.25 248.25 C 531.78 224.41 551.28 206.50 575.25 189.25 C 599.21 172.00 630.01 159.88 658.00 151.00
C 652.25 129.97 638.35 112.21 625.00 95.00
C 622.41 92.03 618.77 88.77 616.00 86.00
C 595.11 68.14 572.75 54.89 545.00 53.00
C 537.86 52.51 530.15 52.61 523.00 53.00
C 483.94 55.12 448.85 73.40 414.00 89.00
C 419.56 103.94 423.10 117.47 425.33 133.67 C 427.56 149.87 426.91 170.89 425.00 187.00 C 423.09 203.11 419.17 218.32 415.22 233.22 C 411.27 248.13 406.52 262.42 401.22 276.22 C 395.93 290.03 390.76 302.48 384.23 315.23 C 377.70 327.97 371.21 339.72 363.08 351.08 C 354.95 362.45 347.10 372.01 336.75 381.75 C 326.41 391.50 316.64 398.61 303.77 404.77 C 290.90 410.93 268.92 413.40 254.99 409.01 C 241.07 404.61 229.73 399.14 219.25 388.75 C 208.78 378.35 202.39 366.57 199.02 351.98 C 195.66 337.39 199.46 315.64 203.93 301.93 C 208.39 288.21 214.43 275.58 221.25 263.25 C 228.08 250.93 235.38 239.55 243.25 228.25 C 251.11 216.94 258.24 206.56 267.25 196.25 C 276.26 185.93 283.95 175.46 293.75 165.75 C 303.56 156.05 312.65 147.14 323.25 138.25 C 333.84 129.35 342.37 121.25 354.25 113.25 C 366.13 105.24 375.28 98.01 389.08 91.08 C 402.87 84.14 391.35 69.69 382.70 59.30 C 374.04 48.92 364.81 39.36 352.75 32.25 C 340.70 25.13 323.48 19.50 309.00 19.00
C 303.77 18.72 298.23 18.72 293.00 19.00
C 248.24 21.43 207.38 50.99 175.00 79.00
C 201.51 118.51 198.86 179.14 193.00 225.00 C 187.14 270.86 176.05 316.49 153.70 355.70 C 131.34 394.90 87.74 422.14 45.75 398.25 C 3.76 374.35 0.09 315.01 14.98 274.98 C 29.86 234.94 51.19 199.44 75.75 165.75 C 100.32 132.07 125.84 103.59 158.00 77.00
C 145.79 59.74 123.42 52.28 103.00 51.00
C 99.75 50.82 96.25 50.78 93.00 51.00
C 81.99 51.75 73.58 52.83 63.77 59.77 C 53.96 66.71 42.87 59.29 54.08 52.08 C 65.29 44.88 70.80 44.93 82.00 42.00 C 93.20 39.07 106.04 39.45 116.67 41.33 C 127.30 43.21 136.00 46.44 145.08 50.92 C 154.15 55.41 159.77 61.52 167.00 68.00
C 205.22 39.59 244.24 12.86 293.00 8.00 C 341.76 3.14 389.14 34.58 408.00 79.00
C 440.96 64.47 472.17 50.89 508.00 44.00 C 543.84 37.11 586.32 46.30 613.70 69.30 C 641.07 92.31 657.45 116.35 670.00 148.00
C 775.25 125.38 882.16 155.76 970.00 211.00
C 957.21 187.96 942.31 167.11 931.23 142.77 C 920.15 118.44 904.32 92.42 902.00 66.00
C 905.00 66.00 908.00 66.00 911.00 66.00
C 913.46 75.79 918.19 84.83 921.77 94.23 C 925.35 103.63 929.25 113.25 933.77 122.23 C 938.29 131.21 942.39 140.18 946.92 149.08 C 951.46 157.97 956.80 165.81 961.31 174.70 C 965.81 183.58 972.80 189.84 976.77 199.23 C 980.75 208.62 990.33 212.60 992.31 223.70 C 994.28 234.79 971.43 230.07 961.33 231.33 C 951.23 232.59 935.27 231.99 924.00 234.00 C 912.73 236.01 902.34 237.06 890.33 240.33 C 878.32 243.60 872.60 244.42 858.98 248.98 C 845.35 253.53 845.71 239.69 859.22 237.22 C 872.74 234.76 878.69 231.23 891.01 229.01 C 903.33 226.79 912.93 224.78 925.01 223.01 C 937.08 221.24 949.74 222.11 961.00 219.00
C 899.26 181.03 830.78 154.02 757.00 152.00 Z"/>
</g>
<g fill="None" fill-opacity="0.0" stroke="#FE76DB" stroke-opacity="1.00" stroke-width="0.3"><path d="
M 93.00 51.00 
C 96.47 50.38 99.60 50.45 103.00 51.00
C 123.42 52.28 145.79 59.74 158.00 77.00
C 125.84 103.59 100.32 132.07 75.75 165.75 C 51.19 199.44 29.86 234.94 14.98 274.98 C 0.09 315.01 3.76 374.35 45.75 398.25 C 87.74 422.14 131.34 394.90 153.70 355.70 C 176.05 316.49 187.14 270.86 193.00 225.00 C 198.86 179.14 201.51 118.51 175.00 79.00
C 207.38 50.99 248.24 21.43 293.00 19.00
C 298.17 18.16 303.89 18.17 309.00 19.00
C 323.48 19.50 340.70 25.13 352.75 32.25 C 364.81 39.36 374.04 48.92 382.70 59.30 C 391.35 69.69 402.87 84.14 389.08 91.08 C 375.28 98.01 366.13 105.24 354.25 113.25 C 342.37 121.25 333.84 129.35 323.25 138.25 C 312.65 147.14 303.56 156.05 293.75 165.75 C 283.95 175.46 276.26 185.93 267.25 196.25 C 258.24 206.56 251.11 216.94 243.25 228.25 C 235.38 239.55 228.08 250.93 221.25 263.25 C 214.43 275.58 208.39 288.21 203.93 301.93 C 199.46 315.64 195.66 337.39 199.02 351.98 C 202.39 366.57 208.78 378.35 219.25 388.75 C 229.73 399.14 241.07 404.61 254.99 409.01 C 268.92 413.40 290.90 410.93 303.77 404.77 C 316.64 398.61 326.41 391.50 336.75 381.75 C 347.10 372.01 354.95 362.45 363.08 351.08 C 371.21 339.72 377.70 327.97 384.23 315.23 C 390.76 302.48 395.93 290.03 401.22 276.22 C 406.52 262.42 411.27 248.13 415.22 233.22 C 419.17 218.32 423.09 203.11 425.00 187.00 C 426.91 170.89 427.56 149.87 425.33 133.67 C 423.10 117.47 419.56 103.94 414.00 89.00
C 448.85 73.40 483.94 55.12 523.00 53.00
C 529.84 51.89 538.22 51.79 545.00 53.00
C 572.75 54.89 595.11 68.14 616.00 86.00
C 619.21 88.74 622.50 91.64 625.00 95.00
C 638.35 112.21 652.25 129.97 658.00 151.00
C 630.01 159.88 599.21 172.00 575.25 189.25 C 551.28 206.50 531.78 224.41 514.25 248.25 C 496.72 272.10 482.51 300.60 475.33 329.33 C 468.15 358.06 461.98 404.13 490.92 423.08 C 519.86 442.03 557.20 426.50 581.75 408.75 C 606.30 391.01 623.57 373.60 641.75 348.75 C 659.92 323.89 671.87 296.67 678.22 265.22 C 684.57 233.77 684.87 190.31 674.00 159.00
C 690.47 156.48 706.98 152.00 724.00 152.00
C 734.37 151.00 746.70 151.00 757.00 152.00
C 830.78 154.02 899.26 181.03 961.00 219.00
C 949.74 222.11 937.08 221.24 925.01 223.01 C 912.93 224.78 903.33 226.79 891.01 229.01 C 878.69 231.23 872.74 234.76 859.22 237.22 C 845.71 239.69 845.35 253.53 858.98 248.98 C 872.60 244.42 878.32 243.60 890.33 240.33 C 902.34 237.06 912.73 236.01 924.00 234.00 C 935.27 231.99 951.23 232.59 961.33 231.33 C 971.43 230.07 994.28 234.79 992.31 223.70 C 990.33 212.60 980.75 208.62 976.77 199.23 C 972.80 189.84 965.81 183.58 961.31 174.70 C 956.80 165.81 951.46 157.97 946.92 149.08 C 942.39 140.18 938.29 131.21 933.77 122.23 C 929.25 113.25 925.35 103.63 921.77 94.23 C 918.19 84.83 913.46 75.79 911.00 66.00
C 908.00 66.00 905.00 66.00 902.00 66.00
C 904.32 92.42 920.15 118.44 931.23 142.77 C 942.31 167.11 957.21 187.96 970.00 211.00
C 882.16 155.76 775.25 125.38 670.00 148.00
C 657.45 116.35 641.07 92.31 613.70 69.30 C 586.32 46.30 543.84 37.11 508.00 44.00 C 472.17 50.89 440.96 64.47 408.00 79.00
C 389.14 34.58 341.76 3.14 293.00 8.00 C 244.24 12.86 205.22 39.59 167.00 68.00
C 159.77 61.52 154.15 55.41 145.08 50.92 C 136.00 46.44 127.30 43.21 116.67 41.33 C 106.04 39.45 93.20 39.07 82.00 42.00 C 70.80 44.93 65.29 44.88 54.08 52.08 C 42.87 59.29 53.96 66.71 63.77 59.77 C 73.58 52.83 81.99 51.75 93.00 51.00
M 129.00 370.00 
C 125.99 373.52 122.75 377.32 119.00 380.00
C 108.41 387.56 97.31 395.09 84.00 396.00
C 79.97 396.72 75.94 396.56 72.00 396.00
C 41.17 394.82 18.55 357.74 18.00 330.00
C 17.42 325.17 17.32 319.79 18.00 315.00
C 18.45 303.12 22.01 290.53 25.78 279.78 C 29.54 269.02 33.27 258.96 37.93 248.93 C 42.58 238.89 48.18 229.74 53.30 220.30 C 58.42 210.86 64.02 202.61 69.75 193.75 C 75.49 184.90 81.79 176.31 87.77 167.77 C 93.75 159.23 101.10 152.57 107.25 144.25 C 113.40 135.92 120.95 129.77 127.75 121.75 C 134.56 113.73 141.96 107.02 149.75 99.75 C 157.55 92.48 166.08 81.00 170.97 94.03 C 175.87 107.06 179.86 113.86 181.99 127.01 C 184.12 140.16 185.90 152.50 186.00 166.00 C 186.10 179.50 185.35 194.10 184.00 207.00 C 182.65 219.90 180.80 233.39 178.67 245.67 C 176.54 257.95 173.79 269.45 171.02 281.02 C 168.26 292.60 164.62 303.97 160.69 314.69 C 156.77 325.42 152.52 334.49 147.23 344.23 C 141.94 353.97 136.20 361.58 129.00 370.00
M 338.00 365.00 
C 334.33 369.94 328.96 375.46 324.00 379.00
C 310.16 388.89 296.46 398.61 279.00 400.00
C 275.22 400.73 271.71 400.67 268.00 400.00
C 254.89 399.11 242.48 392.33 232.00 385.00
C 228.69 382.68 225.28 379.26 223.00 376.00
C 216.01 366.01 210.48 355.68 210.00 343.00
C 209.57 340.01 209.72 336.87 210.00 334.00
C 210.00 303.67 227.88 275.94 241.92 250.92 C 255.96 225.90 274.48 208.12 291.00 185.00
C 294.81 179.67 301.46 172.42 307.00 169.00
C 307.32 168.80 307.80 168.32 308.00 168.00
C 311.87 161.73 319.30 156.07 325.00 152.00
C 332.70 145.16 339.24 139.89 347.25 133.25 C 355.26 126.60 362.44 122.84 371.08 116.08 C 379.73 109.32 386.16 107.17 396.08 100.08 C 406.01 92.99 408.80 106.86 411.32 117.68 C 413.84 128.50 416.40 141.85 416.00 154.00 C 415.60 166.15 415.16 181.40 413.00 193.00 C 410.84 204.60 408.57 215.97 406.01 227.01 C 403.44 238.04 399.46 247.84 396.22 258.22 C 392.98 268.61 388.95 278.26 385.02 288.02 C 381.10 297.79 376.09 306.20 371.23 315.23 C 366.37 324.26 361.90 332.78 356.08 341.08 C 350.26 349.38 344.02 356.90 338.00 365.00
M 672.00 215.00 
C 672.60 219.22 672.40 223.90 672.00 228.00
C 672.00 283.95 643.27 329.73 608.00 371.00
C 602.71 377.19 596.58 383.39 590.00 388.00
C 570.64 401.55 553.42 414.55 530.00 420.00
C 526.20 420.88 522.64 420.44 519.00 420.00
C 497.40 419.57 482.14 403.05 481.00 382.00
C 480.02 375.97 480.03 368.96 481.00 363.00
C 486.21 266.94 572.85 183.72 663.00 163.00
C 668.26 179.71 670.97 197.16 672.00 215.00 Z"/>
</g>
<g fill="None" fill-opacity="0.0" stroke="#FAC4E9" stroke-opacity="0.09" stroke-width="0.3"><path d="
M 293.00 19.00 
C 298.23 18.72 303.77 18.72 309.00 19.00
C 303.89 18.17 298.17 18.16 293.00 19.00 Z"/>
</g>
<g fill="None" fill-opacity="0.0" stroke="#FE92E0" stroke-opacity="0.44" stroke-width="0.3"><path d="
M 93.00 51.00 
C 96.25 50.78 99.75 50.82 103.00 51.00
C 99.60 50.45 96.47 50.38 93.00 51.00 Z"/>
</g>
<g fill="None" fill-opacity="0.0" stroke="#FCC7EC" stroke-opacity="0.10" stroke-width="0.3"><path d="
M 523.00 53.00 
C 530.15 52.61 537.86 52.51 545.00 53.00
C 538.22 51.79 529.84 51.89 523.00 53.00 Z"/>
</g>
<g fill="None" fill-opacity="0.0" stroke="#000000" stroke-opacity="0.00" stroke-width="0.3"><path d="
M 18.00 315.00 
C 17.81 319.97 17.90 325.03 18.00 330.00
C 18.55 357.74 41.17 394.82 72.00 396.00
C 75.93 396.15 80.08 396.27 84.00 396.00
C 97.31 395.09 108.41 387.56 119.00 380.00
C 122.32 377.21 125.94 373.06 129.00 370.00
C 136.20 361.58 141.94 353.97 147.23 344.23 C 152.52 334.49 156.77 325.42 160.69 314.69 C 164.62 303.97 168.26 292.60 171.02 281.02 C 173.79 269.45 176.54 257.95 178.67 245.67 C 180.80 233.39 182.65 219.90 184.00 207.00 C 185.35 194.10 186.10 179.50 186.00 166.00 C 185.90 152.50 184.12 140.16 181.99 127.01 C 179.86 113.86 175.87 107.06 170.97 94.03 C 166.08 81.00 157.55 92.48 149.75 99.75 C 141.96 107.02 134.56 113.73 127.75 121.75 C 120.95 129.77 113.40 135.92 107.25 144.25 C 101.10 152.57 93.75 159.23 87.77 167.77 C 81.79 176.31 75.49 184.90 69.75 193.75 C 64.02 202.61 58.42 210.86 53.30 220.30 C 48.18 229.74 42.58 238.89 37.93 248.93 C 33.27 258.96 29.54 269.02 25.78 279.78 C 22.01 290.53 18.45 303.12 18.00 315.00 Z"/>
</g>
<g fill="None" fill-opacity="0.0" stroke="#FAEBF6" stroke-opacity="0.04" stroke-width="0.3"><path d="
M 625.00 95.00 
C 622.50 91.64 619.21 88.74 616.00 86.00
C 618.77 88.77 622.41 92.03 625.00 95.00 Z"/>
</g>
<g fill="None" fill-opacity="0.0" stroke="#000000" stroke-opacity="0.00" stroke-width="0.3"><path d="
M 325.00 152.00 
C 319.46 156.92 313.99 163.33 308.00 168.00
C 307.80 168.32 307.32 168.80 307.00 169.00
C 302.39 174.92 295.70 179.39 291.00 185.00
C 274.48 208.12 255.96 225.90 241.92 250.92 C 227.88 275.94 210.00 303.67 210.00 334.00
C 210.00 336.99 209.89 340.01 210.00 343.00
C 210.48 355.68 216.01 366.01 223.00 376.00
C 225.23 378.72 229.34 382.81 232.00 385.00
C 242.48 392.33 254.89 399.11 268.00 400.00
C 271.53 400.24 275.47 400.28 279.00 400.00
C 296.46 398.61 310.16 388.89 324.00 379.00
C 328.54 375.20 334.15 369.42 338.00 365.00
C 344.02 356.90 350.26 349.38 356.08 341.08 C 361.90 332.78 366.37 324.26 371.23 315.23 C 376.09 306.20 381.10 297.79 385.02 288.02 C 388.95 278.26 392.98 268.61 396.22 258.22 C 399.46 247.84 403.44 238.04 406.01 227.01 C 408.57 215.97 410.84 204.60 413.00 193.00 C 415.16 181.40 415.60 166.15 416.00 154.00 C 416.40 141.85 413.84 128.50 411.32 117.68 C 408.80 106.86 406.01 92.99 396.08 100.08 C 386.16 107.17 379.73 109.32 371.08 116.08 C 362.44 122.84 355.26 126.60 347.25 133.25 C 339.24 139.89 332.70 145.16 325.00 152.00 Z"/>
</g>
<g fill="None" fill-opacity="0.0" stroke="#FBC9E6" stroke-opacity="0.06" stroke-width="0.3"><path d="
M 724.00 152.00 
C 735.00 152.00 746.00 152.00 757.00 152.00
C 746.70 151.00 734.37 151.00 724.00 152.00 Z"/>
</g>
<g fill="None" fill-opacity="0.0" stroke="#FDCDED" stroke-opacity="0.10" stroke-width="0.3"><path d="
M 308.00 168.00 
C 313.99 163.33 319.46 156.92 325.00 152.00
C 319.30 156.07 311.87 161.73 308.00 168.00 Z"/>
</g>
<g fill="None" fill-opacity="0.0" stroke="#000000" stroke-opacity="0.00" stroke-width="0.3"><path d="
M 481.00 363.00 
C 480.66 369.21 480.66 375.79 481.00 382.00
C 482.14 403.05 497.40 419.57 519.00 420.00
C 522.56 420.07 526.46 420.40 530.00 420.00
C 553.42 414.55 570.64 401.55 590.00 388.00
C 596.11 382.98 602.36 376.64 608.00 371.00
C 643.27 329.73 672.00 283.95 672.00 228.00
C 672.00 223.68 672.16 219.32 672.00 215.00
C 670.97 197.16 668.26 179.71 663.00 163.00
C 572.85 183.72 486.21 266.94 481.00 363.00 Z"/>
</g>
<g fill="None" fill-opacity="0.0" stroke="#FDCDF1" stroke-opacity="0.05" stroke-width="0.3"><path d="
M 291.00 185.00 
C 295.70 179.39 302.39 174.92 307.00 169.00
C 301.46 172.42 294.81 179.67 291.00 185.00 Z"/>
</g>
<g fill="None" fill-opacity="0.0" stroke="#FF8EDF" stroke-opacity="0.34" stroke-width="0.3"><path d="
M 672.00 228.00 
C 672.40 223.90 672.60 219.22 672.00 215.00
C 672.16 219.32 672.00 223.68 672.00 228.00 Z"/>
</g>
<g fill="None" fill-opacity="0.0" stroke="#F8C0E7" stroke-opacity="0.07" stroke-width="0.3"><path d="
M 18.00 330.00 
C 17.90 325.03 17.81 319.97 18.00 315.00
C 17.32 319.79 17.42 325.17 18.00 330.00 Z"/>
</g>
<g fill="None" fill-opacity="0.0" stroke="#FCDCED" stroke-opacity="0.04" stroke-width="0.3"><path d="
M 210.00 343.00 
C 209.89 340.01 210.00 336.99 210.00 334.00
C 209.72 336.87 209.57 340.01 210.00 343.00 Z"/>
</g>
<g fill="None" fill-opacity="0.0" stroke="#FCCBEB" stroke-opacity="0.07" stroke-width="0.3"><path d="
M 481.00 382.00 
C 480.66 375.79 480.66 369.21 481.00 363.00
C 480.03 368.96 480.02 375.97 481.00 382.00 Z"/>
</g>
<g fill="None" fill-opacity="0.0" stroke="#F0D2EA" stroke-opacity="0.05" stroke-width="0.3"><path d="
M 324.00 379.00 
C 328.96 375.46 334.33 369.94 338.00 365.00
C 334.15 369.42 328.54 375.20 324.00 379.00 Z"/>
</g>
<g fill="None" fill-opacity="0.0" stroke="#FFDDEF" stroke-opacity="0.03" stroke-width="0.3"><path d="
M 119.00 380.00 
C 122.75 377.32 125.99 373.52 129.00 370.00
C 125.94 373.06 122.32 377.21 119.00 380.00 Z"/>
</g>
<g fill="None" fill-opacity="0.0" stroke="#FBE4F5" stroke-opacity="0.10" stroke-width="0.3"><path d="
M 590.00 388.00 
C 596.58 383.39 602.71 377.19 608.00 371.00
C 602.36 376.64 596.11 382.98 590.00 388.00 Z"/>
</g>
<g fill="None" fill-opacity="0.0" stroke="#FDB8E5" stroke-opacity="0.15" stroke-width="0.3"><path d="
M 232.00 385.00 
C 229.34 382.81 225.23 378.72 223.00 376.00
C 225.28 379.26 228.69 382.68 232.00 385.00 Z"/>
</g>
<g fill="None" fill-opacity="0.0" stroke="#FFEFFA" stroke-opacity="0.04" stroke-width="0.3"><path d="
M 84.00 396.00 
C 80.08 396.27 75.93 396.15 72.00 396.00
C 75.94 396.56 79.97 396.72 84.00 396.00 Z"/>
</g>
<g fill="None" fill-opacity="0.0" stroke="#FE9BE2" stroke-opacity="0.30" stroke-width="0.3"><path d="
M 279.00 400.00 
C 275.47 400.28 271.53 400.24 268.00 400.00
C 271.71 400.67 275.22 400.73 279.00 400.00 Z"/>
</g>
<g fill="None" fill-opacity="0.0" stroke="#FBCAE9" stroke-opacity="0.11" stroke-width="0.3"><path d="
M 530.00 420.00 
C 526.46 420.40 522.56 420.07 519.00 420.00
C 522.64 420.44 526.20 420.88 530.00 420.00 Z"/>
</g>
<g fill="#000000" fill-opacity="0.00" stroke="None">
<path d="
M 0.00 435.00 
L 1000.00 435.00
L 1000.00 0.00
L 0.00 0.00
L 0.00 435.00
M 757.00 152.00 
C 746.00 152.00 735.00 152.00 724.00 152.00
C 706.98 152.00 690.47 156.48 674.00 159.00
C 684.87 190.31 684.57 233.77 678.22 265.22 C 671.87 296.67 659.92 323.89 641.75 348.75 C 623.57 373.60 606.30 391.01 581.75 408.75 C 557.20 426.50 519.86 442.03 490.92 423.08 C 461.98 404.13 468.15 358.06 475.33 329.33 C 482.51 300.60 496.72 272.10 514.25 248.25 C 531.78 224.41 551.28 206.50 575.25 189.25 C 599.21 172.00 630.01 159.88 658.00 151.00
C 652.25 129.97 638.35 112.21 625.00 95.00
C 622.41 92.03 618.77 88.77 616.00 86.00
C 595.11 68.14 572.75 54.89 545.00 53.00
C 537.86 52.51 530.15 52.61 523.00 53.00
C 483.94 55.12 448.85 73.40 414.00 89.00
C 419.56 103.94 423.10 117.47 425.33 133.67 C 427.56 149.87 426.91 170.89 425.00 187.00 C 423.09 203.11 419.17 218.32 415.22 233.22 C 411.27 248.13 406.52 262.42 401.22 276.22 C 395.93 290.03 390.76 302.48 384.23 315.23 C 377.70 327.97 371.21 339.72 363.08 351.08 C 354.95 362.45 347.10 372.01 336.75 381.75 C 326.41 391.50 316.64 398.61 303.77 404.77 C 290.90 410.93 268.92 413.40 254.99 409.01 C 241.07 404.61 229.73 399.14 219.25 388.75 C 208.78 378.35 202.39 366.57 199.02 351.98 C 195.66 337.39 199.46 315.64 203.93 301.93 C 208.39 288.21 214.43 275.58 221.25 263.25 C 228.08 250.93 235.38 239.55 243.25 228.25 C 251.11 216.94 258.24 206.56 267.25 196.25 C 276.26 185.93 283.95 175.46 293.75 165.75 C 303.56 156.05 312.65 147.14 323.25 138.25 C 333.84 129.35 342.37 121.25 354.25 113.25 C 366.13 105.24 375.28 98.01 389.08 91.08 C 402.87 84.14 391.35 69.69 382.70 59.30 C 374.04 48.92 364.81 39.36 352.75 32.25 C 340.70 25.13 323.48 19.50 309.00 19.00
C 303.77 18.72 298.23 18.72 293.00 19.00
C 248.24 21.43 207.38 50.99 175.00 79.00
C 201.51 118.51 198.86 179.14 193.00 225.00 C 187.14 270.86 176.05 316.49 153.70 355.70 C 131.34 394.90 87.74 422.14 45.75 398.25 C 3.76 374.35 0.09 315.01 14.98 274.98 C 29.86 234.94 51.19 199.44 75.75 165.75 C 100.32 132.07 125.84 103.59 158.00 77.00
C 145.79 59.74 123.42 52.28 103.00 51.00
C 99.75 50.82 96.25 50.78 93.00 51.00
C 81.99 51.75 73.58 52.83 63.77 59.77 C 53.96 66.71 42.87 59.29 54.08 52.08 C 65.29 44.88 70.80 44.93 82.00 42.00 C 93.20 39.07 106.04 39.45 116.67 41.33 C 127.30 43.21 136.00 46.44 145.08 50.92 C 154.15 55.41 159.77 61.52 167.00 68.00
C 205.22 39.59 244.24 12.86 293.00 8.00 C 341.76 3.14 389.14 34.58 408.00 79.00
C 440.96 64.47 472.17 50.89 508.00 44.00 C 543.84 37.11 586.32 46.30 613.70 69.30 C 641.07 92.31 657.45 116.35 670.00 148.00
C 775.25 125.38 882.16 155.76 970.00 211.00
C 957.21 187.96 942.31 167.11 931.23 142.77 C 920.15 118.44 904.32 92.42 902.00 66.00
C 905.00 66.00 908.00 66.00 911.00 66.00
C 913.46 75.79 918.19 84.83 921.77 94.23 C 925.35 103.63 929.25 113.25 933.77 122.23 C 938.29 131.21 942.39 140.18 946.92 149.08 C 951.46 157.97 956.80 165.81 961.31 174.70 C 965.81 183.58 972.80 189.84 976.77 199.23 C 980.75 208.62 990.33 212.60 992.31 223.70 C 994.28 234.79 971.43 230.07 961.33 231.33 C 951.23 232.59 935.27 231.99 924.00 234.00 C 912.73 236.01 902.34 237.06 890.33 240.33 C 878.32 243.60 872.60 244.42 858.98 248.98 C 845.35 253.53 845.71 239.69 859.22 237.22 C 872.74 234.76 878.69 231.23 891.01 229.01 C 903.33 226.79 912.93 224.78 925.01 223.01 C 937.08 221.24 949.74 222.11 961.00 219.00
C 899.26 181.03 830.78 154.02 757.00 152.00 Z"/>
</g>
<g fill="#FE76DB" fill-opacity="1.00" stroke="None">
<path d="
M 93.00 51.00 
C 96.47 50.38 99.60 50.45 103.00 51.00
C 123.42 52.28 145.79 59.74 158.00 77.00
C 125.84 103.59 100.32 132.07 75.75 165.75 C 51.19 199.44 29.86 234.94 14.98 274.98 C 0.09 315.01 3.76 374.35 45.75 398.25 C 87.74 422.14 131.34 394.90 153.70 355.70 C 176.05 316.49 187.14 270.86 193.00 225.00 C 198.86 179.14 201.51 118.51 175.00 79.00
C 207.38 50.99 248.24 21.43 293.00 19.00
C 298.17 18.16 303.89 18.17 309.00 19.00
C 323.48 19.50 340.70 25.13 352.75 32.25 C 364.81 39.36 374.04 48.92 382.70 59.30 C 391.35 69.69 402.87 84.14 389.08 91.08 C 375.28 98.01 366.13 105.24 354.25 113.25 C 342.37 121.25 333.84 129.35 323.25 138.25 C 312.65 147.14 303.56 156.05 293.75 165.75 C 283.95 175.46 276.26 185.93 267.25 196.25 C 258.24 206.56 251.11 216.94 243.25 228.25 C 235.38 239.55 228.08 250.93 221.25 263.25 C 214.43 275.58 208.39 288.21 203.93 301.93 C 199.46 315.64 195.66 337.39 199.02 351.98 C 202.39 366.57 208.78 378.35 219.25 388.75 C 229.73 399.14 241.07 404.61 254.99 409.01 C 268.92 413.40 290.90 410.93 303.77 404.77 C 316.64 398.61 326.41 391.50 336.75 381.75 C 347.10 372.01 354.95 362.45 363.08 351.08 C 371.21 339.72 377.70 327.97 384.23 315.23 C 390.76 302.48 395.93 290.03 401.22 276.22 C 406.52 262.42 411.27 248.13 415.22 233.22 C 419.17 218.32 423.09 203.11 425.00 187.00 C 426.91 170.89 427.56 149.87 425.33 133.67 C 423.10 117.47 419.56 103.94 414.00 89.00
C 448.85 73.40 483.94 55.12 523.00 53.00
C 529.84 51.89 538.22 51.79 545.00 53.00
C 572.75 54.89 595.11 68.14 616.00 86.00
C 619.21 88.74 622.50 91.64 625.00 95.00
C 638.35 112.21 652.25 129.97 658.00 151.00
C 630.01 159.88 599.21 172.00 575.25 189.25 C 551.28 206.50 531.78 224.41 514.25 248.25 C 496.72 272.10 482.51 300.60 475.33 329.33 C 468.15 358.06 461.98 404.13 490.92 423.08 C 519.86 442.03 557.20 426.50 581.75 408.75 C 606.30 391.01 623.57 373.60 641.75 348.75 C 659.92 323.89 671.87 296.67 678.22 265.22 C 684.57 233.77 684.87 190.31 674.00 159.00
C 690.47 156.48 706.98 152.00 724.00 152.00
C 734.37 151.00 746.70 151.00 757.00 152.00
C 830.78 154.02 899.26 181.03 961.00 219.00
C 949.74 222.11 937.08 221.24 925.01 223.01 C 912.93 224.78 903.33 226.79 891.01 229.01 C 878.69 231.23 872.74 234.76 859.22 237.22 C 845.71 239.69 845.35 253.53 858.98 248.98 C 872.60 244.42 878.32 243.60 890.33 240.33 C 902.34 237.06 912.73 236.01 924.00 234.00 C 935.27 231.99 951.23 232.59 961.33 231.33 C 971.43 230.07 994.28 234.79 992.31 223.70 C 990.33 212.60 980.75 208.62 976.77 199.23 C 972.80 189.84 965.81 183.58 961.31 174.70 C 956.80 165.81 951.46 157.97 946.92 149.08 C 942.39 140.18 938.29 131.21 933.77 122.23 C 929.25 113.25 925.35 103.63 921.77 94.23 C 918.19 84.83 913.46 75.79 911.00 66.00
C 908.00 66.00 905.00 66.00 902.00 66.00
C 904.32 92.42 920.15 118.44 931.23 142.77 C 942.31 167.11 957.21 187.96 970.00 211.00
C 882.16 155.76 775.25 125.38 670.00 148.00
C 657.45 116.35 641.07 92.31 613.70 69.30 C 586.32 46.30 543.84 37.11 508.00 44.00 C 472.17 50.89 440.96 64.47 408.00 79.00
C 389.14 34.58 341.76 3.14 293.00 8.00 C 244.24 12.86 205.22 39.59 167.00 68.00
C 159.77 61.52 154.15 55.41 145.08 50.92 C 136.00 46.44 127.30 43.21 116.67 41.33 C 106.04 39.45 93.20 39.07 82.00 42.00 C 70.80 44.93 65.29 44.88 54.08 52.08 C 42.87 59.29 53.96 66.71 63.77 59.77 C 73.58 52.83 81.99 51.75 93.00 51.00
M 129.00 370.00 
C 125.99 373.52 122.75 377.32 119.00 380.00
C 108.41 387.56 97.31 395.09 84.00 396.00
C 79.97 396.72 75.94 396.56 72.00 396.00
C 41.17 394.82 18.55 357.74 18.00 330.00
C 17.42 325.17 17.32 319.79 18.00 315.00
C 18.45 303.12 22.01 290.53 25.78 279.78 C 29.54 269.02 33.27 258.96 37.93 248.93 C 42.58 238.89 48.18 229.74 53.30 220.30 C 58.42 210.86 64.02 202.61 69.75 193.75 C 75.49 184.90 81.79 176.31 87.77 167.77 C 93.75 159.23 101.10 152.57 107.25 144.25 C 113.40 135.92 120.95 129.77 127.75 121.75 C 134.56 113.73 141.96 107.02 149.75 99.75 C 157.55 92.48 166.08 81.00 170.97 94.03 C 175.87 107.06 179.86 113.86 181.99 127.01 C 184.12 140.16 185.90 152.50 186.00 166.00 C 186.10 179.50 185.35 194.10 184.00 207.00 C 182.65 219.90 180.80 233.39 178.67 245.67 C 176.54 257.95 173.79 269.45 171.02 281.02 C 168.26 292.60 164.62 303.97 160.69 314.69 C 156.77 325.42 152.52 334.49 147.23 344.23 C 141.94 353.97 136.20 361.58 129.00 370.00
M 338.00 365.00 
C 334.33 369.94 328.96 375.46 324.00 379.00
C 310.16 388.89 296.46 398.61 279.00 400.00
C 275.22 400.73 271.71 400.67 268.00 400.00
C 254.89 399.11 242.48 392.33 232.00 385.00
C 228.69 382.68 225.28 379.26 223.00 376.00
C 216.01 366.01 210.48 355.68 210.00 343.00
C 209.57 340.01 209.72 336.87 210.00 334.00
C 210.00 303.67 227.88 275.94 241.92 250.92 C 255.96 225.90 274.48 208.12 291.00 185.00
C 294.81 179.67 301.46 172.42 307.00 169.00
C 307.32 168.80 307.80 168.32 308.00 168.00
C 311.87 161.73 319.30 156.07 325.00 152.00
C 332.70 145.16 339.24 139.89 347.25 133.25 C 355.26 126.60 362.44 122.84 371.08 116.08 C 379.73 109.32 386.16 107.17 396.08 100.08 C 406.01 92.99 408.80 106.86 411.32 117.68 C 413.84 128.50 416.40 141.85 416.00 154.00 C 415.60 166.15 415.16 181.40 413.00 193.00 C 410.84 204.60 408.57 215.97 406.01 227.01 C 403.44 238.04 399.46 247.84 396.22 258.22 C 392.98 268.61 388.95 278.26 385.02 288.02 C 381.10 297.79 376.09 306.20 371.23 315.23 C 366.37 324.26 361.90 332.78 356.08 341.08 C 350.26 349.38 344.02 356.90 338.00 365.00
M 672.00 215.00 
C 672.60 219.22 672.40 223.90 672.00 228.00
C 672.00 283.95 643.27 329.73 608.00 371.00
C 602.71 377.19 596.58 383.39 590.00 388.00
C 570.64 401.55 553.42 414.55 530.00 420.00
C 526.20 420.88 522.64 420.44 519.00 420.00
C 497.40 419.57 482.14 403.05 481.00 382.00
C 480.02 375.97 480.03 368.96 481.00 363.00
C 486.21 266.94 572.85 183.72 663.00 163.00
C 668.26 179.71 670.97 197.16 672.00 215.00 Z"/>
</g>
<g fill="#FAC4E9" fill-opacity="0.09" stroke="None">
<path d="
M 293.00 19.00 
C 298.23 18.72 303.77 18.72 309.00 19.00
C 303.89 18.17 298.17 18.16 293.00 19.00 Z"/>
</g>
<g fill="#FE92E0" fill-opacity="0.44" stroke="None">
<path d="
M 93.00 51.00 
C 96.25 50.78 99.75 50.82 103.00 51.00
C 99.60 50.45 96.47 50.38 93.00 51.00 Z"/>
</g>
<g fill="#FCC7EC" fill-opacity="0.10" stroke="None">
<path d="
M 523.00 53.00 
C 530.15 52.61 537.86 52.51 545.00 53.00
C 538.22 51.79 529.84 51.89 523.00 53.00 Z"/>
</g>
<g fill="#000000" fill-opacity="0.00" stroke="None">
<path d="
M 18.00 315.00 
C 17.81 319.97 17.90 325.03 18.00 330.00
C 18.55 357.74 41.17 394.82 72.00 396.00
C 75.93 396.15 80.08 396.27 84.00 396.00
C 97.31 395.09 108.41 387.56 119.00 380.00
C 122.32 377.21 125.94 373.06 129.00 370.00
C 136.20 361.58 141.94 353.97 147.23 344.23 C 152.52 334.49 156.77 325.42 160.69 314.69 C 164.62 303.97 168.26 292.60 171.02 281.02 C 173.79 269.45 176.54 257.95 178.67 245.67 C 180.80 233.39 182.65 219.90 184.00 207.00 C 185.35 194.10 186.10 179.50 186.00 166.00 C 185.90 152.50 184.12 140.16 181.99 127.01 C 179.86 113.86 175.87 107.06 170.97 94.03 C 166.08 81.00 157.55 92.48 149.75 99.75 C 141.96 107.02 134.56 113.73 127.75 121.75 C 120.95 129.77 113.40 135.92 107.25 144.25 C 101.10 152.57 93.75 159.23 87.77 167.77 C 81.79 176.31 75.49 184.90 69.75 193.75 C 64.02 202.61 58.42 210.86 53.30 220.30 C 48.18 229.74 42.58 238.89 37.93 248.93 C 33.27 258.96 29.54 269.02 25.78 279.78 C 22.01 290.53 18.45 303.12 18.00 315.00 Z"/>
</g>
<g fill="#FAEBF6" fill-opacity="0.04" stroke="None">
<path d="
M 625.00 95.00 
C 622.50 91.64 619.21 88.74 616.00 86.00
C 618.77 88.77 622.41 92.03 625.00 95.00 Z"/>
</g>
<g fill="#000000" fill-opacity="0.00" stroke="None">
<path d="
M 325.00 152.00 
C 319.46 156.92 313.99 163.33 308.00 168.00
C 307.80 168.32 307.32 168.80 307.00 169.00
C 302.39 174.92 295.70 179.39 291.00 185.00
C 274.48 208.12 255.96 225.90 241.92 250.92 C 227.88 275.94 210.00 303.67 210.00 334.00
C 210.00 336.99 209.89 340.01 210.00 343.00
C 210.48 355.68 216.01 366.01 223.00 376.00
C 225.23 378.72 229.34 382.81 232.00 385.00
C 242.48 392.33 254.89 399.11 268.00 400.00
C 271.53 400.24 275.47 400.28 279.00 400.00
C 296.46 398.61 310.16 388.89 324.00 379.00
C 328.54 375.20 334.15 369.42 338.00 365.00
C 344.02 356.90 350.26 349.38 356.08 341.08 C 361.90 332.78 366.37 324.26 371.23 315.23 C 376.09 306.20 381.10 297.79 385.02 288.02 C 388.95 278.26 392.98 268.61 396.22 258.22 C 399.46 247.84 403.44 238.04 406.01 227.01 C 408.57 215.97 410.84 204.60 413.00 193.00 C 415.16 181.40 415.60 166.15 416.00 154.00 C 416.40 141.85 413.84 128.50 411.32 117.68 C 408.80 106.86 406.01 92.99 396.08 100.08 C 386.16 107.17 379.73 109.32 371.08 116.08 C 362.44 122.84 355.26 126.60 347.25 133.25 C 339.24 139.89 332.70 145.16 325.00 152.00 Z"/>
</g>
<g fill="#FBC9E6" fill-opacity="0.06" stroke="None">
<path d="
M 724.00 152.00 
C 735.00 152.00 746.00 152.00 757.00 152.00
C 746.70 151.00 734.37 151.00 724.00 152.00 Z"/>
</g>
<g fill="#FDCDED" fill-opacity="0.10" stroke="None">
<path d="
M 308.00 168.00 
C 313.99 163.33 319.46 156.92 325.00 152.00
C 319.30 156.07 311.87 161.73 308.00 168.00 Z"/>
</g>
<g fill="#000000" fill-opacity="0.00" stroke="None">
<path d="
M 481.00 363.00 
C 480.66 369.21 480.66 375.79 481.00 382.00
C 482.14 403.05 497.40 419.57 519.00 420.00
C 522.56 420.07 526.46 420.40 530.00 420.00
C 553.42 414.55 570.64 401.55 590.00 388.00
C 596.11 382.98 602.36 376.64 608.00 371.00
C 643.27 329.73 672.00 283.95 672.00 228.00
C 672.00 223.68 672.16 219.32 672.00 215.00
C 670.97 197.16 668.26 179.71 663.00 163.00
C 572.85 183.72 486.21 266.94 481.00 363.00 Z"/>
</g>
<g fill="#FDCDF1" fill-opacity="0.05" stroke="None">
<path d="
M 291.00 185.00 
C 295.70 179.39 302.39 174.92 307.00 169.00
C 301.46 172.42 294.81 179.67 291.00 185.00 Z"/>
</g>
<g fill="#FF8EDF" fill-opacity="0.34" stroke="None">
<path d="
M 672.00 228.00 
C 672.40 223.90 672.60 219.22 672.00 215.00
C 672.16 219.32 672.00 223.68 672.00 228.00 Z"/>
</g>
<g fill="#F8C0E7" fill-opacity="0.07" stroke="None">
<path d="
M 18.00 330.00 
C 17.90 325.03 17.81 319.97 18.00 315.00
C 17.32 319.79 17.42 325.17 18.00 330.00 Z"/>
</g>
<g fill="#FCDCED" fill-opacity="0.04" stroke="None">
<path d="
M 210.00 343.00 
C 209.89 340.01 210.00 336.99 210.00 334.00
C 209.72 336.87 209.57 340.01 210.00 343.00 Z"/>
</g>
<g fill="#FCCBEB" fill-opacity="0.07" stroke="None">
<path d="
M 481.00 382.00 
C 480.66 375.79 480.66 369.21 481.00 363.00
C 480.03 368.96 480.02 375.97 481.00 382.00 Z"/>
</g>
<g fill="#F0D2EA" fill-opacity="0.05" stroke="None">
<path d="
M 324.00 379.00 
C 328.96 375.46 334.33 369.94 338.00 365.00
C 334.15 369.42 328.54 375.20 324.00 379.00 Z"/>
</g>
<g fill="#FFDDEF" fill-opacity="0.03" stroke="None">
<path d="
M 119.00 380.00 
C 122.75 377.32 125.99 373.52 129.00 370.00
C 125.94 373.06 122.32 377.21 119.00 380.00 Z"/>
</g>
<g fill="#FBE4F5" fill-opacity="0.10" stroke="None">
<path d="
M 590.00 388.00 
C 596.58 383.39 602.71 377.19 608.00 371.00
C 602.36 376.64 596.11 382.98 590.00 388.00 Z"/>
</g>
<g fill="#FDB8E5" fill-opacity="0.15" stroke="None">
<path d="
M 232.00 385.00 
C 229.34 382.81 225.23 378.72 223.00 376.00
C 225.28 379.26 228.69 382.68 232.00 385.00 Z"/>
</g>
<g fill="#FFEFFA" fill-opacity="0.04" stroke="None">
<path d="
M 84.00 396.00 
C 80.08 396.27 75.93 396.15 72.00 396.00
C 75.94 396.56 79.97 396.72 84.00 396.00 Z"/>
</g>
<g fill="#FE9BE2" fill-opacity="0.30" stroke="None">
<path d="
M 279.00 400.00 
C 275.47 400.28 271.53 400.24 268.00 400.00
C 271.71 400.67 275.22 400.73 279.00 400.00 Z"/>
</g>
<g fill="#FBCAE9" fill-opacity="0.11" stroke="None">
<path d="
M 530.00 420.00 
C 526.46 420.40 522.56 420.07 519.00 420.00
C 522.64 420.44 526.20 420.88 530.00 420.00 Z"/>
</g>
</svg>