<svg xmlns="http://www.w3.org/2000/svg" xmlns:xlink="http://www.w3.org/1999/xlink" width="100" zoomAndPan="magnify" viewBox="0 0 75 74.999997" height="100" preserveAspectRatio="xMidYMid meet" version="1.0"><defs><clipPath id="bf6b945c9f"><path d="M 21.089844 0.597656 L 53.902344 0.597656 L 53.902344 74.097656 L 21.089844 74.097656 Z M 21.089844 0.597656 " clip-rule="nonzero"/></clipPath></defs><g clip-path="url(#bf6b945c9f)"><path fill="#ff00c9" d="M 31.804688 2.78125 C 31.132812 2.402344 30.101562 0.105469 31.585938 0.695312 C 46.492188 6.613281 55.605469 21.238281 53.636719 37.285156 C 52.707031 44.867188 49.65625 52.046875 45.164062 58.199219 C 42.523438 61.8125 38.921875 65.757812 34.832031 68.75 C 38.460938 67.796875 42.074219 66.503906 45.835938 66.054688 C 46.449219 65.984375 47.601562 67.160156 47.054688 67.738281 C 41.265625 73.867188 31.625 75.867188 23.71875 73.304688 C 22.835938 73.015625 20.015625 70.007812 21.527344 69.144531 C 28.800781 64.984375 32.230469 58.394531 35.386719 50.972656 C 35.800781 50 37.09375 51.863281 37.125 52.316406 C 37.457031 56.84375 36.191406 61.070312 33.894531 64.714844 C 36.296875 62.589844 38.542969 60.265625 40.519531 57.742188 C 44.800781 52.285156 47.976562 45.855469 49.421875 39.054688 C 52.753906 23.417969 45.4375 10.402344 31.804688 2.78125 " fill-opacity="1" fill-rule="nonzero"/></g></svg>