<svg xmlns="http://www.w3.org/2000/svg" xmlns:v="https://svgstorm.com"
viewBox = "0 0 1490 1502"
width="1490"
height="1502">
<g fill="None" fill-opacity="0.0" stroke="#000000" stroke-opacity="0.00" stroke-width="0.3"><path d="
M 0.00 1502.00 
L 1490.00 1502.00
L 1490.00 0.00
L 0.00 0.00
L 0.00 1502.00
M 777.00 31.00 
C 780.65 30.65 785.72 30.29 790.00 30.00
C 796.66 29.55 803.30 28.31 810.00 30.00
C 808.04 32.66 802.89 29.28 801.00 32.00
C 810.79 34.44 820.78 36.14 831.00 37.00
C 829.90 36.66 827.92 34.72 827.00 34.00
C 830.09 33.95 833.73 34.32 836.00 36.00
C 837.54 36.54 839.44 36.33 841.00 37.00
C 839.85 40.15 851.05 39.62 857.22 40.78 C 863.39 41.94 872.68 42.27 879.22 43.78 C 885.76 45.29 894.25 44.82 900.67 47.33 C 907.10 49.84 914.21 50.71 921.02 51.98 C 927.84 53.24 935.21 54.82 942.01 55.99 C 948.80 57.17 955.54 59.34 962.07 60.93 C 968.61 62.51 974.67 64.64 980.69 67.31 C 986.72 69.97 992.04 72.44 998.08 74.92 C 1004.11 77.41 1005.83 83.04 1011.23 86.77 C 1016.63 90.50 1022.55 92.60 1029.00 94.00
C 1021.45 96.42 1032.40 98.40 1037.02 99.98 C 1041.65 101.55 1047.95 104.41 1053.07 105.93 C 1058.20 107.44 1064.38 110.64 1070.00 111.00
C 1063.14 103.09 1078.52 108.89 1083.74 112.26 C 1088.97 115.63 1096.00 121.21 1101.75 125.25 C 1107.49 129.30 1114.22 135.33 1121.08 137.92 C 1127.93 140.52 1133.58 146.69 1140.25 149.75 C 1146.91 152.82 1155.07 156.50 1158.00 164.00
C 1144.14 154.70 1127.42 145.13 1112.00 143.00
C 1115.05 144.51 1119.36 147.01 1119.00 151.00
C 1101.36 148.13 1097.76 130.05 1081.77 124.23 C 1065.78 118.40 1050.58 109.41 1033.00 111.00
C 1035.85 114.48 1040.78 115.82 1045.00 117.00
C 1038.33 121.32 1028.09 114.44 1020.31 110.69 C 1012.52 106.95 1004.00 102.50 995.78 99.22 C 987.55 95.95 977.69 92.99 970.00 89.00
C 957.38 84.23 943.74 81.60 931.00 77.00
C 945.66 73.98 959.14 86.30 974.00 87.00
C 985.86 80.02 965.60 69.22 954.78 68.22 C 943.96 67.22 923.84 64.25 911.00 64.00 C 898.16 63.75 885.98 53.88 873.00 53.00
C 869.37 52.75 865.64 53.00 862.00 53.00
C 856.67 53.00 851.33 53.00 846.00 53.00
C 834.93 53.00 820.26 53.05 814.00 63.00
C 794.66 53.46 771.51 55.44 750.00 53.00
C 744.94 53.00 739.32 52.42 735.00 52.00
C 723.91 52.00 710.68 49.02 700.93 49.93 C 691.17 50.83 680.68 56.52 676.00 64.00
C 664.83 65.64 653.13 65.13 642.00 67.00
C 643.36 68.34 633.54 74.33 627.99 73.99 C 622.44 73.66 613.40 70.84 608.00 76.00
C 607.22 68.90 618.03 67.05 617.00 60.00
C 613.82 60.41 611.28 58.31 608.00 59.00
C 600.41 58.59 592.60 58.85 585.00 59.00
C 577.89 59.14 570.61 59.79 564.00 62.00
C 561.64 73.60 568.86 83.56 578.00 89.00
C 555.14 89.57 532.85 94.72 513.00 106.00
C 520.05 99.22 510.92 103.85 505.77 105.77 C 500.62 107.69 495.02 110.78 490.00 113.00
C 491.13 109.27 493.07 105.83 494.00 102.00
C 484.13 101.33 472.55 108.67 463.92 113.92 C 455.28 119.17 445.25 126.44 442.00 136.00
C 456.41 130.35 468.39 119.32 483.00 114.00
C 466.68 127.46 448.36 142.34 427.00 148.00
C 426.66 145.49 430.64 145.50 431.00 143.00
C 423.82 143.17 418.36 149.24 411.00 149.00
C 426.04 129.91 446.91 113.16 463.00 94.00
C 455.84 100.63 443.59 100.95 435.92 105.92 C 428.26 110.90 420.62 117.55 414.75 124.75 C 408.88 131.96 401.62 139.34 398.08 148.08 C 394.54 156.82 378.05 168.31 379.00 151.00
C 375.58 151.62 373.31 154.90 370.00 156.00
C 366.22 159.17 361.13 164.27 358.00 168.00
C 350.67 178.27 342.35 189.84 334.29 197.30 C 326.23 204.76 311.11 219.29 300.00 212.00
C 295.17 218.69 291.73 228.42 285.00 233.00
C 284.87 230.14 281.49 228.82 281.00 226.00
C 271.65 228.76 277.82 241.49 271.75 245.75 C 265.68 250.01 260.65 252.99 253.30 256.30 C 245.96 259.62 240.23 267.42 254.00 264.00
C 248.89 272.02 241.41 279.55 234.00 286.00
C 241.18 275.31 233.27 266.65 223.00 263.00
C 214.94 280.30 211.81 301.71 202.00 317.00
C 200.30 315.28 201.96 311.71 199.00 311.00
C 189.11 333.53 173.51 352.62 160.70 373.70 C 147.89 394.77 124.64 411.54 123.00 438.00
C 115.23 435.63 116.25 449.36 111.07 456.07 C 105.89 462.78 106.09 474.24 105.22 482.22 C 104.34 490.21 93.50 495.30 93.07 504.07 C 92.64 512.84 87.69 522.38 86.00 531.00
C 81.92 525.30 87.69 514.62 88.99 506.99 C 90.29 499.36 94.62 491.90 98.00 485.00
C 94.47 483.51 89.82 484.66 89.00 480.00
C 82.20 501.04 75.29 523.04 76.00 546.00 C 76.71 568.96 66.11 588.84 63.00 610.00
C 55.03 613.35 55.24 622.78 54.00 630.00
C 40.32 623.90 53.89 608.56 50.00 598.00
C 44.46 599.41 46.57 606.15 41.00 604.00
C 40.74 612.42 38.78 620.44 39.00 629.00
C 42.35 627.49 41.64 622.47 45.00 621.00
C 45.81 625.49 45.48 632.67 46.00 637.00 C 46.52 641.33 46.33 649.61 51.00 648.00
C 43.92 670.38 51.39 694.09 50.00 718.00
C 43.14 714.15 46.51 727.69 46.00 734.00 C 45.49 740.31 45.81 749.15 43.67 755.67 C 41.53 762.19 43.07 770.70 42.33 777.67 C 41.59 784.65 47.90 788.72 49.75 794.25 C 51.61 799.78 49.07 807.36 53.00 813.00
C 47.35 807.87 50.52 821.59 51.78 827.22 C 53.04 832.85 54.41 841.74 55.98 848.02 C 57.54 854.31 58.25 862.97 59.33 869.67 C 60.41 876.37 61.37 883.65 64.00 890.00
C 67.69 890.38 65.23 883.64 69.00 884.00
C 72.16 889.44 68.09 894.84 67.00 900.00
C 66.44 904.20 65.90 911.93 67.00 916.00
C 70.07 923.11 78.95 928.49 79.00 937.00
C 70.62 939.49 81.36 950.82 80.00 958.00 C 78.64 965.18 83.97 973.00 85.98 980.02 C 87.98 987.05 87.74 997.36 93.25 1002.75 C 98.76 1008.15 99.74 1015.43 103.92 1022.08 C 108.10 1028.72 114.07 1036.95 110.00 1045.00
C 107.97 1037.93 104.06 1030.67 98.00 1026.00
C 102.06 1039.72 110.64 1051.35 118.92 1063.08 C 127.21 1074.81 131.99 1089.31 140.25 1100.75 C 148.52 1112.18 148.47 1128.57 162.25 1136.75 C 176.03 1144.93 177.76 1158.04 189.75 1166.25 C 201.74 1174.46 206.21 1188.89 217.00 1198.00
C 219.92 1201.58 217.61 1200.38 218.00 1203.00
C 219.31 1206.00 223.59 1209.91 220.00 1212.00
C 224.24 1216.76 228.28 1221.55 233.75 1225.25 C 239.22 1228.95 243.84 1233.85 249.75 1237.25 C 255.66 1240.66 251.65 1249.80 258.25 1253.75 C 264.85 1257.71 267.41 1263.78 275.00 1265.00
C 275.03 1262.26 273.37 1259.92 274.00 1257.00
C 282.93 1266.27 290.28 1278.56 302.25 1285.75 C 314.22 1292.95 322.76 1303.56 333.75 1312.25 C 344.74 1320.93 356.69 1326.69 368.23 1334.77 C 379.77 1342.85 395.79 1345.23 407.23 1353.77 C 418.67 1362.31 428.66 1372.78 443.00 1376.00
C 441.69 1377.98 438.91 1377.76 437.00 1379.00
C 460.02 1395.90 489.83 1393.68 515.00 1407.00
C 509.14 1413.53 498.49 1399.97 491.00 1405.00
C 499.64 1406.33 503.79 1415.91 513.07 1415.93 C 522.36 1415.94 531.46 1413.49 540.02 1417.98 C 548.59 1422.46 557.80 1422.00 567.00 1424.00
C 564.20 1430.79 574.12 1427.98 578.00 1430.00
C 576.69 1434.13 570.94 1430.19 569.00 1433.00
C 582.46 1441.36 603.55 1426.62 613.00 1441.00
C 624.63 1440.01 636.63 1440.91 647.00 1441.00
C 644.05 1440.87 641.97 1438.12 639.00 1438.00
C 654.56 1433.76 668.73 1446.35 685.00 1444.00
C 677.65 1438.50 691.37 1442.01 697.07 1443.93 C 702.78 1445.85 709.65 1448.54 716.22 1450.78 C 722.80 1453.01 734.62 1451.61 742.00 1452.00
C 737.11 1441.99 749.30 1445.79 755.00 1446.00
C 759.99 1446.19 765.00 1445.86 770.00 1446.00
C 770.51 1447.40 769.19 1448.15 768.00 1448.00
C 767.35 1449.49 765.45 1448.30 765.00 1450.00
C 781.72 1449.88 798.41 1445.68 816.00 1448.00
C 812.94 1448.75 809.93 1449.74 807.00 1451.00
C 811.33 1453.82 817.10 1450.66 822.00 1451.00
C 823.53 1450.75 827.59 1448.39 829.00 1451.00
C 826.20 1451.52 823.55 1452.64 821.00 1454.00
C 821.25 1453.89 818.14 1454.22 819.00 1455.00
C 820.06 1455.97 827.43 1455.11 829.00 1455.00
C 842.42 1454.09 854.41 1448.79 867.00 1445.00
C 861.78 1441.79 851.85 1450.84 848.00 1445.00
C 878.32 1436.03 908.92 1426.87 942.00 1428.00
C 945.67 1427.64 950.69 1427.23 955.00 1427.00
C 966.66 1426.37 980.69 1419.21 988.00 1411.00
C 985.77 1410.48 984.27 1412.54 982.00 1412.00
C 974.03 1414.01 965.98 1419.26 957.00 1419.00
C 959.78 1409.28 975.12 1415.68 982.00 1409.00
C 999.74 1402.04 1016.17 1390.67 1035.00 1387.00
C 1029.77 1391.58 1040.81 1388.61 1039.00 1394.00
C 1045.70 1391.03 1050.41 1385.64 1056.25 1381.25 C 1062.08 1376.86 1070.68 1376.32 1075.25 1369.25 C 1079.81 1362.18 1085.41 1360.79 1090.75 1354.75 C 1096.09 1348.71 1105.80 1347.77 1113.01 1346.01 C 1120.21 1344.24 1125.04 1338.26 1130.75 1333.75 C 1136.47 1329.24 1142.43 1324.61 1148.25 1320.25 C 1154.06 1315.88 1160.47 1312.67 1166.23 1308.23 C 1171.99 1303.79 1178.19 1299.43 1183.75 1294.75 C 1189.30 1290.06 1191.63 1283.05 1197.25 1278.25 C 1202.87 1273.44 1206.54 1266.99 1212.25 1262.25 C 1217.95 1257.50 1221.73 1252.10 1227.25 1247.25 C 1232.76 1242.39 1236.84 1236.17 1242.25 1231.25 C 1247.66 1226.32 1251.59 1220.82 1256.75 1215.75 C 1261.92 1210.69 1265.89 1203.93 1270.77 1198.77 C 1275.65 1193.61 1279.46 1187.01 1283.92 1181.92 C 1288.38 1176.82 1291.09 1168.37 1294.30 1163.31 C 1297.52 1158.24 1305.74 1145.82 1305.00 1153.00
C 1308.17 1149.41 1317.33 1148.20 1317.77 1141.77 C 1318.21 1135.34 1326.80 1131.78 1324.89 1126.11 C 1322.98 1120.43 1331.21 1116.94 1334.30 1112.30 C 1337.40 1107.67 1341.56 1102.61 1344.75 1097.75 C 1347.95 1092.90 1349.80 1087.18 1353.31 1082.31 C 1356.82 1077.43 1358.56 1070.98 1361.92 1065.92 C 1365.29 1060.87 1364.68 1053.89 1368.31 1049.31 C 1371.93 1044.72 1378.10 1044.31 1379.00 1037.00
C 1376.08 1037.23 1374.32 1040.75 1371.00 1040.00
C 1391.18 992.06 1415.15 944.56 1421.00 892.00
C 1425.40 893.60 1423.15 881.05 1424.00 875.00 C 1424.85 868.95 1427.16 861.20 1428.93 854.93 C 1430.69 848.65 1431.91 842.54 1433.98 835.98 C 1436.04 829.41 1436.24 820.32 1436.00 813.00
C 1444.80 807.33 1447.60 796.00 1454.00 788.00
C 1457.25 788.64 1458.78 789.29 1460.00 786.00
C 1460.00 793.33 1460.00 800.67 1460.00 808.00
C 1460.00 813.67 1460.00 819.33 1460.00 825.00
C 1460.00 840.95 1453.67 854.77 1451.00 870.00
C 1460.16 879.23 1451.90 896.15 1449.02 908.02 C 1446.15 919.90 1441.03 932.68 1437.68 944.68 C 1434.33 956.67 1429.93 969.19 1426.07 981.07 C 1422.22 992.95 1418.20 1005.38 1414.03 1017.03 C 1409.86 1028.67 1404.95 1040.00 1400.22 1051.22 C 1395.50 1062.44 1390.56 1073.34 1385.08 1084.08 C 1379.59 1094.81 1374.59 1105.13 1368.23 1115.23 C 1361.87 1125.33 1356.77 1134.73 1349.25 1144.25 C 1341.72 1153.76 1338.21 1165.82 1334.07 1177.07 C 1329.94 1188.32 1313.02 1190.16 1310.00 1202.00
C 1315.38 1207.05 1304.17 1215.38 1299.70 1221.70 C 1295.22 1228.02 1287.83 1234.20 1282.25 1240.25 C 1276.67 1246.29 1270.07 1252.10 1264.25 1258.25 C 1258.43 1264.40 1252.22 1270.27 1245.77 1275.77 C 1239.32 1281.27 1234.20 1287.80 1227.75 1293.75 C 1221.30 1299.70 1214.33 1307.96 1205.00 1306.00
C 1208.32 1312.14 1197.96 1318.56 1192.25 1323.25 C 1186.54 1327.94 1180.21 1336.22 1173.77 1339.77 C 1167.33 1343.32 1158.08 1347.74 1151.77 1351.77 C 1145.46 1355.80 1134.22 1364.91 1129.00 1358.00
C 1124.52 1360.70 1115.84 1364.58 1119.00 1371.00
C 1099.44 1380.51 1084.67 1394.01 1064.92 1403.92 C 1045.18 1413.84 1024.84 1422.56 1003.93 1430.93 C 983.01 1439.29 958.20 1443.61 938.00 1453.00
C 939.30 1455.84 943.48 1453.90 945.00 1456.00
C 930.54 1461.26 915.80 1465.10 900.92 1463.94 C 886.04 1462.77 871.47 1476.42 858.00 1476.00
C 861.27 1474.06 865.09 1473.61 868.00 1471.00
C 856.52 1466.69 846.71 1478.73 835.00 1478.00
C 842.78 1474.01 834.34 1473.43 829.00 1474.00 C 823.66 1474.57 817.35 1475.02 812.00 1476.00
C 813.89 1477.97 817.31 1478.79 819.00 1481.00
C 805.53 1482.58 791.90 1483.03 778.00 1483.00 C 764.10 1482.97 748.76 1482.97 735.00 1483.00 C 721.24 1483.03 707.11 1482.13 694.00 1481.00 C 680.89 1479.87 667.87 1478.33 655.33 1476.67 C 642.79 1475.01 629.95 1472.93 618.00 1471.00 C 606.04 1469.07 595.15 1465.60 584.32 1461.68 C 573.49 1457.75 560.37 1457.69 554.00 1449.00
C 556.79 1450.01 559.89 1450.18 563.00 1450.00
C 553.93 1442.78 542.91 1439.77 532.00 1444.00
C 532.68 1446.49 536.00 1445.99 537.00 1448.00
C 515.13 1450.22 488.47 1444.96 469.31 1434.69 C 450.14 1424.43 431.83 1416.71 413.31 1406.70 C 394.78 1396.68 377.02 1387.65 359.77 1376.23 C 342.52 1364.81 328.68 1350.64 313.30 1338.70 C 297.92 1326.76 276.08 1321.01 264.25 1303.75 C 252.42 1286.50 232.31 1281.71 220.00 1264.00
C 216.74 1260.50 213.26 1256.67 210.00 1253.00
C 202.71 1245.99 194.99 1238.21 191.02 1228.98 C 187.06 1219.74 179.66 1212.29 172.25 1204.75 C 164.84 1197.21 159.21 1188.88 152.08 1180.92 C 144.96 1172.95 143.15 1161.40 136.75 1153.25 C 130.35 1145.09 123.59 1137.93 117.75 1129.25 C 111.90 1120.58 106.69 1111.10 100.25 1102.75 C 93.80 1094.41 91.78 1081.70 87.22 1072.78 C 82.67 1063.85 82.48 1047.52 72.00 1046.00
C 68.28 1037.67 64.22 1028.61 60.68 1020.32 C 57.13 1012.04 51.15 1003.05 48.08 994.92 C 45.00 986.79 35.44 973.41 46.00 969.00
C 47.57 959.00 29.00 954.93 33.33 945.33 C 37.66 935.73 35.27 926.70 38.00 915.00
C 38.32 910.96 38.52 906.01 38.00 902.00
C 37.57 900.33 37.60 898.66 37.00 897.00
C 33.19 899.79 33.02 889.96 33.00 885.00 C 32.98 880.04 31.36 871.46 32.00 866.00
C 32.00 862.35 32.20 858.64 32.00 855.00
C 31.71 849.67 31.67 842.50 25.00 844.00
C 25.00 841.67 25.00 839.33 25.00 837.00
C 24.51 832.91 24.18 827.73 24.00 823.00
C 23.54 810.90 23.00 798.44 23.00 786.00
C 23.00 780.61 23.55 774.64 24.00 770.00
C 24.00 764.33 25.89 751.37 20.00 751.00
C 23.54 710.94 18.88 670.37 29.00 632.00
C 35.50 637.89 33.91 623.15 34.00 617.00 C 34.09 610.85 37.92 601.97 40.00 596.00
C 29.18 589.86 31.89 576.18 33.00 566.00
C 38.46 566.92 37.63 560.18 39.00 556.00
C 44.30 561.08 42.30 546.62 44.78 540.78 C 47.25 534.93 48.83 525.98 51.78 519.78 C 54.72 513.57 55.12 505.05 61.08 501.08 C 67.04 497.10 65.11 487.46 70.25 482.25 C 75.40 477.04 75.73 470.56 77.31 464.31 C 78.88 458.05 83.78 451.69 86.77 445.77 C 89.76 439.85 92.90 433.12 96.31 427.31 C 99.71 421.49 102.92 415.13 106.31 409.31 C 109.69 403.48 112.87 398.08 116.30 392.30 C 119.74 386.53 123.52 380.71 126.92 374.92 C 130.33 369.14 134.67 363.90 138.25 358.25 C 141.84 352.60 146.33 347.73 150.25 342.25 C 154.17 336.77 158.52 332.89 163.23 328.23 C 167.94 323.57 172.17 318.37 175.25 312.25 C 178.34 306.14 184.01 302.16 187.92 296.92 C 191.83 291.67 195.05 285.25 198.92 279.92 C 202.79 274.59 206.56 268.97 211.00 264.00
C 221.52 266.75 227.19 254.40 231.77 246.77 C 236.35 239.14 245.46 234.46 252.75 227.75 C 260.04 221.04 267.10 214.72 272.75 206.75 C 278.40 198.79 286.82 194.01 292.75 186.75 C 298.68 179.49 310.01 176.18 316.25 170.25 C 322.48 164.31 340.45 161.04 332.00 153.00
C 343.33 149.51 352.96 142.52 363.08 136.08 C 373.21 129.64 384.21 125.61 394.70 119.69 C 405.18 113.78 414.97 108.82 425.25 102.25 C 435.52 95.67 445.83 91.50 457.02 86.02 C 468.22 80.55 481.16 80.25 493.02 76.02 C 504.89 71.80 518.67 69.69 530.68 65.68 C 542.69 61.67 550.89 53.84 563.22 50.22 C 575.55 46.61 591.63 45.84 599.00 37.00
C 655.80 22.32 718.20 25.01 777.00 31.00
M 875.00 59.00 
C 869.76 61.42 862.70 59.48 857.00 59.00
C 860.46 54.20 869.25 60.02 875.00 59.00
M 592.00 68.00 
C 587.10 68.89 589.36 62.53 590.00 60.00
C 592.48 61.70 591.99 65.23 592.00 68.00
M 859.00 65.00 
C 850.70 69.51 836.01 66.55 827.00 62.00
C 837.16 59.57 848.96 62.31 859.00 65.00
M 827.00 66.00 
C 824.87 67.23 820.70 67.88 819.00 66.00
C 820.64 64.50 825.43 64.28 827.00 66.00
M 877.00 74.00 
C 873.28 76.18 868.15 74.60 864.00 74.00
C 864.26 72.61 866.05 73.22 867.00 73.00
C 870.75 71.75 874.90 71.92 879.00 72.00
C 879.51 73.41 878.19 74.15 877.00 74.00
M 928.00 82.00 
C 925.87 84.30 920.33 83.24 922.00 79.00
C 924.77 78.08 925.90 81.19 928.00 82.00
M 1037.00 89.00 
C 1033.76 94.45 1025.75 87.99 1021.00 87.00
C 1025.89 84.11 1031.88 88.15 1037.00 89.00
M 349.00 142.00 
C 344.30 143.84 339.02 150.14 334.00 147.00
C 337.52 143.63 344.39 139.52 349.00 142.00
M 1147.00 166.00 
C 1141.03 163.58 1133.06 160.73 1130.00 155.00
C 1136.33 155.92 1145.38 159.47 1147.00 166.00
M 1131.00 167.00 
C 1128.97 165.43 1124.83 165.39 1125.00 162.00
C 1128.09 161.17 1131.71 163.59 1131.00 167.00
M 377.00 172.00 
C 374.56 178.03 367.43 183.93 361.00 184.00
C 361.56 176.52 370.95 172.76 377.00 170.00
C 378.99 169.20 380.64 167.58 383.00 168.00
C 381.67 169.93 379.33 171.58 377.00 172.00
M 1178.00 173.00 
C 1175.23 173.19 1172.19 171.56 1171.00 169.00
C 1173.77 168.81 1176.81 170.44 1178.00 173.00
M 1206.00 214.00 
C 1203.38 206.63 1195.53 201.98 1192.00 195.00
C 1202.06 200.13 1209.36 199.10 1210.93 213.07 C 1212.49 227.05 1199.50 221.65 1193.25 213.75 C 1187.00 205.85 1179.01 201.92 1170.00 200.00
C 1171.71 192.98 1159.56 192.91 1157.00 187.00
C 1165.20 188.32 1177.28 191.09 1184.75 196.25 C 1192.22 201.41 1196.37 212.01 1206.00 214.00
M 1208.00 194.00 
C 1205.63 196.35 1199.51 194.14 1199.00 191.00
C 1202.21 191.31 1204.85 193.45 1208.00 194.00
M 1226.00 214.00 
C 1227.69 216.12 1230.03 218.28 1231.00 221.00
C 1227.60 220.32 1225.10 216.56 1223.00 214.00
C 1218.41 210.00 1211.87 206.07 1209.00 201.00
C 1216.36 201.95 1222.03 208.08 1226.00 214.00
M 1246.00 236.00 
C 1239.13 234.91 1244.88 229.12 1246.00 236.00
M 1226.00 243.00 
C 1222.70 240.63 1217.94 238.27 1217.00 234.00
C 1220.29 236.41 1226.17 238.11 1226.00 243.00
M 1255.00 244.00 
C 1251.99 243.30 1248.63 240.04 1248.00 237.00
C 1251.01 237.70 1254.37 240.96 1255.00 244.00
M 1265.00 254.00 
C 1261.69 252.51 1255.40 251.89 1259.00 257.00
C 1252.17 254.61 1244.31 249.26 1242.00 242.00
C 1250.01 243.81 1261.06 246.08 1265.00 254.00
M 1294.00 270.00 
C 1299.04 274.30 1305.32 278.85 1305.00 286.00
C 1299.04 283.84 1296.55 276.77 1293.00 272.00
C 1291.36 270.05 1288.36 268.93 1288.00 266.00
C 1290.75 265.73 1291.68 269.29 1294.00 270.00
M 1292.00 284.00 
C 1287.35 279.81 1281.83 275.54 1279.00 270.00
C 1283.97 272.92 1290.61 278.19 1292.00 284.00
M 231.00 288.00 
C 226.68 293.53 220.54 298.04 219.00 305.00
C 215.06 295.93 218.32 281.73 231.00 288.00
M 1299.00 309.00 
C 1293.72 305.74 1286.69 300.15 1285.00 294.00
C 1290.52 297.91 1296.55 302.69 1299.00 309.00
M 1309.00 303.00 
C 1306.67 302.86 1304.06 300.39 1304.00 298.00
C 1306.33 298.14 1308.94 300.61 1309.00 303.00
M 1334.00 330.00 
C 1335.46 332.86 1336.91 335.71 1337.00 339.00
C 1334.03 337.57 1331.78 332.44 1334.00 330.00
M 1348.00 364.00 
C 1344.48 363.21 1342.20 358.52 1342.00 355.00
C 1343.54 358.06 1348.52 359.92 1348.00 364.00
M 1338.00 361.00 
C 1340.56 367.27 1343.89 373.27 1345.00 380.00
C 1338.61 376.27 1334.85 367.49 1338.00 361.00
M 1364.00 373.00 
C 1364.97 375.71 1368.26 379.60 1366.00 382.00
C 1364.91 379.26 1360.92 375.72 1364.00 373.00
M 1349.00 390.00 
C 1346.42 388.78 1344.65 383.98 1347.00 382.00
C 1348.54 383.80 1351.60 387.90 1349.00 390.00
M 1366.00 397.00 
C 1360.14 400.16 1357.13 394.49 1358.00 389.00
C 1361.66 389.85 1364.48 393.76 1366.00 397.00
M 118.00 450.00 
C 118.52 447.20 119.64 444.55 121.00 442.00
C 123.26 444.06 120.81 449.69 118.00 450.00
M 1409.00 458.00 
C 1406.02 453.86 1400.88 447.96 1404.00 443.00
C 1407.49 446.46 1410.85 453.58 1409.00 458.00
M 1415.00 489.00 
C 1413.10 485.31 1408.01 480.76 1412.00 477.00
C 1414.68 479.54 1417.24 485.70 1415.00 489.00
M 1422.00 542.00 
C 1422.19 546.11 1424.90 549.58 1424.00 554.00
C 1421.75 551.15 1419.73 545.23 1422.00 542.00
M 1439.00 579.00 
C 1441.89 587.45 1444.50 596.13 1446.00 605.00
C 1437.40 600.41 1440.45 587.20 1437.00 579.00
C 1434.42 569.63 1427.19 558.66 1429.00 549.00
C 1432.67 558.91 1435.04 569.17 1439.00 579.00
M 1464.00 759.00 
C 1464.92 762.71 1470.28 769.60 1463.00 770.00
C 1463.62 766.50 1461.73 761.68 1464.00 759.00
M 86.00 946.00 
C 85.41 948.84 87.22 952.98 85.00 955.00
C 85.29 952.31 81.62 946.61 86.00 946.00
M 95.00 972.00 
C 96.60 983.76 103.00 996.27 100.00 1008.00
C 101.37 1001.51 91.25 998.36 91.08 992.92 C 90.92 987.48 94.68 977.46 95.00 972.00
M 237.00 1216.00 
C 232.56 1213.14 226.18 1209.98 224.00 1205.00
C 227.71 1208.88 237.34 1208.31 237.00 1216.00
M 266.00 1245.00 
C 262.66 1244.00 258.94 1240.37 258.00 1237.00
C 261.01 1239.06 266.48 1240.35 266.00 1245.00
M 359.00 1324.00 
C 357.66 1326.09 352.72 1324.68 353.00 1322.00
C 355.33 1321.56 357.01 1323.24 359.00 1324.00
M 857.00 1440.00 
C 846.63 1443.09 834.47 1447.01 824.00 1445.00
C 834.67 1443.05 846.74 1438.85 857.00 1440.00 Z"/>
</g>
<g fill="None" fill-opacity="0.0" stroke="#FE77DB" stroke-opacity="1.00" stroke-width="0.3"><path d="
M 24.00 770.00 
C 24.00 775.39 23.45 781.36 23.00 786.00
C 23.00 798.44 23.54 810.90 24.00 823.00
C 24.59 827.14 24.90 832.22 25.00 837.00
C 25.00 839.33 25.00 841.67 25.00 844.00
C 31.67 842.50 31.71 849.67 32.00 855.00
C 32.59 858.65 32.34 862.48 32.00 866.00
C 31.36 871.46 32.98 880.04 33.00 885.00 C 33.02 889.96 33.19 899.79 37.00 897.00
C 37.60 898.66 37.57 900.33 38.00 902.00
C 39.12 906.32 38.81 910.78 38.00 915.00
C 35.27 926.70 37.66 935.73 33.33 945.33 C 29.00 954.93 47.57 959.00 46.00 969.00
C 35.44 973.41 45.00 986.79 48.08 994.92 C 51.15 1003.05 57.13 1012.04 60.68 1020.32 C 64.22 1028.61 68.28 1037.67 72.00 1046.00
C 82.48 1047.52 82.67 1063.85 87.22 1072.78 C 91.78 1081.70 93.80 1094.41 100.25 1102.75 C 106.69 1111.10 111.90 1120.58 117.75 1129.25 C 123.59 1137.93 130.35 1145.09 136.75 1153.25 C 143.15 1161.40 144.96 1172.95 152.08 1180.92 C 159.21 1188.88 164.84 1197.21 172.25 1204.75 C 179.66 1212.29 187.06 1219.74 191.02 1228.98 C 194.99 1238.21 202.71 1245.99 210.00 1253.00
C 213.78 1256.63 216.95 1259.89 220.00 1264.00
C 232.31 1281.71 252.42 1286.50 264.25 1303.75 C 276.08 1321.01 297.92 1326.76 313.30 1338.70 C 328.68 1350.64 342.52 1364.81 359.77 1376.23 C 377.02 1387.65 394.78 1396.68 413.31 1406.70 C 431.83 1416.71 450.14 1424.43 469.31 1434.69 C 488.47 1444.96 515.13 1450.22 537.00 1448.00
C 536.00 1445.99 532.68 1446.49 532.00 1444.00
C 542.91 1439.77 553.93 1442.78 563.00 1450.00
C 559.89 1450.18 556.79 1450.01 554.00 1449.00
C 560.37 1457.69 573.49 1457.75 584.32 1461.68 C 595.15 1465.60 606.04 1469.07 618.00 1471.00 C 629.95 1472.93 642.79 1475.01 655.33 1476.67 C 667.87 1478.33 680.89 1479.87 694.00 1481.00 C 707.11 1482.13 721.24 1483.03 735.00 1483.00 C 748.76 1482.97 764.10 1482.97 778.00 1483.00 C 791.90 1483.03 805.53 1482.58 819.00 1481.00
C 817.31 1478.79 813.89 1477.97 812.00 1476.00
C 817.35 1475.02 823.66 1474.57 829.00 1474.00 C 834.34 1473.43 842.78 1474.01 835.00 1478.00
C 846.71 1478.73 856.52 1466.69 868.00 1471.00
C 865.09 1473.61 861.27 1474.06 858.00 1476.00
C 871.47 1476.42 886.04 1462.77 900.92 1463.94 C 915.80 1465.10 930.54 1461.26 945.00 1456.00
C 943.48 1453.90 939.30 1455.84 938.00 1453.00
C 958.20 1443.61 983.01 1439.29 1003.93 1430.93 C 1024.84 1422.56 1045.18 1413.84 1064.92 1403.92 C 1084.67 1394.01 1099.44 1380.51 1119.00 1371.00
C 1115.84 1364.58 1124.52 1360.70 1129.00 1358.00
C 1134.22 1364.91 1145.46 1355.80 1151.77 1351.77 C 1158.08 1347.74 1167.33 1343.32 1173.77 1339.77 C 1180.21 1336.22 1186.54 1327.94 1192.25 1323.25 C 1197.96 1318.56 1208.32 1312.14 1205.00 1306.00
C 1214.33 1307.96 1221.30 1299.70 1227.75 1293.75 C 1234.20 1287.80 1239.32 1281.27 1245.77 1275.77 C 1252.22 1270.27 1258.43 1264.40 1264.25 1258.25 C 1270.07 1252.10 1276.67 1246.29 1282.25 1240.25 C 1287.83 1234.20 1295.22 1228.02 1299.70 1221.70 C 1304.17 1215.38 1315.38 1207.05 1310.00 1202.00
C 1313.02 1190.16 1329.94 1188.32 1334.07 1177.07 C 1338.21 1165.82 1341.72 1153.76 1349.25 1144.25 C 1356.77 1134.73 1361.87 1125.33 1368.23 1115.23 C 1374.59 1105.13 1379.59 1094.81 1385.08 1084.08 C 1390.56 1073.34 1395.50 1062.44 1400.22 1051.22 C 1404.95 1040.00 1409.86 1028.67 1414.03 1017.03 C 1418.20 1005.38 1422.22 992.95 1426.07 981.07 C 1429.93 969.19 1434.33 956.67 1437.68 944.68 C 1441.03 932.68 1446.15 919.90 1449.02 908.02 C 1451.90 896.15 1460.16 879.23 1451.00 870.00
C 1453.67 854.77 1460.00 840.95 1460.00 825.00
C 1459.48 819.65 1459.49 813.28 1460.00 808.00
C 1460.00 800.67 1460.00 793.33 1460.00 786.00
C 1458.78 789.29 1457.25 788.64 1454.00 788.00
C 1447.60 796.00 1444.80 807.33 1436.00 813.00
C 1436.24 820.32 1436.04 829.41 1433.98 835.98 C 1431.91 842.54 1430.69 848.65 1428.93 854.93 C 1427.16 861.20 1424.85 868.95 1424.00 875.00 C 1423.15 881.05 1425.40 893.60 1421.00 892.00
C 1415.15 944.56 1391.18 992.06 1371.00 1040.00
C 1374.32 1040.75 1376.08 1037.23 1379.00 1037.00
C 1378.10 1044.31 1371.93 1044.72 1368.31 1049.31 C 1364.68 1053.89 1365.29 1060.87 1361.92 1065.92 C 1358.56 1070.98 1356.82 1077.43 1353.31 1082.31 C 1349.80 1087.18 1347.95 1092.90 1344.75 1097.75 C 1341.56 1102.61 1337.40 1107.67 1334.30 1112.30 C 1331.21 1116.94 1322.98 1120.43 1324.89 1126.11 C 1326.80 1131.78 1318.21 1135.34 1317.77 1141.77 C 1317.33 1148.20 1308.17 1149.41 1305.00 1153.00
C 1305.74 1145.82 1297.52 1158.24 1294.30 1163.31 C 1291.09 1168.37 1288.38 1176.82 1283.92 1181.92 C 1279.46 1187.01 1275.65 1193.61 1270.77 1198.77 C 1265.89 1203.93 1261.92 1210.69 1256.75 1215.75 C 1251.59 1220.82 1247.66 1226.32 1242.25 1231.25 C 1236.84 1236.17 1232.76 1242.39 1227.25 1247.25 C 1221.73 1252.10 1217.95 1257.50 1212.25 1262.25 C 1206.54 1266.99 1202.87 1273.44 1197.25 1278.25 C 1191.63 1283.05 1189.30 1290.06 1183.75 1294.75 C 1178.19 1299.43 1171.99 1303.79 1166.23 1308.23 C 1160.47 1312.67 1154.06 1315.88 1148.25 1320.25 C 1142.43 1324.61 1136.47 1329.24 1130.75 1333.75 C 1125.04 1338.26 1120.21 1344.24 1113.01 1346.01 C 1105.80 1347.77 1096.09 1348.71 1090.75 1354.75 C 1085.41 1360.79 1079.81 1362.18 1075.25 1369.25 C 1070.68 1376.32 1062.08 1376.86 1056.25 1381.25 C 1050.41 1385.64 1045.70 1391.03 1039.00 1394.00
C 1040.81 1388.61 1029.77 1391.58 1035.00 1387.00
C 1016.17 1390.67 999.74 1402.04 982.00 1409.00
C 981.54 1409.71 982.38 1411.24 982.00 1412.00
C 984.27 1412.54 985.77 1410.48 988.00 1411.00
C 980.69 1419.21 966.66 1426.37 955.00 1427.00
C 951.15 1427.62 946.50 1428.00 942.00 1428.00
C 908.92 1426.87 878.32 1436.03 848.00 1445.00
C 851.85 1450.84 861.78 1441.79 867.00 1445.00
C 854.41 1448.79 842.42 1454.09 829.00 1455.00
C 827.31 1455.30 815.06 1457.24 819.00 1455.00
C 818.14 1454.22 821.25 1453.89 821.00 1454.00
C 821.97 1453.25 821.42 1451.69 822.00 1451.00
C 817.10 1450.66 811.33 1453.82 807.00 1451.00
C 809.93 1449.74 812.94 1448.75 816.00 1448.00
C 798.41 1445.68 781.72 1449.88 765.00 1450.00
C 765.45 1448.30 767.35 1449.49 768.00 1448.00
C 765.25 1448.44 757.81 1446.40 755.00 1446.00
C 749.30 1445.79 737.11 1441.99 742.00 1452.00
C 734.62 1451.61 722.80 1453.01 716.22 1450.78 C 709.65 1448.54 702.78 1445.85 697.07 1443.93 C 691.37 1442.01 677.65 1438.50 685.00 1444.00
C 668.73 1446.35 654.56 1433.76 639.00 1438.00
C 641.97 1438.12 644.05 1440.87 647.00 1441.00
C 636.63 1440.91 624.63 1440.01 613.00 1441.00
C 603.55 1426.62 582.46 1441.36 569.00 1433.00
C 570.94 1430.19 576.69 1434.13 578.00 1430.00
C 574.12 1427.98 564.20 1430.79 567.00 1424.00
C 557.80 1422.00 548.59 1422.46 540.02 1417.98 C 531.46 1413.49 522.36 1415.94 513.07 1415.93 C 503.79 1415.91 499.64 1406.33 491.00 1405.00
C 498.49 1399.97 509.14 1413.53 515.00 1407.00
C 489.83 1393.68 460.02 1395.90 437.00 1379.00
C 438.91 1377.76 441.69 1377.98 443.00 1376.00
C 428.66 1372.78 418.67 1362.31 407.23 1353.77 C 395.79 1345.23 379.77 1342.85 368.23 1334.77 C 356.69 1326.69 344.74 1320.93 333.75 1312.25 C 322.76 1303.56 314.22 1292.95 302.25 1285.75 C 290.28 1278.56 282.93 1266.27 274.00 1257.00
C 273.37 1259.92 275.03 1262.26 275.00 1265.00
C 267.41 1263.78 264.85 1257.71 258.25 1253.75 C 251.65 1249.80 255.66 1240.66 249.75 1237.25 C 243.84 1233.85 239.22 1228.95 233.75 1225.25 C 228.28 1221.55 224.24 1216.76 220.00 1212.00
C 223.59 1209.91 219.31 1206.00 218.00 1203.00
C 216.76 1200.15 217.98 1200.60 217.00 1198.00
C 206.21 1188.89 201.74 1174.46 189.75 1166.25 C 177.76 1158.04 176.03 1144.93 162.25 1136.75 C 148.47 1128.57 148.52 1112.18 140.25 1100.75 C 131.99 1089.31 127.21 1074.81 118.92 1063.08 C 110.64 1051.35 102.06 1039.72 98.00 1026.00
C 104.06 1030.67 107.97 1037.93 110.00 1045.00
C 114.07 1036.95 108.10 1028.72 103.92 1022.08 C 99.74 1015.43 98.76 1008.15 93.25 1002.75 C 87.74 997.36 87.98 987.05 85.98 980.02 C 83.97 973.00 78.64 965.18 80.00 958.00 C 81.36 950.82 70.62 939.49 79.00 937.00
C 78.95 928.49 70.07 923.11 67.00 916.00
C 65.07 911.52 65.85 904.43 67.00 900.00
C 68.09 894.84 72.16 889.44 69.00 884.00
C 65.23 883.64 67.69 890.38 64.00 890.00
C 61.37 883.65 60.41 876.37 59.33 869.67 C 58.25 862.97 57.54 854.31 55.98 848.02 C 54.41 841.74 53.04 832.85 51.78 827.22 C 50.52 821.59 47.35 807.87 53.00 813.00
C 49.07 807.36 51.61 799.78 49.75 794.25 C 47.90 788.72 41.59 784.65 42.33 777.67 C 43.07 770.70 41.53 762.19 43.67 755.67 C 45.81 749.15 45.49 740.31 46.00 734.00 C 46.51 727.69 43.14 714.15 50.00 718.00
C 51.39 694.09 43.92 670.38 51.00 648.00
C 46.33 649.61 46.52 641.33 46.00 637.00 C 45.48 632.67 45.81 625.49 45.00 621.00
C 41.64 622.47 42.35 627.49 39.00 629.00
C 38.78 620.44 40.74 612.42 41.00 604.00
C 46.57 606.15 44.46 599.41 50.00 598.00
C 53.89 608.56 40.32 623.90 54.00 630.00
C 55.24 622.78 55.03 613.35 63.00 610.00
C 66.11 588.84 76.71 568.96 76.00 546.00 C 75.29 523.04 82.20 501.04 89.00 480.00
C 89.82 484.66 94.47 483.51 98.00 485.00
C 94.62 491.90 90.29 499.36 88.99 506.99 C 87.69 514.62 81.92 525.30 86.00 531.00
C 87.69 522.38 92.64 512.84 93.07 504.07 C 93.50 495.30 104.34 490.21 105.22 482.22 C 106.09 474.24 105.89 462.78 111.07 456.07 C 116.25 449.36 115.23 435.63 123.00 438.00
C 124.64 411.54 147.89 394.77 160.70 373.70 C 173.51 352.62 189.11 333.53 199.00 311.00
C 201.96 311.71 200.30 315.28 202.00 317.00
C 211.81 301.71 214.94 280.30 223.00 263.00
C 233.27 266.65 241.18 275.31 234.00 286.00
C 241.41 279.55 248.89 272.02 254.00 264.00
C 240.23 267.42 245.96 259.62 253.30 256.30 C 260.65 252.99 265.68 250.01 271.75 245.75 C 277.82 241.49 271.65 228.76 281.00 226.00
C 281.49 228.82 284.87 230.14 285.00 233.00
C 291.73 228.42 295.17 218.69 300.00 212.00
C 311.11 219.29 326.23 204.76 334.29 197.30 C 342.35 189.84 350.67 178.27 358.00 168.00
C 361.07 163.70 365.75 159.03 370.00 156.00
C 373.31 154.90 375.58 151.62 379.00 151.00
C 378.05 168.31 394.54 156.82 398.08 148.08 C 401.62 139.34 408.88 131.96 414.75 124.75 C 420.62 117.55 428.26 110.90 435.92 105.92 C 443.59 100.95 455.84 100.63 463.00 94.00
C 446.91 113.16 426.04 129.91 411.00 149.00
C 418.36 149.24 423.82 143.17 431.00 143.00
C 430.64 145.50 426.66 145.49 427.00 148.00
C 448.36 142.34 466.68 127.46 483.00 114.00
C 468.39 119.32 456.41 130.35 442.00 136.00
C 445.25 126.44 455.28 119.17 463.92 113.92 C 472.55 108.67 484.13 101.33 494.00 102.00
C 493.07 105.83 491.13 109.27 490.00 113.00
C 495.02 110.78 500.62 107.69 505.77 105.77 C 510.92 103.85 520.05 99.22 513.00 106.00
C 532.85 94.72 555.14 89.57 578.00 89.00
C 568.86 83.56 561.64 73.60 564.00 62.00
C 570.61 59.79 577.89 59.14 585.00 59.00
C 592.21 58.13 600.84 57.84 608.00 59.00
C 611.28 58.31 613.82 60.41 617.00 60.00
C 618.03 67.05 607.22 68.90 608.00 76.00
C 613.40 70.84 622.44 73.66 627.99 73.99 C 633.54 74.33 643.36 68.34 642.00 67.00
C 653.13 65.13 664.83 65.64 676.00 64.00
C 680.68 56.52 691.17 50.83 700.93 49.93 C 710.68 49.02 723.91 52.00 735.00 52.00
C 740.06 52.00 745.68 52.58 750.00 53.00
C 771.51 55.44 794.66 53.46 814.00 63.00
C 820.26 53.05 834.93 53.00 846.00 53.00
C 850.71 52.54 856.60 52.00 862.00 52.00
C 865.88 52.00 869.82 52.43 873.00 53.00
C 885.98 53.88 898.16 63.75 911.00 64.00 C 923.84 64.25 943.96 67.22 954.78 68.22 C 965.60 69.22 985.86 80.02 974.00 87.00
C 973.29 87.42 970.67 88.93 970.00 89.00
C 977.69 92.99 987.55 95.95 995.78 99.22 C 1004.00 102.50 1012.52 106.95 1020.31 110.69 C 1028.09 114.44 1038.33 121.32 1045.00 117.00
C 1040.78 115.82 1035.85 114.48 1033.00 111.00
C 1050.58 109.41 1065.78 118.40 1081.77 124.23 C 1097.76 130.05 1101.36 148.13 1119.00 151.00
C 1119.36 147.01 1115.05 144.51 1112.00 143.00
C 1127.42 145.13 1144.14 154.70 1158.00 164.00
C 1155.07 156.50 1146.91 152.82 1140.25 149.75 C 1133.58 146.69 1127.93 140.52 1121.08 137.92 C 1114.22 135.33 1107.49 129.30 1101.75 125.25 C 1096.00 121.21 1088.97 115.63 1083.74 112.26 C 1078.52 108.89 1063.14 103.09 1070.00 111.00
C 1064.38 110.64 1058.20 107.44 1053.07 105.93 C 1047.95 104.41 1041.65 101.55 1037.02 99.98 C 1032.40 98.40 1021.45 96.42 1029.00 94.00
C 1022.55 92.60 1016.63 90.50 1011.23 86.77 C 1005.83 83.04 1004.11 77.41 998.08 74.92 C 992.04 72.44 986.72 69.97 980.69 67.31 C 974.67 64.64 968.61 62.51 962.07 60.93 C 955.54 59.34 948.80 57.17 942.01 55.99 C 935.21 54.82 927.84 53.24 921.02 51.98 C 914.21 50.71 907.10 49.84 900.67 47.33 C 894.25 44.82 885.76 45.29 879.22 43.78 C 872.68 42.27 863.39 41.94 857.22 40.78 C 851.05 39.62 839.85 40.15 841.00 37.00
C 839.44 36.33 837.54 36.54 836.00 36.00
C 834.48 36.02 831.94 37.01 831.00 37.00
C 820.78 36.14 810.79 34.44 801.00 32.00
C 802.89 29.28 808.04 32.66 810.00 30.00
C 803.30 28.31 796.66 29.55 790.00 30.00
C 786.14 30.69 781.51 31.00 777.00 31.00
C 718.20 25.01 655.80 22.32 599.00 37.00
C 591.63 45.84 575.55 46.61 563.22 50.22 C 550.89 53.84 542.69 61.67 530.68 65.68 C 518.67 69.69 504.89 71.80 493.02 76.02 C 481.16 80.25 468.22 80.55 457.02 86.02 C 445.83 91.50 435.52 95.67 425.25 102.25 C 414.97 108.82 405.18 113.78 394.70 119.69 C 384.21 125.61 373.21 129.64 363.08 136.08 C 352.96 142.52 343.33 149.51 332.00 153.00
C 340.45 161.04 322.48 164.31 316.25 170.25 C 310.01 176.18 298.68 179.49 292.75 186.75 C 286.82 194.01 278.40 198.79 272.75 206.75 C 267.10 214.72 260.04 221.04 252.75 227.75 C 245.46 234.46 236.35 239.14 231.77 246.77 C 227.19 254.40 221.52 266.75 211.00 264.00
C 206.56 268.97 202.79 274.59 198.92 279.92 C 195.05 285.25 191.83 291.67 187.92 296.92 C 184.01 302.16 178.34 306.14 175.25 312.25 C 172.17 318.37 167.94 323.57 163.23 328.23 C 158.52 332.89 154.17 336.77 150.25 342.25 C 146.33 347.73 141.84 352.60 138.25 358.25 C 134.67 363.90 130.33 369.14 126.92 374.92 C 123.52 380.71 119.74 386.53 116.30 392.30 C 112.87 398.08 109.69 403.48 106.31 409.31 C 102.92 415.13 99.71 421.49 96.31 427.31 C 92.90 433.12 89.76 439.85 86.77 445.77 C 83.78 451.69 78.88 458.05 77.31 464.31 C 75.73 470.56 75.40 477.04 70.25 482.25 C 65.11 487.46 67.04 497.10 61.08 501.08 C 55.12 505.05 54.72 513.57 51.78 519.78 C 48.83 525.98 47.25 534.93 44.78 540.78 C 42.30 546.62 44.30 561.08 39.00 556.00
C 37.63 560.18 38.46 566.92 33.00 566.00
C 31.89 576.18 29.18 589.86 40.00 596.00
C 37.92 601.97 34.09 610.85 34.00 617.00 C 33.91 623.15 35.50 637.89 29.00 632.00
C 18.88 670.37 23.54 710.94 20.00 751.00
C 25.89 751.37 24.00 764.33 24.00 770.00
M 61.00 585.00 
C 61.03 588.17 60.13 591.12 59.00 594.00
C 57.95 591.97 58.80 586.85 61.00 585.00
M 219.00 1208.00 
C 219.58 1208.05 220.25 1210.19 218.87 1209.92 C 217.48 1209.65 218.11 1207.92 219.00 1208.00 Z"/>
</g>
<g fill="None" fill-opacity="0.0" stroke="#FAFCFC" stroke-opacity="0.05" stroke-width="0.3"><path d="
M 777.00 31.00 
C 781.51 31.00 786.14 30.69 790.00 30.00
C 785.72 30.29 780.65 30.65 777.00 31.00 Z"/>
</g>
<g fill="None" fill-opacity="0.0" stroke="#FF95D9" stroke-opacity="0.25" stroke-width="0.3"><path d="
M 831.00 37.00 
C 831.94 37.01 834.48 36.02 836.00 36.00
C 833.73 34.32 830.09 33.95 827.00 34.00
C 827.92 34.72 829.90 36.66 831.00 37.00 Z"/>
</g>
<g fill="None" fill-opacity="0.0" stroke="#FCEBF8" stroke-opacity="0.07" stroke-width="0.3"><path d="
M 750.00 53.00 
C 745.68 52.58 740.06 52.00 735.00 52.00
C 739.32 52.42 744.94 53.00 750.00 53.00 Z"/>
</g>
<g fill="None" fill-opacity="0.0" stroke="#F6FFFF" stroke-opacity="0.01" stroke-width="0.3"><path d="
M 846.00 53.00 
C 851.33 53.00 856.67 53.00 862.00 53.00
C 861.96 53.00 862.00 52.00 862.00 52.00
C 856.60 52.00 850.71 52.54 846.00 53.00 Z"/>
</g>
<g fill="None" fill-opacity="0.0" stroke="#FBB6EC" stroke-opacity="0.11" stroke-width="0.3"><path d="
M 862.00 53.00 
C 865.64 53.00 869.37 52.75 873.00 53.00
C 869.82 52.43 865.88 52.00 862.00 52.00
C 862.00 52.00 861.96 53.00 862.00 53.00 Z"/>
</g>
<g fill="None" fill-opacity="0.0" stroke="#FA84DA" stroke-opacity="0.31" stroke-width="0.3"><path d="
M 875.00 59.00 
C 869.25 60.02 860.46 54.20 857.00 59.00
C 862.70 59.48 869.76 61.42 875.00 59.00 Z"/>
</g>
<g fill="None" fill-opacity="0.0" stroke="#FE9BE4" stroke-opacity="0.18" stroke-width="0.3"><path d="
M 585.00 59.00 
C 592.60 58.85 600.41 58.59 608.00 59.00
C 600.84 57.84 592.21 58.13 585.00 59.00 Z"/>
</g>
<g fill="None" fill-opacity="0.0" stroke="#FF87E0" stroke-opacity="0.42" stroke-width="0.3"><path d="
M 592.00 68.00 
C 591.99 65.23 592.48 61.70 590.00 60.00
C 589.36 62.53 587.10 68.89 592.00 68.00 Z"/>
</g>
<g fill="None" fill-opacity="0.0" stroke="#FD81DE" stroke-opacity="0.62" stroke-width="0.3"><path d="
M 859.00 65.00 
C 848.96 62.31 837.16 59.57 827.00 62.00
C 836.01 66.55 850.70 69.51 859.00 65.00 Z"/>
</g>
<g fill="None" fill-opacity="0.0" stroke="#FA7FDB" stroke-opacity="0.47" stroke-width="0.3"><path d="
M 827.00 66.00 
C 825.43 64.28 820.64 64.50 819.00 66.00
C 820.70 67.88 824.87 67.23 827.00 66.00 Z"/>
</g>
<g fill="None" fill-opacity="0.0" stroke="#FD85DE" stroke-opacity="0.60" stroke-width="0.3"><path d="
M 867.00 73.00 
C 869.46 72.98 873.76 74.99 877.00 74.00
C 878.19 74.15 879.51 73.41 879.00 72.00
C 874.90 71.92 870.75 71.75 867.00 73.00 Z"/>
</g>
<g fill="None" fill-opacity="0.0" stroke="#FD8FE2" stroke-opacity="0.09" stroke-width="0.3"><path d="
M 877.00 74.00 
C 873.76 74.99 869.46 72.98 867.00 73.00
C 866.05 73.22 864.26 72.61 864.00 74.00
C 868.15 74.60 873.28 76.18 877.00 74.00 Z"/>
</g>
<g fill="None" fill-opacity="0.0" stroke="#FF8DE1" stroke-opacity="0.48" stroke-width="0.3"><path d="
M 970.00 89.00 
C 970.67 88.93 973.29 87.42 974.00 87.00
C 959.14 86.30 945.66 73.98 931.00 77.00
C 943.74 81.60 957.38 84.23 970.00 89.00 Z"/>
</g>
<g fill="None" fill-opacity="0.0" stroke="#FE83D6" stroke-opacity="0.49" stroke-width="0.3"><path d="
M 928.00 82.00 
C 925.90 81.19 924.77 78.08 922.00 79.00
C 920.33 83.24 925.87 84.30 928.00 82.00 Z"/>
</g>
<g fill="None" fill-opacity="0.0" stroke="#FF85DE" stroke-opacity="0.50" stroke-width="0.3"><path d="
M 1037.00 89.00 
C 1031.88 88.15 1025.89 84.11 1021.00 87.00
C 1025.75 87.99 1033.76 94.45 1037.00 89.00 Z"/>
</g>
<g fill="None" fill-opacity="0.0" stroke="#FF82D9" stroke-opacity="0.54" stroke-width="0.3"><path d="
M 349.00 142.00 
C 344.39 139.52 337.52 143.63 334.00 147.00
C 339.02 150.14 344.30 143.84 349.00 142.00 Z"/>
</g>
<g fill="None" fill-opacity="0.0" stroke="#FD7EDA" stroke-opacity="0.55" stroke-width="0.3"><path d="
M 1147.00 166.00 
C 1145.38 159.47 1136.33 155.92 1130.00 155.00
C 1133.06 160.73 1141.03 163.58 1147.00 166.00 Z"/>
</g>
<g fill="None" fill-opacity="0.0" stroke="#F7B9E5" stroke-opacity="0.07" stroke-width="0.3"><path d="
M 358.00 168.00 
C 361.13 164.27 366.22 159.17 370.00 156.00
C 365.75 159.03 361.07 163.70 358.00 168.00 Z"/>
</g>
<g fill="None" fill-opacity="0.0" stroke="#FF85DD" stroke-opacity="0.47" stroke-width="0.3"><path d="
M 1131.00 167.00 
C 1131.71 163.59 1128.09 161.17 1125.00 162.00
C 1124.83 165.39 1128.97 165.43 1131.00 167.00 Z"/>
</g>
<g fill="None" fill-opacity="0.0" stroke="#FF93DC" stroke-opacity="0.28" stroke-width="0.3"><path d="
M 377.00 170.00 
C 376.77 170.34 377.17 171.57 377.00 172.00
C 379.33 171.58 381.67 169.93 383.00 168.00
C 380.64 167.58 378.99 169.20 377.00 170.00 Z"/>
</g>
<g fill="None" fill-opacity="0.0" stroke="#FF98E4" stroke-opacity="0.27" stroke-width="0.3"><path d="
M 1178.00 173.00 
C 1176.81 170.44 1173.77 168.81 1171.00 169.00
C 1172.19 171.56 1175.23 173.19 1178.00 173.00 Z"/>
</g>
<g fill="None" fill-opacity="0.0" stroke="#FF7CDE" stroke-opacity="0.69" stroke-width="0.3"><path d="
M 377.00 172.00 
C 377.17 171.57 376.77 170.34 377.00 170.00
C 370.95 172.76 361.56 176.52 361.00 184.00
C 367.43 183.93 374.56 178.03 377.00 172.00 Z"/>
</g>
<g fill="None" fill-opacity="0.0" stroke="#FE7FDD" stroke-opacity="0.76" stroke-width="0.3"><path d="
M 1206.00 214.00 
C 1196.37 212.01 1192.22 201.41 1184.75 196.25 C 1177.28 191.09 1165.20 188.32 1157.00 187.00
C 1159.56 192.91 1171.71 192.98 1170.00 200.00
C 1179.01 201.92 1187.00 205.85 1193.25 213.75 C 1199.50 221.65 1212.49 227.05 1210.93 213.07 C 1209.36 199.10 1202.06 200.13 1192.00 195.00
C 1195.53 201.98 1203.38 206.63 1206.00 214.00 Z"/>
</g>
<g fill="None" fill-opacity="0.0" stroke="#F782DB" stroke-opacity="0.31" stroke-width="0.3"><path d="
M 1208.00 194.00 
C 1204.85 193.45 1202.21 191.31 1199.00 191.00
C 1199.51 194.14 1205.63 196.35 1208.00 194.00 Z"/>
</g>
<g fill="None" fill-opacity="0.0" stroke="#FF7FDA" stroke-opacity="0.56" stroke-width="0.3"><path d="
M 1223.00 214.00 
C 1224.07 214.44 1226.07 214.02 1226.00 214.00
C 1222.03 208.08 1216.36 201.95 1209.00 201.00
C 1211.87 206.07 1218.41 210.00 1223.00 214.00 Z"/>
</g>
<g fill="None" fill-opacity="0.0" stroke="#ED90CC" stroke-opacity="0.20" stroke-width="0.3"><path d="
M 1226.00 214.00 
C 1226.07 214.02 1224.07 214.44 1223.00 214.00
C 1225.10 216.56 1227.60 220.32 1231.00 221.00
C 1230.03 218.28 1227.69 216.12 1226.00 214.00 Z"/>
</g>
<g fill="None" fill-opacity="0.0" stroke="#F5B0DD" stroke-opacity="0.15" stroke-width="0.3"><path d="
M 1246.00 236.00 
C 1244.88 229.12 1239.13 234.91 1246.00 236.00 Z"/>
</g>
<g fill="None" fill-opacity="0.0" stroke="#EE81CD" stroke-opacity="0.23" stroke-width="0.3"><path d="
M 1226.00 243.00 
C 1226.17 238.11 1220.29 236.41 1217.00 234.00
C 1217.94 238.27 1222.70 240.63 1226.00 243.00 Z"/>
</g>
<g fill="None" fill-opacity="0.0" stroke="#FC81EE" stroke-opacity="0.14" stroke-width="0.3"><path d="
M 1255.00 244.00 
C 1254.37 240.96 1251.01 237.70 1248.00 237.00
C 1248.63 240.04 1251.99 243.30 1255.00 244.00 Z"/>
</g>
<g fill="None" fill-opacity="0.0" stroke="#FC7ADA" stroke-opacity="0.65" stroke-width="0.3"><path d="
M 1265.00 254.00 
C 1261.06 246.08 1250.01 243.81 1242.00 242.00
C 1244.31 249.26 1252.17 254.61 1259.00 257.00
C 1255.40 251.89 1261.69 252.51 1265.00 254.00 Z"/>
</g>
<g fill="None" fill-opacity="0.0" stroke="#FF8DE3" stroke-opacity="0.25" stroke-width="0.3"><path d="
M 1293.00 272.00 
C 1293.01 271.22 1294.22 270.86 1294.00 270.00
C 1291.68 269.29 1290.75 265.73 1288.00 266.00
C 1288.36 268.93 1291.36 270.05 1293.00 272.00 Z"/>
</g>
<g fill="None" fill-opacity="0.0" stroke="#FD7FDE" stroke-opacity="0.39" stroke-width="0.3"><path d="
M 1292.00 284.00 
C 1290.61 278.19 1283.97 272.92 1279.00 270.00
C 1281.83 275.54 1287.35 279.81 1292.00 284.00 Z"/>
</g>
<g fill="None" fill-opacity="0.0" stroke="#FF82DC" stroke-opacity="0.60" stroke-width="0.3"><path d="
M 1293.00 272.00 
C 1296.55 276.77 1299.04 283.84 1305.00 286.00
C 1305.32 278.85 1299.04 274.30 1294.00 270.00
C 1294.22 270.86 1293.01 271.22 1293.00 272.00 Z"/>
</g>
<g fill="None" fill-opacity="0.0" stroke="#FD7DDC" stroke-opacity="0.76" stroke-width="0.3"><path d="
M 231.00 288.00 
C 218.32 281.73 215.06 295.93 219.00 305.00
C 220.54 298.04 226.68 293.53 231.00 288.00 Z"/>
</g>
<g fill="None" fill-opacity="0.0" stroke="#F786DB" stroke-opacity="0.40" stroke-width="0.3"><path d="
M 1299.00 309.00 
C 1296.55 302.69 1290.52 297.91 1285.00 294.00
C 1286.69 300.15 1293.72 305.74 1299.00 309.00 Z"/>
</g>
<g fill="None" fill-opacity="0.0" stroke="#FAA9DB" stroke-opacity="0.14" stroke-width="0.3"><path d="
M 1309.00 303.00 
C 1308.94 300.61 1306.33 298.14 1304.00 298.00
C 1304.06 300.39 1306.67 302.86 1309.00 303.00 Z"/>
</g>
<g fill="None" fill-opacity="0.0" stroke="#FF81DF" stroke-opacity="0.29" stroke-width="0.3"><path d="
M 1334.00 330.00 
C 1331.78 332.44 1334.03 337.57 1337.00 339.00
C 1336.91 335.71 1335.46 332.86 1334.00 330.00 Z"/>
</g>
<g fill="None" fill-opacity="0.0" stroke="#FF88E3" stroke-opacity="0.30" stroke-width="0.3"><path d="
M 1348.00 364.00 
C 1348.52 359.92 1343.54 358.06 1342.00 355.00
C 1342.20 358.52 1344.48 363.21 1348.00 364.00 Z"/>
</g>
<g fill="None" fill-opacity="0.0" stroke="#FD84DA" stroke-opacity="0.52" stroke-width="0.3"><path d="
M 1338.00 361.00 
C 1334.85 367.49 1338.61 376.27 1345.00 380.00
C 1343.89 373.27 1340.56 367.27 1338.00 361.00 Z"/>
</g>
<g fill="None" fill-opacity="0.0" stroke="#FF97E4" stroke-opacity="0.32" stroke-width="0.3"><path d="
M 1364.00 373.00 
C 1360.92 375.72 1364.91 379.26 1366.00 382.00
C 1368.26 379.60 1364.97 375.71 1364.00 373.00 Z"/>
</g>
<g fill="None" fill-opacity="0.0" stroke="#FF8EE3" stroke-opacity="0.40" stroke-width="0.3"><path d="
M 1349.00 390.00 
C 1351.60 387.90 1348.54 383.80 1347.00 382.00
C 1344.65 383.98 1346.42 388.78 1349.00 390.00 Z"/>
</g>
<g fill="None" fill-opacity="0.0" stroke="#F981DE" stroke-opacity="0.55" stroke-width="0.3"><path d="
M 1366.00 397.00 
C 1364.48 393.76 1361.66 389.85 1358.00 389.00
C 1357.13 394.49 1360.14 400.16 1366.00 397.00 Z"/>
</g>
<g fill="None" fill-opacity="0.0" stroke="#FD88D5" stroke-opacity="0.20" stroke-width="0.3"><path d="
M 118.00 450.00 
C 120.81 449.69 123.26 444.06 121.00 442.00
C 119.64 444.55 118.52 447.20 118.00 450.00 Z"/>
</g>
<g fill="None" fill-opacity="0.0" stroke="#FF7BDD" stroke-opacity="0.55" stroke-width="0.3"><path d="
M 1409.00 458.00 
C 1410.85 453.58 1407.49 446.46 1404.00 443.00
C 1400.88 447.96 1406.02 453.86 1409.00 458.00 Z"/>
</g>
<g fill="None" fill-opacity="0.0" stroke="#FB80DD" stroke-opacity="0.49" stroke-width="0.3"><path d="
M 1415.00 489.00 
C 1417.24 485.70 1414.68 479.54 1412.00 477.00
C 1408.01 480.76 1413.10 485.31 1415.00 489.00 Z"/>
</g>
<g fill="None" fill-opacity="0.0" stroke="#F77EDD" stroke-opacity="0.21" stroke-width="0.3"><path d="
M 1422.00 542.00 
C 1419.73 545.23 1421.75 551.15 1424.00 554.00
C 1424.90 549.58 1422.19 546.11 1422.00 542.00 Z"/>
</g>
<g fill="None" fill-opacity="0.0" stroke="#FA8CDE" stroke-opacity="0.33" stroke-width="0.3"><path d="
M 1437.00 579.00 
C 1437.37 579.22 1438.83 578.76 1439.00 579.00
C 1435.04 569.17 1432.67 558.91 1429.00 549.00
C 1427.19 558.66 1434.42 569.63 1437.00 579.00 Z"/>
</g>
<g fill="None" fill-opacity="0.0" stroke="#FF8FE0" stroke-opacity="0.52" stroke-width="0.3"><path d="
M 1439.00 579.00 
C 1438.83 578.76 1437.37 579.22 1437.00 579.00
C 1440.45 587.20 1437.40 600.41 1446.00 605.00
C 1444.50 596.13 1441.89 587.45 1439.00 579.00 Z"/>
</g>
<g fill="None" fill-opacity="0.0" stroke="#FCD5F0" stroke-opacity="1.00" stroke-width="0.3"><path d="
M 61.00 585.00 
C 58.80 586.85 57.95 591.97 59.00 594.00
C 60.13 591.12 61.03 588.17 61.00 585.00 Z"/>
</g>
<g fill="None" fill-opacity="0.0" stroke="#FF83DA" stroke-opacity="0.63" stroke-width="0.3"><path d="
M 1464.00 759.00 
C 1461.73 761.68 1463.62 766.50 1463.00 770.00
C 1470.28 769.60 1464.92 762.71 1464.00 759.00 Z"/>
</g>
<g fill="None" fill-opacity="0.0" stroke="#FCC7F1" stroke-opacity="0.04" stroke-width="0.3"><path d="
M 23.00 786.00 
C 23.45 781.36 24.00 775.39 24.00 770.00
C 23.55 774.64 23.00 780.61 23.00 786.00 Z"/>
</g>
<g fill="None" fill-opacity="0.0" stroke="#FEB0E6" stroke-opacity="0.11" stroke-width="0.3"><path d="
M 1460.00 825.00 
C 1460.00 819.33 1460.00 813.67 1460.00 808.00
C 1459.49 813.28 1459.48 819.65 1460.00 825.00 Z"/>
</g>
<g fill="None" fill-opacity="0.0" stroke="#FBB8E4" stroke-opacity="0.26" stroke-width="0.3"><path d="
M 25.00 837.00 
C 24.90 832.22 24.59 827.14 24.00 823.00
C 24.18 827.73 24.51 832.91 25.00 837.00 Z"/>
</g>
<g fill="None" fill-opacity="0.0" stroke="#FE98E2" stroke-opacity="0.20" stroke-width="0.3"><path d="
M 32.00 866.00 
C 32.34 862.48 32.59 858.65 32.00 855.00
C 32.20 858.64 32.00 862.35 32.00 866.00 Z"/>
</g>
<g fill="None" fill-opacity="0.0" stroke="#FF95E2" stroke-opacity="0.30" stroke-width="0.3"><path d="
M 67.00 916.00 
C 65.90 911.93 66.44 904.20 67.00 900.00
C 65.85 904.43 65.07 911.52 67.00 916.00 Z"/>
</g>
<g fill="None" fill-opacity="0.0" stroke="#FE98E2" stroke-opacity="0.18" stroke-width="0.3"><path d="
M 38.00 915.00 
C 38.81 910.78 39.12 906.32 38.00 902.00
C 38.52 906.01 38.32 910.96 38.00 915.00 Z"/>
</g>
<g fill="None" fill-opacity="0.0" stroke="#FE7EDC" stroke-opacity="0.44" stroke-width="0.3"><path d="
M 86.00 946.00 
C 81.62 946.61 85.29 952.31 85.00 955.00
C 87.22 952.98 85.41 948.84 86.00 946.00 Z"/>
</g>
<g fill="None" fill-opacity="0.0" stroke="#FE83DF" stroke-opacity="0.67" stroke-width="0.3"><path d="
M 95.00 972.00 
C 94.68 977.46 90.92 987.48 91.08 992.92 C 91.25 998.36 101.37 1001.51 100.00 1008.00
C 103.00 996.27 96.60 983.76 95.00 972.00 Z"/>
</g>
<g fill="None" fill-opacity="0.0" stroke="#D88FC5" stroke-opacity="0.13" stroke-width="0.3"><path d="
M 218.00 1203.00 
C 217.61 1200.38 219.92 1201.58 217.00 1198.00
C 217.98 1200.60 216.76 1200.15 218.00 1203.00 Z"/>
</g>
<g fill="None" fill-opacity="0.0" stroke="#F38BD7" stroke-opacity="0.38" stroke-width="0.3"><path d="
M 237.00 1216.00 
C 237.34 1208.31 227.71 1208.88 224.00 1205.00
C 226.18 1209.98 232.56 1213.14 237.00 1216.00 Z"/>
</g>
<g fill="None" fill-opacity="0.0" stroke="#000000" stroke-opacity="0.00" stroke-width="0.3"><path d="
M 219.00 1208.00 
C 218.11 1207.92 217.48 1209.65 218.87 1209.92 C 220.25 1210.19 219.58 1208.05 219.00 1208.00 Z"/>
</g>
<g fill="None" fill-opacity="0.0" stroke="#EF89D6" stroke-opacity="0.33" stroke-width="0.3"><path d="
M 266.00 1245.00 
C 266.48 1240.35 261.01 1239.06 258.00 1237.00
C 258.94 1240.37 262.66 1244.00 266.00 1245.00 Z"/>
</g>
<g fill="None" fill-opacity="0.0" stroke="#F4D8E9" stroke-opacity="0.11" stroke-width="0.3"><path d="
M 220.00 1264.00 
C 216.95 1259.89 213.78 1256.63 210.00 1253.00
C 213.26 1256.67 216.74 1260.50 220.00 1264.00 Z"/>
</g>
<g fill="None" fill-opacity="0.0" stroke="#FC7ADB" stroke-opacity="0.44" stroke-width="0.3"><path d="
M 359.00 1324.00 
C 357.01 1323.24 355.33 1321.56 353.00 1322.00
C 352.72 1324.68 357.66 1326.09 359.00 1324.00 Z"/>
</g>
<g fill="None" fill-opacity="0.0" stroke="#FF88DE" stroke-opacity="0.58" stroke-width="0.3"><path d="
M 982.00 1412.00 
C 982.38 1411.24 981.54 1409.71 982.00 1409.00
C 975.12 1415.68 959.78 1409.28 957.00 1419.00
C 965.98 1419.26 974.03 1414.01 982.00 1412.00 Z"/>
</g>
<g fill="None" fill-opacity="0.0" stroke="#FAD4ED" stroke-opacity="0.07" stroke-width="0.3"><path d="
M 942.00 1428.00 
C 946.50 1428.00 951.15 1427.62 955.00 1427.00
C 950.69 1427.23 945.67 1427.64 942.00 1428.00 Z"/>
</g>
<g fill="None" fill-opacity="0.0" stroke="#FF8BE0" stroke-opacity="0.43" stroke-width="0.3"><path d="
M 857.00 1440.00 
C 846.74 1438.85 834.67 1443.05 824.00 1445.00
C 834.47 1447.01 846.63 1443.09 857.00 1440.00 Z"/>
</g>
<g fill="None" fill-opacity="0.0" stroke="#FE90E2" stroke-opacity="0.22" stroke-width="0.3"><path d="
M 768.00 1448.00 
C 769.19 1448.15 770.51 1447.40 770.00 1446.00
C 765.00 1445.86 759.99 1446.19 755.00 1446.00
C 757.81 1446.40 765.25 1448.44 768.00 1448.00 Z"/>
</g>
<g fill="None" fill-opacity="0.0" stroke="#FD93E1" stroke-opacity="0.31" stroke-width="0.3"><path d="
M 822.00 1451.00 
C 821.42 1451.69 821.97 1453.25 821.00 1454.00
C 823.55 1452.64 826.20 1451.52 829.00 1451.00
C 827.59 1448.39 823.53 1450.75 822.00 1451.00 Z"/>
</g>
<g fill="None" fill-opacity="0.0" stroke="#FAE5F4" stroke-opacity="0.10" stroke-width="0.3"><path d="
M 829.00 1455.00 
C 827.43 1455.11 820.06 1455.97 819.00 1455.00
C 815.06 1457.24 827.31 1455.30 829.00 1455.00 Z"/>
</g>
<g fill="#000000" fill-opacity="0.00" stroke="None">
<path d="
M 0.00 1502.00 
L 1490.00 1502.00
L 1490.00 0.00
L 0.00 0.00
L 0.00 1502.00
M 777.00 31.00 
C 780.65 30.65 785.72 30.29 790.00 30.00
C 796.66 29.55 803.30 28.31 810.00 30.00
C 808.04 32.66 802.89 29.28 801.00 32.00
C 810.79 34.44 820.78 36.14 831.00 37.00
C 829.90 36.66 827.92 34.72 827.00 34.00
C 830.09 33.95 833.73 34.32 836.00 36.00
C 837.54 36.54 839.44 36.33 841.00 37.00
C 839.85 40.15 851.05 39.62 857.22 40.78 C 863.39 41.94 872.68 42.27 879.22 43.78 C 885.76 45.29 894.25 44.82 900.67 47.33 C 907.10 49.84 914.21 50.71 921.02 51.98 C 927.84 53.24 935.21 54.82 942.01 55.99 C 948.80 57.17 955.54 59.34 962.07 60.93 C 968.61 62.51 974.67 64.64 980.69 67.31 C 986.72 69.97 992.04 72.44 998.08 74.92 C 1004.11 77.41 1005.83 83.04 1011.23 86.77 C 1016.63 90.50 1022.55 92.60 1029.00 94.00
C 1021.45 96.42 1032.40 98.40 1037.02 99.98 C 1041.65 101.55 1047.95 104.41 1053.07 105.93 C 1058.20 107.44 1064.38 110.64 1070.00 111.00
C 1063.14 103.09 1078.52 108.89 1083.74 112.26 C 1088.97 115.63 1096.00 121.21 1101.75 125.25 C 1107.49 129.30 1114.22 135.33 1121.08 137.92 C 1127.93 140.52 1133.58 146.69 1140.25 149.75 C 1146.91 152.82 1155.07 156.50 1158.00 164.00
C 1144.14 154.70 1127.42 145.13 1112.00 143.00
C 1115.05 144.51 1119.36 147.01 1119.00 151.00
C 1101.36 148.13 1097.76 130.05 1081.77 124.23 C 1065.78 118.40 1050.58 109.41 1033.00 111.00
C 1035.85 114.48 1040.78 115.82 1045.00 117.00
C 1038.33 121.32 1028.09 114.44 1020.31 110.69 C 1012.52 106.95 1004.00 102.50 995.78 99.22 C 987.55 95.95 977.69 92.99 970.00 89.00
C 957.38 84.23 943.74 81.60 931.00 77.00
C 945.66 73.98 959.14 86.30 974.00 87.00
C 985.86 80.02 965.60 69.22 954.78 68.22 C 943.96 67.22 923.84 64.25 911.00 64.00 C 898.16 63.75 885.98 53.88 873.00 53.00
C 869.37 52.75 865.64 53.00 862.00 53.00
C 856.67 53.00 851.33 53.00 846.00 53.00
C 834.93 53.00 820.26 53.05 814.00 63.00
C 794.66 53.46 771.51 55.44 750.00 53.00
C 744.94 53.00 739.32 52.42 735.00 52.00
C 723.91 52.00 710.68 49.02 700.93 49.93 C 691.17 50.83 680.68 56.52 676.00 64.00
C 664.83 65.64 653.13 65.13 642.00 67.00
C 643.36 68.34 633.54 74.33 627.99 73.99 C 622.44 73.66 613.40 70.84 608.00 76.00
C 607.22 68.90 618.03 67.05 617.00 60.00
C 613.82 60.41 611.28 58.31 608.00 59.00
C 600.41 58.59 592.60 58.85 585.00 59.00
C 577.89 59.14 570.61 59.79 564.00 62.00
C 561.64 73.60 568.86 83.56 578.00 89.00
C 555.14 89.57 532.85 94.72 513.00 106.00
C 520.05 99.22 510.92 103.85 505.77 105.77 C 500.62 107.69 495.02 110.78 490.00 113.00
C 491.13 109.27 493.07 105.83 494.00 102.00
C 484.13 101.33 472.55 108.67 463.92 113.92 C 455.28 119.17 445.25 126.44 442.00 136.00
C 456.41 130.35 468.39 119.32 483.00 114.00
C 466.68 127.46 448.36 142.34 427.00 148.00
C 426.66 145.49 430.64 145.50 431.00 143.00
C 423.82 143.17 418.36 149.24 411.00 149.00
C 426.04 129.91 446.91 113.16 463.00 94.00
C 455.84 100.63 443.59 100.95 435.92 105.92 C 428.26 110.90 420.62 117.55 414.75 124.75 C 408.88 131.96 401.62 139.34 398.08 148.08 C 394.54 156.82 378.05 168.31 379.00 151.00
C 375.58 151.62 373.31 154.90 370.00 156.00
C 366.22 159.17 361.13 164.27 358.00 168.00
C 350.67 178.27 342.35 189.84 334.29 197.30 C 326.23 204.76 311.11 219.29 300.00 212.00
C 295.17 218.69 291.73 228.42 285.00 233.00
C 284.87 230.14 281.49 228.82 281.00 226.00
C 271.65 228.76 277.82 241.49 271.75 245.75 C 265.68 250.01 260.65 252.99 253.30 256.30 C 245.96 259.62 240.23 267.42 254.00 264.00
C 248.89 272.02 241.41 279.55 234.00 286.00
C 241.18 275.31 233.27 266.65 223.00 263.00
C 214.94 280.30 211.81 301.71 202.00 317.00
C 200.30 315.28 201.96 311.71 199.00 311.00
C 189.11 333.53 173.51 352.62 160.70 373.70 C 147.89 394.77 124.64 411.54 123.00 438.00
C 115.23 435.63 116.25 449.36 111.07 456.07 C 105.89 462.78 106.09 474.24 105.22 482.22 C 104.34 490.21 93.50 495.30 93.07 504.07 C 92.64 512.84 87.69 522.38 86.00 531.00
C 81.92 525.30 87.69 514.62 88.99 506.99 C 90.29 499.36 94.62 491.90 98.00 485.00
C 94.47 483.51 89.82 484.66 89.00 480.00
C 82.20 501.04 75.29 523.04 76.00 546.00 C 76.71 568.96 66.11 588.84 63.00 610.00
C 55.03 613.35 55.24 622.78 54.00 630.00
C 40.32 623.90 53.89 608.56 50.00 598.00
C 44.46 599.41 46.57 606.15 41.00 604.00
C 40.74 612.42 38.78 620.44 39.00 629.00
C 42.35 627.49 41.64 622.47 45.00 621.00
C 45.81 625.49 45.48 632.67 46.00 637.00 C 46.52 641.33 46.33 649.61 51.00 648.00
C 43.92 670.38 51.39 694.09 50.00 718.00
C 43.14 714.15 46.51 727.69 46.00 734.00 C 45.49 740.31 45.81 749.15 43.67 755.67 C 41.53 762.19 43.07 770.70 42.33 777.67 C 41.59 784.65 47.90 788.72 49.75 794.25 C 51.61 799.78 49.07 807.36 53.00 813.00
C 47.35 807.87 50.52 821.59 51.78 827.22 C 53.04 832.85 54.41 841.74 55.98 848.02 C 57.54 854.31 58.25 862.97 59.33 869.67 C 60.41 876.37 61.37 883.65 64.00 890.00
C 67.69 890.38 65.23 883.64 69.00 884.00
C 72.16 889.44 68.09 894.84 67.00 900.00
C 66.44 904.20 65.90 911.93 67.00 916.00
C 70.07 923.11 78.95 928.49 79.00 937.00
C 70.62 939.49 81.36 950.82 80.00 958.00 C 78.64 965.18 83.97 973.00 85.98 980.02 C 87.98 987.05 87.74 997.36 93.25 1002.75 C 98.76 1008.15 99.74 1015.43 103.92 1022.08 C 108.10 1028.72 114.07 1036.95 110.00 1045.00
C 107.97 1037.93 104.06 1030.67 98.00 1026.00
C 102.06 1039.72 110.64 1051.35 118.92 1063.08 C 127.21 1074.81 131.99 1089.31 140.25 1100.75 C 148.52 1112.18 148.47 1128.57 162.25 1136.75 C 176.03 1144.93 177.76 1158.04 189.75 1166.25 C 201.74 1174.46 206.21 1188.89 217.00 1198.00
C 219.92 1201.58 217.61 1200.38 218.00 1203.00
C 219.31 1206.00 223.59 1209.91 220.00 1212.00
C 224.24 1216.76 228.28 1221.55 233.75 1225.25 C 239.22 1228.95 243.84 1233.85 249.75 1237.25 C 255.66 1240.66 251.65 1249.80 258.25 1253.75 C 264.85 1257.71 267.41 1263.78 275.00 1265.00
C 275.03 1262.26 273.37 1259.92 274.00 1257.00
C 282.93 1266.27 290.28 1278.56 302.25 1285.75 C 314.22 1292.95 322.76 1303.56 333.75 1312.25 C 344.74 1320.93 356.69 1326.69 368.23 1334.77 C 379.77 1342.85 395.79 1345.23 407.23 1353.77 C 418.67 1362.31 428.66 1372.78 443.00 1376.00
C 441.69 1377.98 438.91 1377.76 437.00 1379.00
C 460.02 1395.90 489.83 1393.68 515.00 1407.00
C 509.14 1413.53 498.49 1399.97 491.00 1405.00
C 499.64 1406.33 503.79 1415.91 513.07 1415.93 C 522.36 1415.94 531.46 1413.49 540.02 1417.98 C 548.59 1422.46 557.80 1422.00 567.00 1424.00
C 564.20 1430.79 574.12 1427.98 578.00 1430.00
C 576.69 1434.13 570.94 1430.19 569.00 1433.00
C 582.46 1441.36 603.55 1426.62 613.00 1441.00
C 624.63 1440.01 636.63 1440.91 647.00 1441.00
C 644.05 1440.87 641.97 1438.12 639.00 1438.00
C 654.56 1433.76 668.73 1446.35 685.00 1444.00
C 677.65 1438.50 691.37 1442.01 697.07 1443.93 C 702.78 1445.85 709.65 1448.54 716.22 1450.78 C 722.80 1453.01 734.62 1451.61 742.00 1452.00
C 737.11 1441.99 749.30 1445.79 755.00 1446.00
C 759.99 1446.19 765.00 1445.86 770.00 1446.00
C 770.51 1447.40 769.19 1448.15 768.00 1448.00
C 767.35 1449.49 765.45 1448.30 765.00 1450.00
C 781.72 1449.88 798.41 1445.68 816.00 1448.00
C 812.94 1448.75 809.93 1449.74 807.00 1451.00
C 811.33 1453.82 817.10 1450.66 822.00 1451.00
C 823.53 1450.75 827.59 1448.39 829.00 1451.00
C 826.20 1451.52 823.55 1452.64 821.00 1454.00
C 821.25 1453.89 818.14 1454.22 819.00 1455.00
C 820.06 1455.97 827.43 1455.11 829.00 1455.00
C 842.42 1454.09 854.41 1448.79 867.00 1445.00
C 861.78 1441.79 851.85 1450.84 848.00 1445.00
C 878.32 1436.03 908.92 1426.87 942.00 1428.00
C 945.67 1427.64 950.69 1427.23 955.00 1427.00
C 966.66 1426.37 980.69 1419.21 988.00 1411.00
C 985.77 1410.48 984.27 1412.54 982.00 1412.00
C 974.03 1414.01 965.98 1419.26 957.00 1419.00
C 959.78 1409.28 975.12 1415.68 982.00 1409.00
C 999.74 1402.04 1016.17 1390.67 1035.00 1387.00
C 1029.77 1391.58 1040.81 1388.61 1039.00 1394.00
C 1045.70 1391.03 1050.41 1385.64 1056.25 1381.25 C 1062.08 1376.86 1070.68 1376.32 1075.25 1369.25 C 1079.81 1362.18 1085.41 1360.79 1090.75 1354.75 C 1096.09 1348.71 1105.80 1347.77 1113.01 1346.01 C 1120.21 1344.24 1125.04 1338.26 1130.75 1333.75 C 1136.47 1329.24 1142.43 1324.61 1148.25 1320.25 C 1154.06 1315.88 1160.47 1312.67 1166.23 1308.23 C 1171.99 1303.79 1178.19 1299.43 1183.75 1294.75 C 1189.30 1290.06 1191.63 1283.05 1197.25 1278.25 C 1202.87 1273.44 1206.54 1266.99 1212.25 1262.25 C 1217.95 1257.50 1221.73 1252.10 1227.25 1247.25 C 1232.76 1242.39 1236.84 1236.17 1242.25 1231.25 C 1247.66 1226.32 1251.59 1220.82 1256.75 1215.75 C 1261.92 1210.69 1265.89 1203.93 1270.77 1198.77 C 1275.65 1193.61 1279.46 1187.01 1283.92 1181.92 C 1288.38 1176.82 1291.09 1168.37 1294.30 1163.31 C 1297.52 1158.24 1305.74 1145.82 1305.00 1153.00
C 1308.17 1149.41 1317.33 1148.20 1317.77 1141.77 C 1318.21 1135.34 1326.80 1131.78 1324.89 1126.11 C 1322.98 1120.43 1331.21 1116.94 1334.30 1112.30 C 1337.40 1107.67 1341.56 1102.61 1344.75 1097.75 C 1347.95 1092.90 1349.80 1087.18 1353.31 1082.31 C 1356.82 1077.43 1358.56 1070.98 1361.92 1065.92 C 1365.29 1060.87 1364.68 1053.89 1368.31 1049.31 C 1371.93 1044.72 1378.10 1044.31 1379.00 1037.00
C 1376.08 1037.23 1374.32 1040.75 1371.00 1040.00
C 1391.18 992.06 1415.15 944.56 1421.00 892.00
C 1425.40 893.60 1423.15 881.05 1424.00 875.00 C 1424.85 868.95 1427.16 861.20 1428.93 854.93 C 1430.69 848.65 1431.91 842.54 1433.98 835.98 C 1436.04 829.41 1436.24 820.32 1436.00 813.00
C 1444.80 807.33 1447.60 796.00 1454.00 788.00
C 1457.25 788.64 1458.78 789.29 1460.00 786.00
C 1460.00 793.33 1460.00 800.67 1460.00 808.00
C 1460.00 813.67 1460.00 819.33 1460.00 825.00
C 1460.00 840.95 1453.67 854.77 1451.00 870.00
C 1460.16 879.23 1451.90 896.15 1449.02 908.02 C 1446.15 919.90 1441.03 932.68 1437.68 944.68 C 1434.33 956.67 1429.93 969.19 1426.07 981.07 C 1422.22 992.95 1418.20 1005.38 1414.03 1017.03 C 1409.86 1028.67 1404.95 1040.00 1400.22 1051.22 C 1395.50 1062.44 1390.56 1073.34 1385.08 1084.08 C 1379.59 1094.81 1374.59 1105.13 1368.23 1115.23 C 1361.87 1125.33 1356.77 1134.73 1349.25 1144.25 C 1341.72 1153.76 1338.21 1165.82 1334.07 1177.07 C 1329.94 1188.32 1313.02 1190.16 1310.00 1202.00
C 1315.38 1207.05 1304.17 1215.38 1299.70 1221.70 C 1295.22 1228.02 1287.83 1234.20 1282.25 1240.25 C 1276.67 1246.29 1270.07 1252.10 1264.25 1258.25 C 1258.43 1264.40 1252.22 1270.27 1245.77 1275.77 C 1239.32 1281.27 1234.20 1287.80 1227.75 1293.75 C 1221.30 1299.70 1214.33 1307.96 1205.00 1306.00
C 1208.32 1312.14 1197.96 1318.56 1192.25 1323.25 C 1186.54 1327.94 1180.21 1336.22 1173.77 1339.77 C 1167.33 1343.32 1158.08 1347.74 1151.77 1351.77 C 1145.46 1355.80 1134.22 1364.91 1129.00 1358.00
C 1124.52 1360.70 1115.84 1364.58 1119.00 1371.00
C 1099.44 1380.51 1084.67 1394.01 1064.92 1403.92 C 1045.18 1413.84 1024.84 1422.56 1003.93 1430.93 C 983.01 1439.29 958.20 1443.61 938.00 1453.00
C 939.30 1455.84 943.48 1453.90 945.00 1456.00
C 930.54 1461.26 915.80 1465.10 900.92 1463.94 C 886.04 1462.77 871.47 1476.42 858.00 1476.00
C 861.27 1474.06 865.09 1473.61 868.00 1471.00
C 856.52 1466.69 846.71 1478.73 835.00 1478.00
C 842.78 1474.01 834.34 1473.43 829.00 1474.00 C 823.66 1474.57 817.35 1475.02 812.00 1476.00
C 813.89 1477.97 817.31 1478.79 819.00 1481.00
C 805.53 1482.58 791.90 1483.03 778.00 1483.00 C 764.10 1482.97 748.76 1482.97 735.00 1483.00 C 721.24 1483.03 707.11 1482.13 694.00 1481.00 C 680.89 1479.87 667.87 1478.33 655.33 1476.67 C 642.79 1475.01 629.95 1472.93 618.00 1471.00 C 606.04 1469.07 595.15 1465.60 584.32 1461.68 C 573.49 1457.75 560.37 1457.69 554.00 1449.00
C 556.79 1450.01 559.89 1450.18 563.00 1450.00
C 553.93 1442.78 542.91 1439.77 532.00 1444.00
C 532.68 1446.49 536.00 1445.99 537.00 1448.00
C 515.13 1450.22 488.47 1444.96 469.31 1434.69 C 450.14 1424.43 431.83 1416.71 413.31 1406.70 C 394.78 1396.68 377.02 1387.65 359.77 1376.23 C 342.52 1364.81 328.68 1350.64 313.30 1338.70 C 297.92 1326.76 276.08 1321.01 264.25 1303.75 C 252.42 1286.50 232.31 1281.71 220.00 1264.00
C 216.74 1260.50 213.26 1256.67 210.00 1253.00
C 202.71 1245.99 194.99 1238.21 191.02 1228.98 C 187.06 1219.74 179.66 1212.29 172.25 1204.75 C 164.84 1197.21 159.21 1188.88 152.08 1180.92 C 144.96 1172.95 143.15 1161.40 136.75 1153.25 C 130.35 1145.09 123.59 1137.93 117.75 1129.25 C 111.90 1120.58 106.69 1111.10 100.25 1102.75 C 93.80 1094.41 91.78 1081.70 87.22 1072.78 C 82.67 1063.85 82.48 1047.52 72.00 1046.00
C 68.28 1037.67 64.22 1028.61 60.68 1020.32 C 57.13 1012.04 51.15 1003.05 48.08 994.92 C 45.00 986.79 35.44 973.41 46.00 969.00
C 47.57 959.00 29.00 954.93 33.33 945.33 C 37.66 935.73 35.27 926.70 38.00 915.00
C 38.32 910.96 38.52 906.01 38.00 902.00
C 37.57 900.33 37.60 898.66 37.00 897.00
C 33.19 899.79 33.02 889.96 33.00 885.00 C 32.98 880.04 31.36 871.46 32.00 866.00
C 32.00 862.35 32.20 858.64 32.00 855.00
C 31.71 849.67 31.67 842.50 25.00 844.00
C 25.00 841.67 25.00 839.33 25.00 837.00
C 24.51 832.91 24.18 827.73 24.00 823.00
C 23.54 810.90 23.00 798.44 23.00 786.00
C 23.00 780.61 23.55 774.64 24.00 770.00
C 24.00 764.33 25.89 751.37 20.00 751.00
C 23.54 710.94 18.88 670.37 29.00 632.00
C 35.50 637.89 33.91 623.15 34.00 617.00 C 34.09 610.85 37.92 601.97 40.00 596.00
C 29.18 589.86 31.89 576.18 33.00 566.00
C 38.46 566.92 37.63 560.18 39.00 556.00
C 44.30 561.08 42.30 546.62 44.78 540.78 C 47.25 534.93 48.83 525.98 51.78 519.78 C 54.72 513.57 55.12 505.05 61.08 501.08 C 67.04 497.10 65.11 487.46 70.25 482.25 C 75.40 477.04 75.73 470.56 77.31 464.31 C 78.88 458.05 83.78 451.69 86.77 445.77 C 89.76 439.85 92.90 433.12 96.31 427.31 C 99.71 421.49 102.92 415.13 106.31 409.31 C 109.69 403.48 112.87 398.08 116.30 392.30 C 119.74 386.53 123.52 380.71 126.92 374.92 C 130.33 369.14 134.67 363.90 138.25 358.25 C 141.84 352.60 146.33 347.73 150.25 342.25 C 154.17 336.77 158.52 332.89 163.23 328.23 C 167.94 323.57 172.17 318.37 175.25 312.25 C 178.34 306.14 184.01 302.16 187.92 296.92 C 191.83 291.67 195.05 285.25 198.92 279.92 C 202.79 274.59 206.56 268.97 211.00 264.00
C 221.52 266.75 227.19 254.40 231.77 246.77 C 236.35 239.14 245.46 234.46 252.75 227.75 C 260.04 221.04 267.10 214.72 272.75 206.75 C 278.40 198.79 286.82 194.01 292.75 186.75 C 298.68 179.49 310.01 176.18 316.25 170.25 C 322.48 164.31 340.45 161.04 332.00 153.00
C 343.33 149.51 352.96 142.52 363.08 136.08 C 373.21 129.64 384.21 125.61 394.70 119.69 C 405.18 113.78 414.97 108.82 425.25 102.25 C 435.52 95.67 445.83 91.50 457.02 86.02 C 468.22 80.55 481.16 80.25 493.02 76.02 C 504.89 71.80 518.67 69.69 530.68 65.68 C 542.69 61.67 550.89 53.84 563.22 50.22 C 575.55 46.61 591.63 45.84 599.00 37.00
C 655.80 22.32 718.20 25.01 777.00 31.00
M 875.00 59.00 
C 869.76 61.42 862.70 59.48 857.00 59.00
C 860.46 54.20 869.25 60.02 875.00 59.00
M 592.00 68.00 
C 587.10 68.89 589.36 62.53 590.00 60.00
C 592.48 61.70 591.99 65.23 592.00 68.00
M 859.00 65.00 
C 850.70 69.51 836.01 66.55 827.00 62.00
C 837.16 59.57 848.96 62.31 859.00 65.00
M 827.00 66.00 
C 824.87 67.23 820.70 67.88 819.00 66.00
C 820.64 64.50 825.43 64.28 827.00 66.00
M 877.00 74.00 
C 873.28 76.18 868.15 74.60 864.00 74.00
C 864.26 72.61 866.05 73.22 867.00 73.00
C 870.75 71.75 874.90 71.92 879.00 72.00
C 879.51 73.41 878.19 74.15 877.00 74.00
M 928.00 82.00 
C 925.87 84.30 920.33 83.24 922.00 79.00
C 924.77 78.08 925.90 81.19 928.00 82.00
M 1037.00 89.00 
C 1033.76 94.45 1025.75 87.99 1021.00 87.00
C 1025.89 84.11 1031.88 88.15 1037.00 89.00
M 349.00 142.00 
C 344.30 143.84 339.02 150.14 334.00 147.00
C 337.52 143.63 344.39 139.52 349.00 142.00
M 1147.00 166.00 
C 1141.03 163.58 1133.06 160.73 1130.00 155.00
C 1136.33 155.92 1145.38 159.47 1147.00 166.00
M 1131.00 167.00 
C 1128.97 165.43 1124.83 165.39 1125.00 162.00
C 1128.09 161.17 1131.71 163.59 1131.00 167.00
M 377.00 172.00 
C 374.56 178.03 367.43 183.93 361.00 184.00
C 361.56 176.52 370.95 172.76 377.00 170.00
C 378.99 169.20 380.64 167.58 383.00 168.00
C 381.67 169.93 379.33 171.58 377.00 172.00
M 1178.00 173.00 
C 1175.23 173.19 1172.19 171.56 1171.00 169.00
C 1173.77 168.81 1176.81 170.44 1178.00 173.00
M 1206.00 214.00 
C 1203.38 206.63 1195.53 201.98 1192.00 195.00
C 1202.06 200.13 1209.36 199.10 1210.93 213.07 C 1212.49 227.05 1199.50 221.65 1193.25 213.75 C 1187.00 205.85 1179.01 201.92 1170.00 200.00
C 1171.71 192.98 1159.56 192.91 1157.00 187.00
C 1165.20 188.32 1177.28 191.09 1184.75 196.25 C 1192.22 201.41 1196.37 212.01 1206.00 214.00
M 1208.00 194.00 
C 1205.63 196.35 1199.51 194.14 1199.00 191.00
C 1202.21 191.31 1204.85 193.45 1208.00 194.00
M 1226.00 214.00 
C 1227.69 216.12 1230.03 218.28 1231.00 221.00
C 1227.60 220.32 1225.10 216.56 1223.00 214.00
C 1218.41 210.00 1211.87 206.07 1209.00 201.00
C 1216.36 201.95 1222.03 208.08 1226.00 214.00
M 1246.00 236.00 
C 1239.13 234.91 1244.88 229.12 1246.00 236.00
M 1226.00 243.00 
C 1222.70 240.63 1217.94 238.27 1217.00 234.00
C 1220.29 236.41 1226.17 238.11 1226.00 243.00
M 1255.00 244.00 
C 1251.99 243.30 1248.63 240.04 1248.00 237.00
C 1251.01 237.70 1254.37 240.96 1255.00 244.00
M 1265.00 254.00 
C 1261.69 252.51 1255.40 251.89 1259.00 257.00
C 1252.17 254.61 1244.31 249.26 1242.00 242.00
C 1250.01 243.81 1261.06 246.08 1265.00 254.00
M 1294.00 270.00 
C 1299.04 274.30 1305.32 278.85 1305.00 286.00
C 1299.04 283.84 1296.55 276.77 1293.00 272.00
C 1291.36 270.05 1288.36 268.93 1288.00 266.00
C 1290.75 265.73 1291.68 269.29 1294.00 270.00
M 1292.00 284.00 
C 1287.35 279.81 1281.83 275.54 1279.00 270.00
C 1283.97 272.92 1290.61 278.19 1292.00 284.00
M 231.00 288.00 
C 226.68 293.53 220.54 298.04 219.00 305.00
C 215.06 295.93 218.32 281.73 231.00 288.00
M 1299.00 309.00 
C 1293.72 305.74 1286.69 300.15 1285.00 294.00
C 1290.52 297.91 1296.55 302.69 1299.00 309.00
M 1309.00 303.00 
C 1306.67 302.86 1304.06 300.39 1304.00 298.00
C 1306.33 298.14 1308.94 300.61 1309.00 303.00
M 1334.00 330.00 
C 1335.46 332.86 1336.91 335.71 1337.00 339.00
C 1334.03 337.57 1331.78 332.44 1334.00 330.00
M 1348.00 364.00 
C 1344.48 363.21 1342.20 358.52 1342.00 355.00
C 1343.54 358.06 1348.52 359.92 1348.00 364.00
M 1338.00 361.00 
C 1340.56 367.27 1343.89 373.27 1345.00 380.00
C 1338.61 376.27 1334.85 367.49 1338.00 361.00
M 1364.00 373.00 
C 1364.97 375.71 1368.26 379.60 1366.00 382.00
C 1364.91 379.26 1360.92 375.72 1364.00 373.00
M 1349.00 390.00 
C 1346.42 388.78 1344.65 383.98 1347.00 382.00
C 1348.54 383.80 1351.60 387.90 1349.00 390.00
M 1366.00 397.00 
C 1360.14 400.16 1357.13 394.49 1358.00 389.00
C 1361.66 389.85 1364.48 393.76 1366.00 397.00
M 118.00 450.00 
C 118.52 447.20 119.64 444.55 121.00 442.00
C 123.26 444.06 120.81 449.69 118.00 450.00
M 1409.00 458.00 
C 1406.02 453.86 1400.88 447.96 1404.00 443.00
C 1407.49 446.46 1410.85 453.58 1409.00 458.00
M 1415.00 489.00 
C 1413.10 485.31 1408.01 480.76 1412.00 477.00
C 1414.68 479.54 1417.24 485.70 1415.00 489.00
M 1422.00 542.00 
C 1422.19 546.11 1424.90 549.58 1424.00 554.00
C 1421.75 551.15 1419.73 545.23 1422.00 542.00
M 1439.00 579.00 
C 1441.89 587.45 1444.50 596.13 1446.00 605.00
C 1437.40 600.41 1440.45 587.20 1437.00 579.00
C 1434.42 569.63 1427.19 558.66 1429.00 549.00
C 1432.67 558.91 1435.04 569.17 1439.00 579.00
M 1464.00 759.00 
C 1464.92 762.71 1470.28 769.60 1463.00 770.00
C 1463.62 766.50 1461.73 761.68 1464.00 759.00
M 86.00 946.00 
C 85.41 948.84 87.22 952.98 85.00 955.00
C 85.29 952.31 81.62 946.61 86.00 946.00
M 95.00 972.00 
C 96.60 983.76 103.00 996.27 100.00 1008.00
C 101.37 1001.51 91.25 998.36 91.08 992.92 C 90.92 987.48 94.68 977.46 95.00 972.00
M 237.00 1216.00 
C 232.56 1213.14 226.18 1209.98 224.00 1205.00
C 227.71 1208.88 237.34 1208.31 237.00 1216.00
M 266.00 1245.00 
C 262.66 1244.00 258.94 1240.37 258.00 1237.00
C 261.01 1239.06 266.48 1240.35 266.00 1245.00
M 359.00 1324.00 
C 357.66 1326.09 352.72 1324.68 353.00 1322.00
C 355.33 1321.56 357.01 1323.24 359.00 1324.00
M 857.00 1440.00 
C 846.63 1443.09 834.47 1447.01 824.00 1445.00
C 834.67 1443.05 846.74 1438.85 857.00 1440.00 Z"/>
</g>
<g fill="#FE77DB" fill-opacity="1.00" stroke="None">
<path d="
M 24.00 770.00 
C 24.00 775.39 23.45 781.36 23.00 786.00
C 23.00 798.44 23.54 810.90 24.00 823.00
C 24.59 827.14 24.90 832.22 25.00 837.00
C 25.00 839.33 25.00 841.67 25.00 844.00
C 31.67 842.50 31.71 849.67 32.00 855.00
C 32.59 858.65 32.34 862.48 32.00 866.00
C 31.36 871.46 32.98 880.04 33.00 885.00 C 33.02 889.96 33.19 899.79 37.00 897.00
C 37.60 898.66 37.57 900.33 38.00 902.00
C 39.12 906.32 38.81 910.78 38.00 915.00
C 35.27 926.70 37.66 935.73 33.33 945.33 C 29.00 954.93 47.57 959.00 46.00 969.00
C 35.44 973.41 45.00 986.79 48.08 994.92 C 51.15 1003.05 57.13 1012.04 60.68 1020.32 C 64.22 1028.61 68.28 1037.67 72.00 1046.00
C 82.48 1047.52 82.67 1063.85 87.22 1072.78 C 91.78 1081.70 93.80 1094.41 100.25 1102.75 C 106.69 1111.10 111.90 1120.58 117.75 1129.25 C 123.59 1137.93 130.35 1145.09 136.75 1153.25 C 143.15 1161.40 144.96 1172.95 152.08 1180.92 C 159.21 1188.88 164.84 1197.21 172.25 1204.75 C 179.66 1212.29 187.06 1219.74 191.02 1228.98 C 194.99 1238.21 202.71 1245.99 210.00 1253.00
C 213.78 1256.63 216.95 1259.89 220.00 1264.00
C 232.31 1281.71 252.42 1286.50 264.25 1303.75 C 276.08 1321.01 297.92 1326.76 313.30 1338.70 C 328.68 1350.64 342.52 1364.81 359.77 1376.23 C 377.02 1387.65 394.78 1396.68 413.31 1406.70 C 431.83 1416.71 450.14 1424.43 469.31 1434.69 C 488.47 1444.96 515.13 1450.22 537.00 1448.00
C 536.00 1445.99 532.68 1446.49 532.00 1444.00
C 542.91 1439.77 553.93 1442.78 563.00 1450.00
C 559.89 1450.18 556.79 1450.01 554.00 1449.00
C 560.37 1457.69 573.49 1457.75 584.32 1461.68 C 595.15 1465.60 606.04 1469.07 618.00 1471.00 C 629.95 1472.93 642.79 1475.01 655.33 1476.67 C 667.87 1478.33 680.89 1479.87 694.00 1481.00 C 707.11 1482.13 721.24 1483.03 735.00 1483.00 C 748.76 1482.97 764.10 1482.97 778.00 1483.00 C 791.90 1483.03 805.53 1482.58 819.00 1481.00
C 817.31 1478.79 813.89 1477.97 812.00 1476.00
C 817.35 1475.02 823.66 1474.57 829.00 1474.00 C 834.34 1473.43 842.78 1474.01 835.00 1478.00
C 846.71 1478.73 856.52 1466.69 868.00 1471.00
C 865.09 1473.61 861.27 1474.06 858.00 1476.00
C 871.47 1476.42 886.04 1462.77 900.92 1463.94 C 915.80 1465.10 930.54 1461.26 945.00 1456.00
C 943.48 1453.90 939.30 1455.84 938.00 1453.00
C 958.20 1443.61 983.01 1439.29 1003.93 1430.93 C 1024.84 1422.56 1045.18 1413.84 1064.92 1403.92 C 1084.67 1394.01 1099.44 1380.51 1119.00 1371.00
C 1115.84 1364.58 1124.52 1360.70 1129.00 1358.00
C 1134.22 1364.91 1145.46 1355.80 1151.77 1351.77 C 1158.08 1347.74 1167.33 1343.32 1173.77 1339.77 C 1180.21 1336.22 1186.54 1327.94 1192.25 1323.25 C 1197.96 1318.56 1208.32 1312.14 1205.00 1306.00
C 1214.33 1307.96 1221.30 1299.70 1227.75 1293.75 C 1234.20 1287.80 1239.32 1281.27 1245.77 1275.77 C 1252.22 1270.27 1258.43 1264.40 1264.25 1258.25 C 1270.07 1252.10 1276.67 1246.29 1282.25 1240.25 C 1287.83 1234.20 1295.22 1228.02 1299.70 1221.70 C 1304.17 1215.38 1315.38 1207.05 1310.00 1202.00
C 1313.02 1190.16 1329.94 1188.32 1334.07 1177.07 C 1338.21 1165.82 1341.72 1153.76 1349.25 1144.25 C 1356.77 1134.73 1361.87 1125.33 1368.23 1115.23 C 1374.59 1105.13 1379.59 1094.81 1385.08 1084.08 C 1390.56 1073.34 1395.50 1062.44 1400.22 1051.22 C 1404.95 1040.00 1409.86 1028.67 1414.03 1017.03 C 1418.20 1005.38 1422.22 992.95 1426.07 981.07 C 1429.93 969.19 1434.33 956.67 1437.68 944.68 C 1441.03 932.68 1446.15 919.90 1449.02 908.02 C 1451.90 896.15 1460.16 879.23 1451.00 870.00
C 1453.67 854.77 1460.00 840.95 1460.00 825.00
C 1459.48 819.65 1459.49 813.28 1460.00 808.00
C 1460.00 800.67 1460.00 793.33 1460.00 786.00
C 1458.78 789.29 1457.25 788.64 1454.00 788.00
C 1447.60 796.00 1444.80 807.33 1436.00 813.00
C 1436.24 820.32 1436.04 829.41 1433.98 835.98 C 1431.91 842.54 1430.69 848.65 1428.93 854.93 C 1427.16 861.20 1424.85 868.95 1424.00 875.00 C 1423.15 881.05 1425.40 893.60 1421.00 892.00
C 1415.15 944.56 1391.18 992.06 1371.00 1040.00
C 1374.32 1040.75 1376.08 1037.23 1379.00 1037.00
C 1378.10 1044.31 1371.93 1044.72 1368.31 1049.31 C 1364.68 1053.89 1365.29 1060.87 1361.92 1065.92 C 1358.56 1070.98 1356.82 1077.43 1353.31 1082.31 C 1349.80 1087.18 1347.95 1092.90 1344.75 1097.75 C 1341.56 1102.61 1337.40 1107.67 1334.30 1112.30 C 1331.21 1116.94 1322.98 1120.43 1324.89 1126.11 C 1326.80 1131.78 1318.21 1135.34 1317.77 1141.77 C 1317.33 1148.20 1308.17 1149.41 1305.00 1153.00
C 1305.74 1145.82 1297.52 1158.24 1294.30 1163.31 C 1291.09 1168.37 1288.38 1176.82 1283.92 1181.92 C 1279.46 1187.01 1275.65 1193.61 1270.77 1198.77 C 1265.89 1203.93 1261.92 1210.69 1256.75 1215.75 C 1251.59 1220.82 1247.66 1226.32 1242.25 1231.25 C 1236.84 1236.17 1232.76 1242.39 1227.25 1247.25 C 1221.73 1252.10 1217.95 1257.50 1212.25 1262.25 C 1206.54 1266.99 1202.87 1273.44 1197.25 1278.25 C 1191.63 1283.05 1189.30 1290.06 1183.75 1294.75 C 1178.19 1299.43 1171.99 1303.79 1166.23 1308.23 C 1160.47 1312.67 1154.06 1315.88 1148.25 1320.25 C 1142.43 1324.61 1136.47 1329.24 1130.75 1333.75 C 1125.04 1338.26 1120.21 1344.24 1113.01 1346.01 C 1105.80 1347.77 1096.09 1348.71 1090.75 1354.75 C 1085.41 1360.79 1079.81 1362.18 1075.25 1369.25 C 1070.68 1376.32 1062.08 1376.86 1056.25 1381.25 C 1050.41 1385.64 1045.70 1391.03 1039.00 1394.00
C 1040.81 1388.61 1029.77 1391.58 1035.00 1387.00
C 1016.17 1390.67 999.74 1402.04 982.00 1409.00
C 981.54 1409.71 982.38 1411.24 982.00 1412.00
C 984.27 1412.54 985.77 1410.48 988.00 1411.00
C 980.69 1419.21 966.66 1426.37 955.00 1427.00
C 951.15 1427.62 946.50 1428.00 942.00 1428.00
C 908.92 1426.87 878.32 1436.03 848.00 1445.00
C 851.85 1450.84 861.78 1441.79 867.00 1445.00
C 854.41 1448.79 842.42 1454.09 829.00 1455.00
C 827.31 1455.30 815.06 1457.24 819.00 1455.00
C 818.14 1454.22 821.25 1453.89 821.00 1454.00
C 821.97 1453.25 821.42 1451.69 822.00 1451.00
C 817.10 1450.66 811.33 1453.82 807.00 1451.00
C 809.93 1449.74 812.94 1448.75 816.00 1448.00
C 798.41 1445.68 781.72 1449.88 765.00 1450.00
C 765.45 1448.30 767.35 1449.49 768.00 1448.00
C 765.25 1448.44 757.81 1446.40 755.00 1446.00
C 749.30 1445.79 737.11 1441.99 742.00 1452.00
C 734.62 1451.61 722.80 1453.01 716.22 1450.78 C 709.65 1448.54 702.78 1445.85 697.07 1443.93 C 691.37 1442.01 677.65 1438.50 685.00 1444.00
C 668.73 1446.35 654.56 1433.76 639.00 1438.00
C 641.97 1438.12 644.05 1440.87 647.00 1441.00
C 636.63 1440.91 624.63 1440.01 613.00 1441.00
C 603.55 1426.62 582.46 1441.36 569.00 1433.00
C 570.94 1430.19 576.69 1434.13 578.00 1430.00
C 574.12 1427.98 564.20 1430.79 567.00 1424.00
C 557.80 1422.00 548.59 1422.46 540.02 1417.98 C 531.46 1413.49 522.36 1415.94 513.07 1415.93 C 503.79 1415.91 499.64 1406.33 491.00 1405.00
C 498.49 1399.97 509.14 1413.53 515.00 1407.00
C 489.83 1393.68 460.02 1395.90 437.00 1379.00
C 438.91 1377.76 441.69 1377.98 443.00 1376.00
C 428.66 1372.78 418.67 1362.31 407.23 1353.77 C 395.79 1345.23 379.77 1342.85 368.23 1334.77 C 356.69 1326.69 344.74 1320.93 333.75 1312.25 C 322.76 1303.56 314.22 1292.95 302.25 1285.75 C 290.28 1278.56 282.93 1266.27 274.00 1257.00
C 273.37 1259.92 275.03 1262.26 275.00 1265.00
C 267.41 1263.78 264.85 1257.71 258.25 1253.75 C 251.65 1249.80 255.66 1240.66 249.75 1237.25 C 243.84 1233.85 239.22 1228.95 233.75 1225.25 C 228.28 1221.55 224.24 1216.76 220.00 1212.00
C 223.59 1209.91 219.31 1206.00 218.00 1203.00
C 216.76 1200.15 217.98 1200.60 217.00 1198.00
C 206.21 1188.89 201.74 1174.46 189.75 1166.25 C 177.76 1158.04 176.03 1144.93 162.25 1136.75 C 148.47 1128.57 148.52 1112.18 140.25 1100.75 C 131.99 1089.31 127.21 1074.81 118.92 1063.08 C 110.64 1051.35 102.06 1039.72 98.00 1026.00
C 104.06 1030.67 107.97 1037.93 110.00 1045.00
C 114.07 1036.95 108.10 1028.72 103.92 1022.08 C 99.74 1015.43 98.76 1008.15 93.25 1002.75 C 87.74 997.36 87.98 987.05 85.98 980.02 C 83.97 973.00 78.64 965.18 80.00 958.00 C 81.36 950.82 70.62 939.49 79.00 937.00
C 78.95 928.49 70.07 923.11 67.00 916.00
C 65.07 911.52 65.85 904.43 67.00 900.00
C 68.09 894.84 72.16 889.44 69.00 884.00
C 65.23 883.64 67.69 890.38 64.00 890.00
C 61.37 883.65 60.41 876.37 59.33 869.67 C 58.25 862.97 57.54 854.31 55.98 848.02 C 54.41 841.74 53.04 832.85 51.78 827.22 C 50.52 821.59 47.35 807.87 53.00 813.00
C 49.07 807.36 51.61 799.78 49.75 794.25 C 47.90 788.72 41.59 784.65 42.33 777.67 C 43.07 770.70 41.53 762.19 43.67 755.67 C 45.81 749.15 45.49 740.31 46.00 734.00 C 46.51 727.69 43.14 714.15 50.00 718.00
C 51.39 694.09 43.92 670.38 51.00 648.00
C 46.33 649.61 46.52 641.33 46.00 637.00 C 45.48 632.67 45.81 625.49 45.00 621.00
C 41.64 622.47 42.35 627.49 39.00 629.00
C 38.78 620.44 40.74 612.42 41.00 604.00
C 46.57 606.15 44.46 599.41 50.00 598.00
C 53.89 608.56 40.32 623.90 54.00 630.00
C 55.24 622.78 55.03 613.35 63.00 610.00
C 66.11 588.84 76.71 568.96 76.00 546.00 C 75.29 523.04 82.20 501.04 89.00 480.00
C 89.82 484.66 94.47 483.51 98.00 485.00
C 94.62 491.90 90.29 499.36 88.99 506.99 C 87.69 514.62 81.92 525.30 86.00 531.00
C 87.69 522.38 92.64 512.84 93.07 504.07 C 93.50 495.30 104.34 490.21 105.22 482.22 C 106.09 474.24 105.89 462.78 111.07 456.07 C 116.25 449.36 115.23 435.63 123.00 438.00
C 124.64 411.54 147.89 394.77 160.70 373.70 C 173.51 352.62 189.11 333.53 199.00 311.00
C 201.96 311.71 200.30 315.28 202.00 317.00
C 211.81 301.71 214.94 280.30 223.00 263.00
C 233.27 266.65 241.18 275.31 234.00 286.00
C 241.41 279.55 248.89 272.02 254.00 264.00
C 240.23 267.42 245.96 259.62 253.30 256.30 C 260.65 252.99 265.68 250.01 271.75 245.75 C 277.82 241.49 271.65 228.76 281.00 226.00
C 281.49 228.82 284.87 230.14 285.00 233.00
C 291.73 228.42 295.17 218.69 300.00 212.00
C 311.11 219.29 326.23 204.76 334.29 197.30 C 342.35 189.84 350.67 178.27 358.00 168.00
C 361.07 163.70 365.75 159.03 370.00 156.00
C 373.31 154.90 375.58 151.62 379.00 151.00
C 378.05 168.31 394.54 156.82 398.08 148.08 C 401.62 139.34 408.88 131.96 414.75 124.75 C 420.62 117.55 428.26 110.90 435.92 105.92 C 443.59 100.95 455.84 100.63 463.00 94.00
C 446.91 113.16 426.04 129.91 411.00 149.00
C 418.36 149.24 423.82 143.17 431.00 143.00
C 430.64 145.50 426.66 145.49 427.00 148.00
C 448.36 142.34 466.68 127.46 483.00 114.00
C 468.39 119.32 456.41 130.35 442.00 136.00
C 445.25 126.44 455.28 119.17 463.92 113.92 C 472.55 108.67 484.13 101.33 494.00 102.00
C 493.07 105.83 491.13 109.27 490.00 113.00
C 495.02 110.78 500.62 107.69 505.77 105.77 C 510.92 103.85 520.05 99.22 513.00 106.00
C 532.85 94.72 555.14 89.57 578.00 89.00
C 568.86 83.56 561.64 73.60 564.00 62.00
C 570.61 59.79 577.89 59.14 585.00 59.00
C 592.21 58.13 600.84 57.84 608.00 59.00
C 611.28 58.31 613.82 60.41 617.00 60.00
C 618.03 67.05 607.22 68.90 608.00 76.00
C 613.40 70.84 622.44 73.66 627.99 73.99 C 633.54 74.33 643.36 68.34 642.00 67.00
C 653.13 65.13 664.83 65.64 676.00 64.00
C 680.68 56.52 691.17 50.83 700.93 49.93 C 710.68 49.02 723.91 52.00 735.00 52.00
C 740.06 52.00 745.68 52.58 750.00 53.00
C 771.51 55.44 794.66 53.46 814.00 63.00
C 820.26 53.05 834.93 53.00 846.00 53.00
C 850.71 52.54 856.60 52.00 862.00 52.00
C 865.88 52.00 869.82 52.43 873.00 53.00
C 885.98 53.88 898.16 63.75 911.00 64.00 C 923.84 64.25 943.96 67.22 954.78 68.22 C 965.60 69.22 985.86 80.02 974.00 87.00
C 973.29 87.42 970.67 88.93 970.00 89.00
C 977.69 92.99 987.55 95.95 995.78 99.22 C 1004.00 102.50 1012.52 106.95 1020.31 110.69 C 1028.09 114.44 1038.33 121.32 1045.00 117.00
C 1040.78 115.82 1035.85 114.48 1033.00 111.00
C 1050.58 109.41 1065.78 118.40 1081.77 124.23 C 1097.76 130.05 1101.36 148.13 1119.00 151.00
C 1119.36 147.01 1115.05 144.51 1112.00 143.00
C 1127.42 145.13 1144.14 154.70 1158.00 164.00
C 1155.07 156.50 1146.91 152.82 1140.25 149.75 C 1133.58 146.69 1127.93 140.52 1121.08 137.92 C 1114.22 135.33 1107.49 129.30 1101.75 125.25 C 1096.00 121.21 1088.97 115.63 1083.74 112.26 C 1078.52 108.89 1063.14 103.09 1070.00 111.00
C 1064.38 110.64 1058.20 107.44 1053.07 105.93 C 1047.95 104.41 1041.65 101.55 1037.02 99.98 C 1032.40 98.40 1021.45 96.42 1029.00 94.00
C 1022.55 92.60 1016.63 90.50 1011.23 86.77 C 1005.83 83.04 1004.11 77.41 998.08 74.92 C 992.04 72.44 986.72 69.97 980.69 67.31 C 974.67 64.64 968.61 62.51 962.07 60.93 C 955.54 59.34 948.80 57.17 942.01 55.99 C 935.21 54.82 927.84 53.24 921.02 51.98 C 914.21 50.71 907.10 49.84 900.67 47.33 C 894.25 44.82 885.76 45.29 879.22 43.78 C 872.68 42.27 863.39 41.94 857.22 40.78 C 851.05 39.62 839.85 40.15 841.00 37.00
C 839.44 36.33 837.54 36.54 836.00 36.00
C 834.48 36.02 831.94 37.01 831.00 37.00
C 820.78 36.14 810.79 34.44 801.00 32.00
C 802.89 29.28 808.04 32.66 810.00 30.00
C 803.30 28.31 796.66 29.55 790.00 30.00
C 786.14 30.69 781.51 31.00 777.00 31.00
C 718.20 25.01 655.80 22.32 599.00 37.00
C 591.63 45.84 575.55 46.61 563.22 50.22 C 550.89 53.84 542.69 61.67 530.68 65.68 C 518.67 69.69 504.89 71.80 493.02 76.02 C 481.16 80.25 468.22 80.55 457.02 86.02 C 445.83 91.50 435.52 95.67 425.25 102.25 C 414.97 108.82 405.18 113.78 394.70 119.69 C 384.21 125.61 373.21 129.64 363.08 136.08 C 352.96 142.52 343.33 149.51 332.00 153.00
C 340.45 161.04 322.48 164.31 316.25 170.25 C 310.01 176.18 298.68 179.49 292.75 186.75 C 286.82 194.01 278.40 198.79 272.75 206.75 C 267.10 214.72 260.04 221.04 252.75 227.75 C 245.46 234.46 236.35 239.14 231.77 246.77 C 227.19 254.40 221.52 266.75 211.00 264.00
C 206.56 268.97 202.79 274.59 198.92 279.92 C 195.05 285.25 191.83 291.67 187.92 296.92 C 184.01 302.16 178.34 306.14 175.25 312.25 C 172.17 318.37 167.94 323.57 163.23 328.23 C 158.52 332.89 154.17 336.77 150.25 342.25 C 146.33 347.73 141.84 352.60 138.25 358.25 C 134.67 363.90 130.33 369.14 126.92 374.92 C 123.52 380.71 119.74 386.53 116.30 392.30 C 112.87 398.08 109.69 403.48 106.31 409.31 C 102.92 415.13 99.71 421.49 96.31 427.31 C 92.90 433.12 89.76 439.85 86.77 445.77 C 83.78 451.69 78.88 458.05 77.31 464.31 C 75.73 470.56 75.40 477.04 70.25 482.25 C 65.11 487.46 67.04 497.10 61.08 501.08 C 55.12 505.05 54.72 513.57 51.78 519.78 C 48.83 525.98 47.25 534.93 44.78 540.78 C 42.30 546.62 44.30 561.08 39.00 556.00
C 37.63 560.18 38.46 566.92 33.00 566.00
C 31.89 576.18 29.18 589.86 40.00 596.00
C 37.92 601.97 34.09 610.85 34.00 617.00 C 33.91 623.15 35.50 637.89 29.00 632.00
C 18.88 670.37 23.54 710.94 20.00 751.00
C 25.89 751.37 24.00 764.33 24.00 770.00
M 61.00 585.00 
C 61.03 588.17 60.13 591.12 59.00 594.00
C 57.95 591.97 58.80 586.85 61.00 585.00
M 219.00 1208.00 
C 219.58 1208.05 220.25 1210.19 218.87 1209.92 C 217.48 1209.65 218.11 1207.92 219.00 1208.00 Z"/>
</g>
<g fill="#FAFCFC" fill-opacity="0.05" stroke="None">
<path d="
M 777.00 31.00 
C 781.51 31.00 786.14 30.69 790.00 30.00
C 785.72 30.29 780.65 30.65 777.00 31.00 Z"/>
</g>
<g fill="#FF95D9" fill-opacity="0.25" stroke="None">
<path d="
M 831.00 37.00 
C 831.94 37.01 834.48 36.02 836.00 36.00
C 833.73 34.32 830.09 33.95 827.00 34.00
C 827.92 34.72 829.90 36.66 831.00 37.00 Z"/>
</g>
<g fill="#FCEBF8" fill-opacity="0.07" stroke="None">
<path d="
M 750.00 53.00 
C 745.68 52.58 740.06 52.00 735.00 52.00
C 739.32 52.42 744.94 53.00 750.00 53.00 Z"/>
</g>
<g fill="#F6FFFF" fill-opacity="0.01" stroke="None">
<path d="
M 846.00 53.00 
C 851.33 53.00 856.67 53.00 862.00 53.00
C 861.96 53.00 862.00 52.00 862.00 52.00
C 856.60 52.00 850.71 52.54 846.00 53.00 Z"/>
</g>
<g fill="#FBB6EC" fill-opacity="0.11" stroke="None">
<path d="
M 862.00 53.00 
C 865.64 53.00 869.37 52.75 873.00 53.00
C 869.82 52.43 865.88 52.00 862.00 52.00
C 862.00 52.00 861.96 53.00 862.00 53.00 Z"/>
</g>
<g fill="#FA84DA" fill-opacity="0.31" stroke="None">
<path d="
M 875.00 59.00 
C 869.25 60.02 860.46 54.20 857.00 59.00
C 862.70 59.48 869.76 61.42 875.00 59.00 Z"/>
</g>
<g fill="#FE9BE4" fill-opacity="0.18" stroke="None">
<path d="
M 585.00 59.00 
C 592.60 58.85 600.41 58.59 608.00 59.00
C 600.84 57.84 592.21 58.13 585.00 59.00 Z"/>
</g>
<g fill="#FF87E0" fill-opacity="0.42" stroke="None">
<path d="
M 592.00 68.00 
C 591.99 65.23 592.48 61.70 590.00 60.00
C 589.36 62.53 587.10 68.89 592.00 68.00 Z"/>
</g>
<g fill="#FD81DE" fill-opacity="0.62" stroke="None">
<path d="
M 859.00 65.00 
C 848.96 62.31 837.16 59.57 827.00 62.00
C 836.01 66.55 850.70 69.51 859.00 65.00 Z"/>
</g>
<g fill="#FA7FDB" fill-opacity="0.47" stroke="None">
<path d="
M 827.00 66.00 
C 825.43 64.28 820.64 64.50 819.00 66.00
C 820.70 67.88 824.87 67.23 827.00 66.00 Z"/>
</g>
<g fill="#FD85DE" fill-opacity="0.60" stroke="None">
<path d="
M 867.00 73.00 
C 869.46 72.98 873.76 74.99 877.00 74.00
C 878.19 74.15 879.51 73.41 879.00 72.00
C 874.90 71.92 870.75 71.75 867.00 73.00 Z"/>
</g>
<g fill="#FD8FE2" fill-opacity="0.09" stroke="None">
<path d="
M 877.00 74.00 
C 873.76 74.99 869.46 72.98 867.00 73.00
C 866.05 73.22 864.26 72.61 864.00 74.00
C 868.15 74.60 873.28 76.18 877.00 74.00 Z"/>
</g>
<g fill="#FF8DE1" fill-opacity="0.48" stroke="None">
<path d="
M 970.00 89.00 
C 970.67 88.93 973.29 87.42 974.00 87.00
C 959.14 86.30 945.66 73.98 931.00 77.00
C 943.74 81.60 957.38 84.23 970.00 89.00 Z"/>
</g>
<g fill="#FE83D6" fill-opacity="0.49" stroke="None">
<path d="
M 928.00 82.00 
C 925.90 81.19 924.77 78.08 922.00 79.00
C 920.33 83.24 925.87 84.30 928.00 82.00 Z"/>
</g>
<g fill="#FF85DE" fill-opacity="0.50" stroke="None">
<path d="
M 1037.00 89.00 
C 1031.88 88.15 1025.89 84.11 1021.00 87.00
C 1025.75 87.99 1033.76 94.45 1037.00 89.00 Z"/>
</g>
<g fill="#FF82D9" fill-opacity="0.54" stroke="None">
<path d="
M 349.00 142.00 
C 344.39 139.52 337.52 143.63 334.00 147.00
C 339.02 150.14 344.30 143.84 349.00 142.00 Z"/>
</g>
<g fill="#FD7EDA" fill-opacity="0.55" stroke="None">
<path d="
M 1147.00 166.00 
C 1145.38 159.47 1136.33 155.92 1130.00 155.00
C 1133.06 160.73 1141.03 163.58 1147.00 166.00 Z"/>
</g>
<g fill="#F7B9E5" fill-opacity="0.07" stroke="None">
<path d="
M 358.00 168.00 
C 361.13 164.27 366.22 159.17 370.00 156.00
C 365.75 159.03 361.07 163.70 358.00 168.00 Z"/>
</g>
<g fill="#FF85DD" fill-opacity="0.47" stroke="None">
<path d="
M 1131.00 167.00 
C 1131.71 163.59 1128.09 161.17 1125.00 162.00
C 1124.83 165.39 1128.97 165.43 1131.00 167.00 Z"/>
</g>
<g fill="#FF93DC" fill-opacity="0.28" stroke="None">
<path d="
M 377.00 170.00 
C 376.77 170.34 377.17 171.57 377.00 172.00
C 379.33 171.58 381.67 169.93 383.00 168.00
C 380.64 167.58 378.99 169.20 377.00 170.00 Z"/>
</g>
<g fill="#FF98E4" fill-opacity="0.27" stroke="None">
<path d="
M 1178.00 173.00 
C 1176.81 170.44 1173.77 168.81 1171.00 169.00
C 1172.19 171.56 1175.23 173.19 1178.00 173.00 Z"/>
</g>
<g fill="#FF7CDE" fill-opacity="0.69" stroke="None">
<path d="
M 377.00 172.00 
C 377.17 171.57 376.77 170.34 377.00 170.00
C 370.95 172.76 361.56 176.52 361.00 184.00
C 367.43 183.93 374.56 178.03 377.00 172.00 Z"/>
</g>
<g fill="#FE7FDD" fill-opacity="0.76" stroke="None">
<path d="
M 1206.00 214.00 
C 1196.37 212.01 1192.22 201.41 1184.75 196.25 C 1177.28 191.09 1165.20 188.32 1157.00 187.00
C 1159.56 192.91 1171.71 192.98 1170.00 200.00
C 1179.01 201.92 1187.00 205.85 1193.25 213.75 C 1199.50 221.65 1212.49 227.05 1210.93 213.07 C 1209.36 199.10 1202.06 200.13 1192.00 195.00
C 1195.53 201.98 1203.38 206.63 1206.00 214.00 Z"/>
</g>
<g fill="#F782DB" fill-opacity="0.31" stroke="None">
<path d="
M 1208.00 194.00 
C 1204.85 193.45 1202.21 191.31 1199.00 191.00
C 1199.51 194.14 1205.63 196.35 1208.00 194.00 Z"/>
</g>
<g fill="#FF7FDA" fill-opacity="0.56" stroke="None">
<path d="
M 1223.00 214.00 
C 1224.07 214.44 1226.07 214.02 1226.00 214.00
C 1222.03 208.08 1216.36 201.95 1209.00 201.00
C 1211.87 206.07 1218.41 210.00 1223.00 214.00 Z"/>
</g>
<g fill="#ED90CC" fill-opacity="0.20" stroke="None">
<path d="
M 1226.00 214.00 
C 1226.07 214.02 1224.07 214.44 1223.00 214.00
C 1225.10 216.56 1227.60 220.32 1231.00 221.00
C 1230.03 218.28 1227.69 216.12 1226.00 214.00 Z"/>
</g>
<g fill="#F5B0DD" fill-opacity="0.15" stroke="None">
<path d="
M 1246.00 236.00 
C 1244.88 229.12 1239.13 234.91 1246.00 236.00 Z"/>
</g>
<g fill="#EE81CD" fill-opacity="0.23" stroke="None">
<path d="
M 1226.00 243.00 
C 1226.17 238.11 1220.29 236.41 1217.00 234.00
C 1217.94 238.27 1222.70 240.63 1226.00 243.00 Z"/>
</g>
<g fill="#FC81EE" fill-opacity="0.14" stroke="None">
<path d="
M 1255.00 244.00 
C 1254.37 240.96 1251.01 237.70 1248.00 237.00
C 1248.63 240.04 1251.99 243.30 1255.00 244.00 Z"/>
</g>
<g fill="#FC7ADA" fill-opacity="0.65" stroke="None">
<path d="
M 1265.00 254.00 
C 1261.06 246.08 1250.01 243.81 1242.00 242.00
C 1244.31 249.26 1252.17 254.61 1259.00 257.00
C 1255.40 251.89 1261.69 252.51 1265.00 254.00 Z"/>
</g>
<g fill="#FF8DE3" fill-opacity="0.25" stroke="None">
<path d="
M 1293.00 272.00 
C 1293.01 271.22 1294.22 270.86 1294.00 270.00
C 1291.68 269.29 1290.75 265.73 1288.00 266.00
C 1288.36 268.93 1291.36 270.05 1293.00 272.00 Z"/>
</g>
<g fill="#FD7FDE" fill-opacity="0.39" stroke="None">
<path d="
M 1292.00 284.00 
C 1290.61 278.19 1283.97 272.92 1279.00 270.00
C 1281.83 275.54 1287.35 279.81 1292.00 284.00 Z"/>
</g>
<g fill="#FF82DC" fill-opacity="0.60" stroke="None">
<path d="
M 1293.00 272.00 
C 1296.55 276.77 1299.04 283.84 1305.00 286.00
C 1305.32 278.85 1299.04 274.30 1294.00 270.00
C 1294.22 270.86 1293.01 271.22 1293.00 272.00 Z"/>
</g>
<g fill="#FD7DDC" fill-opacity="0.76" stroke="None">
<path d="
M 231.00 288.00 
C 218.32 281.73 215.06 295.93 219.00 305.00
C 220.54 298.04 226.68 293.53 231.00 288.00 Z"/>
</g>
<g fill="#F786DB" fill-opacity="0.40" stroke="None">
<path d="
M 1299.00 309.00 
C 1296.55 302.69 1290.52 297.91 1285.00 294.00
C 1286.69 300.15 1293.72 305.74 1299.00 309.00 Z"/>
</g>
<g fill="#FAA9DB" fill-opacity="0.14" stroke="None">
<path d="
M 1309.00 303.00 
C 1308.94 300.61 1306.33 298.14 1304.00 298.00
C 1304.06 300.39 1306.67 302.86 1309.00 303.00 Z"/>
</g>
<g fill="#FF81DF" fill-opacity="0.29" stroke="None">
<path d="
M 1334.00 330.00 
C 1331.78 332.44 1334.03 337.57 1337.00 339.00
C 1336.91 335.71 1335.46 332.86 1334.00 330.00 Z"/>
</g>
<g fill="#FF88E3" fill-opacity="0.30" stroke="None">
<path d="
M 1348.00 364.00 
C 1348.52 359.92 1343.54 358.06 1342.00 355.00
C 1342.20 358.52 1344.48 363.21 1348.00 364.00 Z"/>
</g>
<g fill="#FD84DA" fill-opacity="0.52" stroke="None">
<path d="
M 1338.00 361.00 
C 1334.85 367.49 1338.61 376.27 1345.00 380.00
C 1343.89 373.27 1340.56 367.27 1338.00 361.00 Z"/>
</g>
<g fill="#FF97E4" fill-opacity="0.32" stroke="None">
<path d="
M 1364.00 373.00 
C 1360.92 375.72 1364.91 379.26 1366.00 382.00
C 1368.26 379.60 1364.97 375.71 1364.00 373.00 Z"/>
</g>
<g fill="#FF8EE3" fill-opacity="0.40" stroke="None">
<path d="
M 1349.00 390.00 
C 1351.60 387.90 1348.54 383.80 1347.00 382.00
C 1344.65 383.98 1346.42 388.78 1349.00 390.00 Z"/>
</g>
<g fill="#F981DE" fill-opacity="0.55" stroke="None">
<path d="
M 1366.00 397.00 
C 1364.48 393.76 1361.66 389.85 1358.00 389.00
C 1357.13 394.49 1360.14 400.16 1366.00 397.00 Z"/>
</g>
<g fill="#FD88D5" fill-opacity="0.20" stroke="None">
<path d="
M 118.00 450.00 
C 120.81 449.69 123.26 444.06 121.00 442.00
C 119.64 444.55 118.52 447.20 118.00 450.00 Z"/>
</g>
<g fill="#FF7BDD" fill-opacity="0.55" stroke="None">
<path d="
M 1409.00 458.00 
C 1410.85 453.58 1407.49 446.46 1404.00 443.00
C 1400.88 447.96 1406.02 453.86 1409.00 458.00 Z"/>
</g>
<g fill="#FB80DD" fill-opacity="0.49" stroke="None">
<path d="
M 1415.00 489.00 
C 1417.24 485.70 1414.68 479.54 1412.00 477.00
C 1408.01 480.76 1413.10 485.31 1415.00 489.00 Z"/>
</g>
<g fill="#F77EDD" fill-opacity="0.21" stroke="None">
<path d="
M 1422.00 542.00 
C 1419.73 545.23 1421.75 551.15 1424.00 554.00
C 1424.90 549.58 1422.19 546.11 1422.00 542.00 Z"/>
</g>
<g fill="#FA8CDE" fill-opacity="0.33" stroke="None">
<path d="
M 1437.00 579.00 
C 1437.37 579.22 1438.83 578.76 1439.00 579.00
C 1435.04 569.17 1432.67 558.91 1429.00 549.00
C 1427.19 558.66 1434.42 569.63 1437.00 579.00 Z"/>
</g>
<g fill="#FF8FE0" fill-opacity="0.52" stroke="None">
<path d="
M 1439.00 579.00 
C 1438.83 578.76 1437.37 579.22 1437.00 579.00
C 1440.45 587.20 1437.40 600.41 1446.00 605.00
C 1444.50 596.13 1441.89 587.45 1439.00 579.00 Z"/>
</g>
<g fill="#FCD5F0" fill-opacity="1.00" stroke="None">
<path d="
M 61.00 585.00 
C 58.80 586.85 57.95 591.97 59.00 594.00
C 60.13 591.12 61.03 588.17 61.00 585.00 Z"/>
</g>
<g fill="#FF83DA" fill-opacity="0.63" stroke="None">
<path d="
M 1464.00 759.00 
C 1461.73 761.68 1463.62 766.50 1463.00 770.00
C 1470.28 769.60 1464.92 762.71 1464.00 759.00 Z"/>
</g>
<g fill="#FCC7F1" fill-opacity="0.04" stroke="None">
<path d="
M 23.00 786.00 
C 23.45 781.36 24.00 775.39 24.00 770.00
C 23.55 774.64 23.00 780.61 23.00 786.00 Z"/>
</g>
<g fill="#FEB0E6" fill-opacity="0.11" stroke="None">
<path d="
M 1460.00 825.00 
C 1460.00 819.33 1460.00 813.67 1460.00 808.00
C 1459.49 813.28 1459.48 819.65 1460.00 825.00 Z"/>
</g>
<g fill="#FBB8E4" fill-opacity="0.26" stroke="None">
<path d="
M 25.00 837.00 
C 24.90 832.22 24.59 827.14 24.00 823.00
C 24.18 827.73 24.51 832.91 25.00 837.00 Z"/>
</g>
<g fill="#FE98E2" fill-opacity="0.20" stroke="None">
<path d="
M 32.00 866.00 
C 32.34 862.48 32.59 858.65 32.00 855.00
C 32.20 858.64 32.00 862.35 32.00 866.00 Z"/>
</g>
<g fill="#FF95E2" fill-opacity="0.30" stroke="None">
<path d="
M 67.00 916.00 
C 65.90 911.93 66.44 904.20 67.00 900.00
C 65.85 904.43 65.07 911.52 67.00 916.00 Z"/>
</g>
<g fill="#FE98E2" fill-opacity="0.18" stroke="None">
<path d="
M 38.00 915.00 
C 38.81 910.78 39.12 906.32 38.00 902.00
C 38.52 906.01 38.32 910.96 38.00 915.00 Z"/>
</g>
<g fill="#FE7EDC" fill-opacity="0.44" stroke="None">
<path d="
M 86.00 946.00 
C 81.62 946.61 85.29 952.31 85.00 955.00
C 87.22 952.98 85.41 948.84 86.00 946.00 Z"/>
</g>
<g fill="#FE83DF" fill-opacity="0.67" stroke="None">
<path d="
M 95.00 972.00 
C 94.68 977.46 90.92 987.48 91.08 992.92 C 91.25 998.36 101.37 1001.51 100.00 1008.00
C 103.00 996.27 96.60 983.76 95.00 972.00 Z"/>
</g>
<g fill="#D88FC5" fill-opacity="0.13" stroke="None">
<path d="
M 218.00 1203.00 
C 217.61 1200.38 219.92 1201.58 217.00 1198.00
C 217.98 1200.60 216.76 1200.15 218.00 1203.00 Z"/>
</g>
<g fill="#F38BD7" fill-opacity="0.38" stroke="None">
<path d="
M 237.00 1216.00 
C 237.34 1208.31 227.71 1208.88 224.00 1205.00
C 226.18 1209.98 232.56 1213.14 237.00 1216.00 Z"/>
</g>
<g fill="#000000" fill-opacity="0.00" stroke="None">
<path d="
M 219.00 1208.00 
C 218.11 1207.92 217.48 1209.65 218.87 1209.92 C 220.25 1210.19 219.58 1208.05 219.00 1208.00 Z"/>
</g>
<g fill="#EF89D6" fill-opacity="0.33" stroke="None">
<path d="
M 266.00 1245.00 
C 266.48 1240.35 261.01 1239.06 258.00 1237.00
C 258.94 1240.37 262.66 1244.00 266.00 1245.00 Z"/>
</g>
<g fill="#F4D8E9" fill-opacity="0.11" stroke="None">
<path d="
M 220.00 1264.00 
C 216.95 1259.89 213.78 1256.63 210.00 1253.00
C 213.26 1256.67 216.74 1260.50 220.00 1264.00 Z"/>
</g>
<g fill="#FC7ADB" fill-opacity="0.44" stroke="None">
<path d="
M 359.00 1324.00 
C 357.01 1323.24 355.33 1321.56 353.00 1322.00
C 352.72 1324.68 357.66 1326.09 359.00 1324.00 Z"/>
</g>
<g fill="#FF88DE" fill-opacity="0.58" stroke="None">
<path d="
M 982.00 1412.00 
C 982.38 1411.24 981.54 1409.71 982.00 1409.00
C 975.12 1415.68 959.78 1409.28 957.00 1419.00
C 965.98 1419.26 974.03 1414.01 982.00 1412.00 Z"/>
</g>
<g fill="#FAD4ED" fill-opacity="0.07" stroke="None">
<path d="
M 942.00 1428.00 
C 946.50 1428.00 951.15 1427.62 955.00 1427.00
C 950.69 1427.23 945.67 1427.64 942.00 1428.00 Z"/>
</g>
<g fill="#FF8BE0" fill-opacity="0.43" stroke="None">
<path d="
M 857.00 1440.00 
C 846.74 1438.85 834.67 1443.05 824.00 1445.00
C 834.47 1447.01 846.63 1443.09 857.00 1440.00 Z"/>
</g>
<g fill="#FE90E2" fill-opacity="0.22" stroke="None">
<path d="
M 768.00 1448.00 
C 769.19 1448.15 770.51 1447.40 770.00 1446.00
C 765.00 1445.86 759.99 1446.19 755.00 1446.00
C 757.81 1446.40 765.25 1448.44 768.00 1448.00 Z"/>
</g>
<g fill="#FD93E1" fill-opacity="0.31" stroke="None">
<path d="
M 822.00 1451.00 
C 821.42 1451.69 821.97 1453.25 821.00 1454.00
C 823.55 1452.64 826.20 1451.52 829.00 1451.00
C 827.59 1448.39 823.53 1450.75 822.00 1451.00 Z"/>
</g>
<g fill="#FAE5F4" fill-opacity="0.10" stroke="None">
<path d="
M 829.00 1455.00 
C 827.43 1455.11 820.06 1455.97 819.00 1455.00
C 815.06 1457.24 827.31 1455.30 829.00 1455.00 Z"/>
</g>
</svg>