<svg xmlns="http://www.w3.org/2000/svg" xmlns:xlink="http://www.w3.org/1999/xlink" width="180" zoomAndPan="magnify" viewBox="0 0 135 30.000001" height="40" preserveAspectRatio="xMidYMid meet" version="1.0"><path fill="#000000" d="M 56.871094 4.441406 C 56.578125 4.453125 56.28125 4.460938 55.988281 4.480469 C 55.859375 4.488281 55.730469 4.496094 55.601562 4.503906 C 56.234375 4.472656 56.871094 4.441406 57.507812 4.414062 C 57.296875 4.421875 57.082031 4.429688 56.871094 4.441406 Z M 106.046875 7.535156 C 111.480469 8.78125 116.925781 10.175781 122.054688 12.421875 C 120.515625 10.042969 107.71875 7.839844 104.429688 7.21875 C 104.96875 7.324219 105.507812 7.429688 106.046875 7.535156 Z M 124.636719 13.6875 C 126.730469 14.929688 129.90625 16.742188 129.179688 19.644531 C 131.546875 16.035156 125.257812 13.238281 122.703125 12.066406 C 122.765625 12.273438 122.679688 12.5 122.511719 12.628906 C 123.230469 12.957031 123.941406 13.304688 124.636719 13.6875 Z M 20.53125 22.550781 C 6.074219 16.554688 20.5625 10.117188 28.367188 8.1875 C 25.667969 8.648438 22.957031 9.105469 20.269531 9.585938 C 30.125 7.347656 40.089844 5.339844 50.15625 4.390625 C 61.941406 3.402344 73.800781 3.457031 85.574219 4.558594 C 95.78125 5.441406 106.050781 6.347656 115.960938 9.113281 C 106.6875 5.722656 96.910156 3.890625 87.15625 2.578125 C 73.894531 0.785156 60.480469 0.558594 47.148438 1.632812 C 36.144531 2.941406 24.90625 4.398438 14.644531 8.820312 C -0.773438 15.695312 10.578125 20.300781 20.53125 22.550781 Z M 68.203125 27.320312 C 81.804688 27.574219 95.445312 27.363281 108.992188 26.011719 C 115.441406 25.230469 122.238281 24.449219 127.875 20.972656 C 132.785156 14.535156 111.53125 9.453125 107.5 8.480469 C 91.632812 4.71875 75.214844 4.273438 58.984375 4.835938 C 47.382812 5.410156 25.539062 6.582031 16.550781 13.949219 C 11.738281 18.351562 19.589844 21.667969 23.117188 22.84375 C 25.671875 23.847656 28.460938 23.921875 31.136719 24.429688 C 33.398438 24.796875 35.664062 25.148438 37.949219 25.347656 C 47.996094 26.503906 58.09375 27.117188 68.203125 27.320312 Z M 64.8125 28.359375 C 75.265625 28.511719 85.734375 28.328125 96.15625 27.453125 C 74.167969 28.410156 52 28.085938 30.199219 24.855469 C 41.550781 27.402344 53.21875 28.035156 64.8125 28.359375 Z M 73.785156 28.917969 C 56.542969 29.007812 39.140625 28.207031 22.449219 23.566406 C 17.964844 22.566406 13.316406 21.613281 9.308594 19.265625 C 7.796875 18.449219 6.265625 17.140625 6.496094 15.230469 C 6.902344 10.644531 17.722656 7.078125 21.585938 5.859375 C 32.46875 2.679688 43.796875 1.242188 55.085938 0.664062 C 68.597656 0 82.199219 0.953125 95.523438 3.296875 C 103.546875 4.707031 111.601562 6.484375 119.121094 9.707031 C 122.785156 11.796875 128.484375 12.871094 130.296875 17.070312 C 130.804688 18.878906 129.242188 20.386719 127.996094 21.441406 C 124.382812 24.675781 116.4375 25.445312 111.65625 26.25 C 99.109375 27.996094 86.445312 28.800781 73.785156 28.917969 Z M 73.785156 28.917969 " fill-opacity="1" fill-rule="nonzero"/></svg>