<svg xmlns="http://www.w3.org/2000/svg" width="468" height="488">
  <path fill="none" d="M0 488h468V0H0v488m462-193 1 10c0 35 2 76-12 107s-40 40-71 49c-32 8-67 14-101 19s-80 2-116 2l-8-1c-52 0-103-22-120-75C19 353 6 297 6 239l1-10c0-32 7-62 9-93l1-12c0-37 1-78 38-96 37-17 72-21 113-18h18l9-1 42-2 11-1c36 0 84-2 117 8s52 29 65 61 16 70 20 106c4 35 12 77 12 114Z"/>
  <path fill="none" stroke="#FEABE8" stroke-opacity=".1" stroke-width=".3" d="m237 7 11-1-11 1Z"/>
  <path fill="none" stroke="#FE76DB" stroke-width=".3" d="m237 7-42 2-9 1h-18c-41-3-76 1-113 18-37 18-38 59-38 96l-1 12c-2 31-9 61-9 93l-1 10c0 58 13 114 29 167 17 53 68 75 120 75l8 1c36 0 82 3 116-2s69-11 101-19c31-9 57-18 71-49s12-72 12-107l-1-10c0-37-8-79-12-114-4-36-7-74-20-106a96 96 0 0 0-65-61c-33-10-81-8-117-8l-11 1m-30 23 8-1h11l10-1h12l10-1 48 1c35 0 77 7 96 40 20 33 23 70 27 109s13 84 13 124l1 15v39l-1 9c-1 18-5 37-16 52-3 4-7 8-11 10-23 14-47 19-73 24s-57 12-85 12l-11 1h-4l-8 1h-51l-7-1-7-1h-8c-28 0-57-6-79-22l-10-10c-16-23-23-48-29-76s-15-60-15-90v-37c0-40 9-77 9-118l1-22c1-10 3-20 9-28l10-11 20-10 23-8c8-1 18-6 26-5s12 10 22 8 20 0 30-1l29-2Z"/>
  <path fill="none" stroke="#FFB5EA" stroke-opacity=".1" stroke-width=".3" d="m186 10 9-1-9 1Z"/>
  <path fill="none" stroke="#FE9CE3" stroke-opacity=".3" stroke-width=".3" d="M179 10h-11 11Z"/>
  <path fill="none" d="M57 48 47 59c-6 8-8 18-9 28l-1 22c0 41-9 78-9 118v37c0 30 9 62 15 90s13 53 29 76l10 10c22 16 51 22 79 22h8l7 1h70l11-1c28 0 59-7 85-12s50-10 73-24l11-10c11-15 15-34 16-52l1-9v-39l-1-15c0-40-9-85-13-124s-7-76-27-109c-19-33-61-40-96-40h-70l-10 1h-11l-8 1-29 2c-10 1-20-1-30 1s-14-7-22-8-18 4-26 5l-23 8-20 10m312 36c27 6 17 59-12 52s-14-57 12-52m-85 55a120 120 0 0 1 54 68c5 15 6 39 5 56-2 16-8 31-17 44-9 14-17 22-31 30a125 125 0 0 1-101 9c-15-5-26-12-37-24s-17-23-23-38c-7-15-10-34-10-51s1-39 7-54a91 91 0 0 1 63-59c15-5 41-7 56-5s39 7 34 24Z"/>
  <path fill="none" stroke="#FF9AE2" stroke-opacity=".3" stroke-width=".3" d="M248 28h10v-1l-10 1Z"/>
  <path fill="none" stroke="#FDB0E9" stroke-opacity=".1" stroke-width=".3" d="M258 28h48l-48-1v1Z"/>
  <path fill="none" stroke="#FFB9EC" stroke-opacity=".1" stroke-width=".3" d="m226 29 10-1-10 1Z"/>
  <path fill="none" stroke="#FFA0E5" stroke-opacity=".1" stroke-width=".3" d="m207 30 8-1-8 1Z"/>
  <path fill="none" stroke="#FFB6EB" stroke-opacity=".2" stroke-width=".3" d="m47 59 10-11-10 11Z"/>
  <path fill="none" stroke="#FF77DC" stroke-width=".3" d="M369 84c-26-5-41 45-12 52s39-46 12-52m-5 25c1 2 2 6 0 7h-4c0-4 0-7 2-10l2 3Z"/>
  <path fill="none" stroke="#FCF2F9" stroke-opacity=".1" stroke-width=".3" d="m37 109 1-22-1 22Z"/>
  <path fill="none" d="M364 116v-7l-2-3c-2 3-2 6-2 10h4Z"/>
  <path fill="none" stroke="#FEC8EB" stroke-opacity=".1" stroke-width=".3" d="M364 116c2-1 1-5 0-7v7Z"/>
  <path fill="none" stroke="#FF77DC" stroke-width=".3" d="M284 139c5-17-19-22-34-24s-41 0-56 5-27 11-39 22a91 91 0 0 0-24 37c-6 15-7 37-7 54s3 36 10 51c6 15 12 26 23 38s22 19 37 24 38 8 55 6c16-2 32-7 46-15s22-16 31-30c9-13 15-28 17-44 1-17 0-41-5-56a120 120 0 0 0-54-68m-37-9 14 2c-14 16 6 23 18 30s21 17 28 30a108 108 0 0 1 14 64c-2 41-37 71-77 73h-19c-50-3-78-48-79-95l-1-11v-2l1-11c2-47 39-77 84-80h17Z"/>
  <path fill="none" stroke="#FFE6F7" stroke-opacity=".1" stroke-width=".3" d="M16 136Z"/>
  <path fill="none" stroke="#FDA4E3" stroke-opacity=".1" stroke-width=".3" d="M230 130Z"/>
  <path fill="none" d="m146 210-1 11v2l1 11c1 47 29 92 79 95h19c40-2 75-32 77-73v-20c-1-15-7-32-14-44-7-13-16-23-28-30s-32-14-18-30l-14-2h-17c-45 3-82 33-84 80Z"/>
  <path fill="none" stroke="#FFEBF7" stroke-opacity=".1" stroke-width=".3" d="m145 221 1-11-1 11Z"/>
  <path fill="none" d="m146 234-1-11 1 11Z"/>
  <path fill="none" stroke="#FDC2EA" stroke-opacity=".1" stroke-width=".3" d="M28 264v-37 37Z"/>
  <path fill="none" d="m6 239 1-10-1 10Z"/>
  <path fill="none" stroke="#FED1F5" stroke-opacity=".1" stroke-width=".3" d="M321 256v-20 20Z"/>
  <path fill="none" stroke="#FFA5EC" stroke-opacity=".1" stroke-width=".3" d="m463 305-1-10 1 10Z"/>
  <path fill="none" stroke="#FFD0EB" stroke-opacity=".1" stroke-width=".3" d="m443 316-1-15 1 15Z"/>
  <path fill="none" stroke="#FED5F7" stroke-opacity=".1" stroke-width=".3" d="M244 329Z"/>
  <path fill="none" stroke="#FEBCF2" stroke-opacity=".1" stroke-width=".3" d="m442 364 1-9-1 9Z"/>
  <path fill="none" stroke="#FFC3F3" stroke-opacity=".1" stroke-width=".3" d="M415 426c4-2 8-6 11-10l-11 10Z"/>
  <path fill="none" stroke="#FCBCED" stroke-opacity=".1" stroke-width=".3" d="M82 440Z"/>
  <path fill="none" stroke="#FBB0E4" stroke-opacity=".1" stroke-width=".3" d="M169 462h-8 8Z"/>
  <path fill="none" stroke="#FCDCF1" stroke-opacity=".1" stroke-width=".3" d="m246 463 11-1-11 1Z"/>
  <path fill="none" stroke="#FEA2E5" stroke-opacity=".7" stroke-width=".3" d="M183 464v-1h-7l7 1Z"/>
  <path fill="none" stroke="#FCCFEE" stroke-opacity=".4" stroke-width=".3" d="M183 464h13v-1h-13v1Z"/>
  <path fill="none" stroke="#F7F7F7" stroke-opacity=".3" stroke-width=".3" d="M196 464h29v-1h-29v1Z"/>
  <path fill="none" stroke="#FBD8F0" stroke-opacity=".4" stroke-width=".3" d="M225 464h9v-1h-9v1Z"/>
  <path fill="none" stroke="#FDB3E9" stroke-opacity=".6" stroke-width=".3" d="m234 464 8-1h-8v1Z"/>
  <path fill="none" stroke="#FFA1E9" stroke-opacity=".1" stroke-width=".3" d="m163 482-8-1 8 1Z"/>
  <path fill="none" stroke="None" d="M0 488h468V0H0v488m462-193 1 10c0 35 2 76-12 107s-40 40-71 49c-32 8-67 14-101 19s-80 2-116 2l-8-1c-52 0-103-22-120-75C19 353 6 297 6 239l1-10c0-32 7-62 9-93l1-12c0-37 1-78 38-96 37-17 72-21 113-18h18l9-1 42-2 11-1c36 0 84-2 117 8s52 29 65 61 16 70 20 106c4 35 12 77 12 114Z"/>
  <path fill="#FEABE8" fill-opacity=".1" stroke="None" d="m237 7 11-1-11 1Z"/>
  <path fill="#FE76DB" stroke="None" d="m237 7-42 2-9 1h-18c-41-3-76 1-113 18-37 18-38 59-38 96l-1 12c-2 31-9 61-9 93l-1 10c0 58 13 114 29 167 17 53 68 75 120 75l8 1c36 0 82 3 116-2s69-11 101-19c31-9 57-18 71-49s12-72 12-107l-1-10c0-37-8-79-12-114-4-36-7-74-20-106a96 96 0 0 0-65-61c-33-10-81-8-117-8l-11 1m-30 23 8-1h11l10-1h12l10-1 48 1c35 0 77 7 96 40 20 33 23 70 27 109s13 84 13 124l1 15v39l-1 9c-1 18-5 37-16 52-3 4-7 8-11 10-23 14-47 19-73 24s-57 12-85 12l-11 1h-4l-8 1h-51l-7-1-7-1h-8c-28 0-57-6-79-22l-10-10c-16-23-23-48-29-76s-15-60-15-90v-37c0-40 9-77 9-118l1-22c1-10 3-20 9-28l10-11 20-10 23-8c8-1 18-6 26-5s12 10 22 8 20 0 30-1l29-2Z"/>
  <path fill="#FFB5EA" fill-opacity=".1" stroke="None" d="m186 10 9-1-9 1Z"/>
  <path fill="#FE9CE3" fill-opacity=".3" stroke="None" d="M179 10h-11 11Z"/>
  <path fill="none" stroke="None" d="M57 48 47 59c-6 8-8 18-9 28l-1 22c0 41-9 78-9 118v37c0 30 9 62 15 90s13 53 29 76l10 10c22 16 51 22 79 22h8l7 1h70l11-1c28 0 59-7 85-12s50-10 73-24l11-10c11-15 15-34 16-52l1-9v-39l-1-15c0-40-9-85-13-124s-7-76-27-109c-19-33-61-40-96-40h-70l-10 1h-11l-8 1-29 2c-10 1-20-1-30 1s-14-7-22-8-18 4-26 5l-23 8-20 10m312 36c27 6 17 59-12 52s-14-57 12-52m-85 55a120 120 0 0 1 54 68c5 15 6 39 5 56-2 16-8 31-17 44-9 14-17 22-31 30a125 125 0 0 1-101 9c-15-5-26-12-37-24s-17-23-23-38c-7-15-10-34-10-51s1-39 7-54a91 91 0 0 1 63-59c15-5 41-7 56-5s39 7 34 24Z"/>
  <path fill="#FF9AE2" fill-opacity=".3" stroke="None" d="M248 28h10v-1l-10 1Z"/>
  <path fill="#FDB0E9" fill-opacity=".1" stroke="None" d="M258 28h48l-48-1v1Z"/>
  <path fill="#FFB9EC" fill-opacity=".1" stroke="None" d="m226 29 10-1-10 1Z"/>
  <path fill="#FFA0E5" fill-opacity=".1" stroke="None" d="m207 30 8-1-8 1Z"/>
  <path fill="#FFB6EB" fill-opacity=".2" stroke="None" d="m47 59 10-11-10 11Z"/>
  <path fill="#FF77DC" stroke="None" d="M369 84c-26-5-41 45-12 52s39-46 12-52m-5 25c1 2 2 6 0 7h-4c0-4 0-7 2-10l2 3Z"/>
  <path fill="#FCF2F9" fill-opacity=".1" stroke="None" d="m37 109 1-22-1 22Z"/>
  <path fill="none" stroke="None" d="M364 116v-7l-2-3c-2 3-2 6-2 10h4Z"/>
  <path fill="#FEC8EB" fill-opacity=".1" stroke="None" d="M364 116c2-1 1-5 0-7v7Z"/>
  <path fill="#FF77DC" stroke="None" d="M284 139c5-17-19-22-34-24s-41 0-56 5-27 11-39 22a91 91 0 0 0-24 37c-6 15-7 37-7 54s3 36 10 51c6 15 12 26 23 38s22 19 37 24 38 8 55 6c16-2 32-7 46-15s22-16 31-30c9-13 15-28 17-44 1-17 0-41-5-56a120 120 0 0 0-54-68m-37-9 14 2c-14 16 6 23 18 30s21 17 28 30a108 108 0 0 1 14 64c-2 41-37 71-77 73h-19c-50-3-78-48-79-95l-1-11v-2l1-11c2-47 39-77 84-80h17Z"/>
  <path fill="#FFE6F7" fill-opacity=".1" stroke="None" d="M16 136Z"/>
  <path fill="#FDA4E3" fill-opacity=".1" stroke="None" d="M230 130Z"/>
  <path fill="none" stroke="None" d="m146 210-1 11v2l1 11c1 47 29 92 79 95h19c40-2 75-32 77-73v-20c-1-15-7-32-14-44-7-13-16-23-28-30s-32-14-18-30l-14-2h-17c-45 3-82 33-84 80Z"/>
  <path fill="#FFEBF7" fill-opacity=".1" stroke="None" d="m145 221 1-11-1 11Z"/>
  <path fill="none" stroke="None" d="m146 234-1-11 1 11Z"/>
  <path fill="#FDC2EA" fill-opacity=".1" stroke="None" d="M28 264v-37 37Z"/>
  <path fill="none" stroke="None" d="m6 239 1-10-1 10Z"/>
  <path fill="#FED1F5" fill-opacity=".1" stroke="None" d="M321 256v-20 20Z"/>
  <path fill="#FFA5EC" fill-opacity=".1" stroke="None" d="m463 305-1-10 1 10Z"/>
  <path fill="#FFD0EB" fill-opacity=".1" stroke="None" d="m443 316-1-15 1 15Z"/>
  <path fill="#FED5F7" fill-opacity=".1" stroke="None" d="M244 329Z"/>
  <path fill="#FEBCF2" fill-opacity=".1" stroke="None" d="m442 364 1-9-1 9Z"/>
  <path fill="#FFC3F3" fill-opacity=".1" stroke="None" d="M415 426c4-2 8-6 11-10l-11 10Z"/>
  <path fill="#FCBCED" fill-opacity=".1" stroke="None" d="M82 440Z"/>
  <path fill="#FBB0E4" fill-opacity=".1" stroke="None" d="M169 462h-8 8Z"/>
  <path fill="#FCDCF1" fill-opacity=".1" stroke="None" d="m246 463 11-1-11 1Z"/>
  <path fill="#FEA2E5" fill-opacity=".7" stroke="None" d="M183 464v-1h-7l7 1Z"/>
  <path fill="#FCCFEE" fill-opacity=".4" stroke="None" d="M183 464h13v-1h-13v1Z"/>
  <path fill="#F7F7F7" fill-opacity=".3" stroke="None" d="M196 464h29v-1h-29v1Z"/>
  <path fill="#FBD8F0" fill-opacity=".4" stroke="None" d="M225 464h9v-1h-9v1Z"/>
  <path fill="#FDB3E9" fill-opacity=".6" stroke="None" d="m234 464 8-1h-8v1Z"/>
  <path fill="#FFA1E9" fill-opacity=".1" stroke="None" d="m163 482-8-1 8 1Z"/>
</svg>
