<svg xmlns="http://www.w3.org/2000/svg" xmlns:xlink="http://www.w3.org/1999/xlink" width="50" zoomAndPan="magnify" viewBox="0 0 37.5 37.499999" height="50" preserveAspectRatio="xMidYMid meet" version="1.0"><defs><clipPath id="9688496472"><path d="M 0 0 L 37 0 L 37 37.007812 L 0 37.007812 Z M 0 0 " clip-rule="nonzero"/></clipPath></defs><path fill="#545454" d="M 5.859375 21.421875 L 8.785156 21.421875 C 9.191406 21.421875 9.519531 21.09375 9.519531 20.6875 L 9.519531 17.765625 C 9.519531 17.359375 9.191406 17.03125 8.785156 17.03125 L 5.859375 17.03125 C 5.457031 17.03125 5.128906 17.359375 5.128906 17.765625 L 5.128906 20.6875 C 5.128906 21.09375 5.457031 21.421875 5.859375 21.421875 Z M 5.859375 21.421875 " fill-opacity="1" fill-rule="nonzero"/><path fill="#545454" d="M 5.859375 27.464844 L 8.785156 27.464844 C 9.191406 27.464844 9.519531 27.136719 9.519531 26.730469 L 9.519531 23.808594 C 9.519531 23.402344 9.191406 23.074219 8.785156 23.074219 L 5.859375 23.074219 C 5.457031 23.074219 5.128906 23.402344 5.128906 23.808594 L 5.128906 26.730469 C 5.128906 27.136719 5.457031 27.464844 5.859375 27.464844 Z M 5.859375 27.464844 " fill-opacity="1" fill-rule="nonzero"/><path fill="#545454" d="M 5.859375 33.511719 L 8.785156 33.511719 C 9.191406 33.511719 9.519531 33.183594 9.519531 32.777344 L 9.519531 29.851562 C 9.519531 29.449219 9.191406 29.117188 8.785156 29.117188 L 5.859375 29.117188 C 5.457031 29.117188 5.128906 29.449219 5.128906 29.851562 L 5.128906 32.777344 C 5.128906 33.183594 5.457031 33.511719 5.859375 33.511719 Z M 5.859375 33.511719 " fill-opacity="1" fill-rule="nonzero"/><path fill="#545454" d="M 13.234375 21.421875 L 16.15625 21.421875 C 16.5625 21.421875 16.890625 21.09375 16.890625 20.6875 L 16.890625 17.765625 C 16.890625 17.359375 16.5625 17.03125 16.15625 17.03125 L 13.234375 17.03125 C 12.828125 17.03125 12.5 17.359375 12.5 17.765625 L 12.5 20.6875 C 12.5 21.09375 12.828125 21.421875 13.234375 21.421875 Z M 13.234375 21.421875 " fill-opacity="1" fill-rule="nonzero"/><path fill="#545454" d="M 13.234375 27.464844 L 16.15625 27.464844 C 16.5625 27.464844 16.890625 27.136719 16.890625 26.730469 L 16.890625 23.808594 C 16.890625 23.402344 16.5625 23.074219 16.15625 23.074219 L 13.234375 23.074219 C 12.828125 23.074219 12.5 23.402344 12.5 23.808594 L 12.5 26.730469 C 12.5 27.136719 12.828125 27.464844 13.234375 27.464844 Z M 13.234375 27.464844 " fill-opacity="1" fill-rule="nonzero"/><path fill="#545454" d="M 13.234375 33.511719 L 16.15625 33.511719 C 16.5625 33.511719 16.890625 33.183594 16.890625 32.777344 L 16.890625 29.851562 C 16.890625 29.449219 16.5625 29.117188 16.15625 29.117188 L 13.234375 29.117188 C 12.828125 29.117188 12.5 29.449219 12.5 29.851562 L 12.5 32.777344 C 12.5 33.183594 12.828125 33.511719 13.234375 33.511719 Z M 13.234375 33.511719 " fill-opacity="1" fill-rule="nonzero"/><path fill="#545454" d="M 20.605469 21.421875 L 23.53125 21.421875 C 23.933594 21.421875 24.265625 21.09375 24.265625 20.6875 L 24.265625 17.765625 C 24.265625 17.359375 23.933594 17.03125 23.53125 17.03125 L 20.605469 17.03125 C 20.199219 17.03125 19.871094 17.359375 19.871094 17.765625 L 19.871094 20.6875 C 19.871094 21.09375 20.199219 21.421875 20.605469 21.421875 Z M 20.605469 21.421875 " fill-opacity="1" fill-rule="nonzero"/><path fill="#545454" d="M 23.53125 29.117188 L 20.605469 29.117188 C 20.199219 29.117188 19.871094 29.449219 19.871094 29.851562 L 19.871094 32.777344 C 19.871094 33.183594 20.199219 33.511719 20.605469 33.511719 L 23.53125 33.511719 C 23.933594 33.511719 24.265625 33.183594 24.265625 32.777344 L 24.265625 29.851562 C 24.265625 29.449219 23.933594 29.117188 23.53125 29.117188 Z M 23.53125 29.117188 " fill-opacity="1" fill-rule="nonzero"/><path fill="#545454" d="M 27.980469 21.421875 L 30.902344 21.421875 C 31.308594 21.421875 31.636719 21.09375 31.636719 20.6875 L 31.636719 17.765625 C 31.636719 17.359375 31.308594 17.03125 30.902344 17.03125 L 27.980469 17.03125 C 27.574219 17.03125 27.246094 17.359375 27.246094 17.765625 L 27.246094 20.6875 C 27.246094 21.09375 27.574219 21.421875 27.980469 21.421875 Z M 27.980469 21.421875 " fill-opacity="1" fill-rule="nonzero"/><path fill="#545454" d="M 27.980469 27.464844 L 30.902344 27.464844 C 31.308594 27.464844 31.636719 27.136719 31.636719 26.730469 L 31.636719 23.808594 C 31.636719 23.402344 31.308594 23.074219 30.902344 23.074219 L 27.980469 23.074219 C 27.574219 23.074219 27.246094 23.402344 27.246094 23.808594 L 27.246094 26.730469 C 27.246094 27.136719 27.574219 27.464844 27.980469 27.464844 Z M 27.980469 27.464844 " fill-opacity="1" fill-rule="nonzero"/><g clip-path="url(#9688496472)"><path fill="#545454" d="M 28.140625 0.00390625 C 27.453125 0.00390625 26.894531 0.5625 26.894531 1.25 L 26.894531 3.753906 L 9.933594 3.753906 L 9.933594 1.25 C 9.933594 0.5625 9.375 0.00390625 8.6875 0.00390625 C 8 0.00390625 7.441406 0.5625 7.441406 1.25 L 7.441406 3.753906 L 3.511719 3.753906 C 1.574219 3.753906 0 5.332031 0 7.265625 L 0 33.492188 C 0 35.429688 1.574219 37.003906 3.511719 37.003906 L 33.253906 37.003906 C 35.1875 37.003906 36.765625 35.429688 36.765625 33.492188 L 36.765625 7.265625 C 36.765625 5.332031 35.1875 3.753906 33.253906 3.753906 L 29.386719 3.753906 L 29.386719 1.25 C 29.386719 0.5625 28.828125 0.00390625 28.140625 0.00390625 Z M 7.441406 5.542969 L 7.441406 7.09375 C 7.441406 7.78125 8 8.339844 8.6875 8.339844 C 9.375 8.339844 9.933594 7.78125 9.933594 7.09375 L 9.933594 5.542969 C 10.386719 5.910156 10.675781 6.464844 10.675781 7.09375 C 10.675781 8.191406 9.785156 9.078125 8.6875 9.078125 C 7.589844 9.078125 6.699219 8.191406 6.699219 7.09375 C 6.699219 6.464844 6.988281 5.910156 7.441406 5.542969 Z M 35.035156 33.492188 C 35.035156 34.476562 34.234375 35.273438 33.253906 35.273438 L 3.511719 35.273438 C 2.527344 35.273438 1.730469 34.476562 1.730469 33.492188 L 1.730469 15.265625 L 35.035156 15.265625 Z M 30.128906 7.09375 C 30.128906 8.191406 29.238281 9.078125 28.140625 9.078125 C 27.042969 9.078125 26.152344 8.191406 26.152344 7.09375 C 26.152344 6.464844 26.441406 5.910156 26.894531 5.542969 L 26.894531 7.09375 C 26.894531 7.78125 27.453125 8.339844 28.140625 8.339844 C 28.828125 8.339844 29.386719 7.78125 29.386719 7.09375 L 29.386719 5.542969 C 29.839844 5.910156 30.128906 6.464844 30.128906 7.09375 Z M 30.128906 7.09375 " fill-opacity="1" fill-rule="nonzero"/></g><path fill="#545454" d="M 21.835938 27.855469 L 25.320312 24.371094 C 25.660156 24.03125 25.660156 23.484375 25.320312 23.148438 C 24.984375 22.808594 24.433594 22.808594 24.097656 23.148438 L 21.835938 25.40625 L 20.929688 24.5 C 20.589844 24.160156 20.042969 24.160156 19.707031 24.5 C 19.367188 24.835938 19.367188 25.386719 19.707031 25.722656 Z M 21.835938 27.855469 " fill-opacity="1" fill-rule="nonzero"/></svg>