<svg xmlns="http://www.w3.org/2000/svg" xmlns:xlink="http://www.w3.org/1999/xlink" width="50" zoomAndPan="magnify" viewBox="0 0 37.5 37.499999" height="50" preserveAspectRatio="xMidYMid meet" version="1.0"><defs><clipPath id="b711e6cffb"><path d="M 1 6 L 37 6 L 37 32.980469 L 1 32.980469 Z M 1 6 " clip-rule="nonzero"/></clipPath><clipPath id="faabc75b31"><path d="M 7 2.636719 L 9 2.636719 L 9 8 L 7 8 Z M 7 2.636719 " clip-rule="nonzero"/></clipPath></defs><path fill="#545454" d="M 18.632812 20.929688 C 19.539062 21.941406 19.667969 23.257812 20.664062 23.265625 C 20.667969 23.265625 20.667969 23.265625 20.671875 23.265625 C 21.222656 23.265625 21.003906 23.125 24.285156 21.046875 C 24.824219 20.683594 25.882812 20.167969 25.953125 19.402344 C 25.96875 19.21875 25.929688 18.941406 25.65625 18.6875 C 25.441406 18.484375 25.117188 18.410156 24.792969 18.488281 C 24.484375 18.558594 24.539062 18.550781 21.378906 20.464844 C 21.113281 20.625 21.101562 20.65625 20.84375 20.207031 C 20.617188 19.8125 20.335938 19.40625 19.917969 19.253906 C 19.5 19.101562 19.007812 19.242188 18.71875 19.589844 C 18.34375 20.042969 18.445312 20.71875 18.632812 20.929688 Z M 18.632812 20.929688 " fill-opacity="1" fill-rule="nonzero"/><path fill="#545454" d="M 16.738281 26.738281 C 17.359375 26.902344 17.375 26.921875 17.46875 26.921875 C 17.644531 26.921875 17.800781 26.808594 17.847656 26.632812 C 17.90625 26.421875 17.785156 26.207031 17.574219 26.148438 L 16.945312 25.976562 C 16.734375 25.917969 16.519531 26.042969 16.460938 26.25 C 16.40625 26.460938 16.527344 26.679688 16.738281 26.738281 Z M 16.738281 26.738281 " fill-opacity="1" fill-rule="nonzero"/><path fill="#545454" d="M 12.523438 25.578125 L 14.90625 26.234375 C 15.113281 26.289062 15.332031 26.171875 15.390625 25.957031 C 15.449219 25.746094 15.324219 25.53125 15.117188 25.472656 L 12.734375 24.820312 C 12.519531 24.757812 12.304688 24.882812 12.25 25.09375 C 12.191406 25.304688 12.316406 25.519531 12.523438 25.578125 Z M 12.523438 25.578125 " fill-opacity="1" fill-rule="nonzero"/><g clip-path="url(#b711e6cffb)"><path fill="#545454" d="M 4.0625 21.773438 C 5.664062 22.972656 7.683594 23.535156 9.828125 23.132812 C 9.433594 23.5625 8.707031 24.316406 8.230469 24.660156 C 7.195312 25.402344 7.503906 26.226562 8.535156 26.617188 C 8.503906 26.980469 8.394531 27.335938 8.238281 27.554688 C 7.828125 28.128906 7.984375 28.746094 8.863281 28.96875 C 13.113281 30.050781 27.160156 32.550781 30.246094 33.164062 C 30.332031 33.21875 30.429688 33.246094 30.539062 33.246094 C 31.011719 33.246094 31.667969 32.785156 32.265625 32.367188 C 32.992188 31.855469 33.773438 31.726562 33.96875 30.75 C 34.707031 27.035156 34.792969 26.992188 35.753906 20.105469 L 36.757812 12.910156 C 36.835938 12.355469 37.042969 10.878906 36.027344 10.222656 C 35.632812 9.96875 34.398438 9.96875 33.878906 10.015625 C 33.742188 9.976562 32.511719 9.863281 31.054688 9.703125 C 30.984375 8.324219 30.332031 7.328125 29.484375 7.328125 C 28.703125 7.328125 28.089844 8.175781 27.941406 9.371094 L 20.503906 8.578125 C 20.355469 7.371094 19.742188 6.519531 18.964844 6.519531 C 18.25 6.519531 17.683594 7.226562 17.476562 8.257812 L 15.128906 8.007812 C 14.734375 7.972656 14.359375 8.085938 14.144531 8.3125 C 13.691406 8.761719 13.863281 9.589844 14.015625 10.316406 C 14.121094 10.8125 14.117188 10.789062 14.140625 11.5 C 12.613281 9.855469 10.550781 9.179688 8.316406 9.269531 C 7.144531 9.320312 6.175781 9.773438 5.199219 10.273438 C 0.855469 12.570312 0.0117188 18.652344 4.0625 21.773438 Z M 8.691406 25.296875 C 9.441406 24.757812 10.59375 23.53125 11.226562 22.71875 C 14.746094 21.308594 16.992188 17.566406 15.570312 13.796875 C 26.433594 14.878906 31.421875 16.09375 32.433594 16.203125 C 31.511719 20.835938 30.878906 23.699219 28.960938 27.328125 L 28.824219 27.589844 C 27.519531 30.089844 26.726562 30.382812 24.269531 29.6875 C 23.9375 29.605469 23.445312 29.398438 19.546875 28.578125 C 15.917969 27.808594 12.429688 26.917969 9.011719 25.945312 C 8.109375 25.6875 8.359375 25.539062 8.691406 25.296875 Z M 9.058594 28.203125 C 8.90625 28.167969 8.835938 28.125 8.816406 28.125 C 8.871094 27.976562 9.1875 27.691406 9.300781 26.84375 C 13.824219 28.113281 16.757812 28.792969 19.386719 29.347656 C 23.296875 30.175781 23.707031 30.359375 24.054688 30.445312 C 26.78125 31.214844 27.980469 30.90625 29.523438 27.953125 L 29.65625 27.699219 C 31.496094 24.21875 32.167969 21.53125 33.023438 17.261719 C 33.226562 18.382812 33.257812 19.5 33.097656 20.566406 C 32.40625 25.121094 31.011719 30.058594 30.410156 31.410156 C 30.25 31.773438 30.125 32.070312 30.054688 32.324219 C 26.355469 31.605469 13.136719 29.242188 9.058594 28.203125 Z M 29.484375 8.117188 C 29.804688 8.117188 30.179688 8.726562 30.253906 9.617188 L 28.730469 9.453125 C 28.839844 8.625 29.210938 8.117188 29.484375 8.117188 Z M 18.964844 7.308594 C 19.246094 7.308594 19.570312 7.777344 19.695312 8.492188 L 18.261719 8.339844 C 18.410156 7.695312 18.726562 7.308594 18.964844 7.308594 Z M 14.707031 8.863281 C 14.878906 8.683594 15.574219 8.886719 17.394531 9.042969 C 17.390625 9.359375 17.40625 9.652344 17.492188 10.039062 C 17.09375 10.277344 16.832031 10.6875 16.832031 11.148438 C 16.832031 11.882812 17.492188 12.476562 18.300781 12.476562 C 19.113281 12.476562 19.773438 11.882812 19.773438 11.148438 C 19.773438 10.414062 19.113281 9.816406 18.300781 9.816406 C 18.285156 9.816406 18.269531 9.820312 18.25 9.820312 C 18.207031 9.613281 18.179688 9.378906 18.179688 9.125 L 27.921875 10.160156 C 27.9375 10.402344 27.964844 10.632812 28.011719 10.847656 C 26.800781 11.578125 27.375 13.285156 28.820312 13.285156 C 29.632812 13.285156 30.292969 12.6875 30.292969 11.957031 C 30.292969 11.234375 29.640625 10.601562 28.769531 10.628906 C 28.746094 10.507812 28.726562 10.382812 28.714844 10.246094 L 33.308594 10.734375 C 33.164062 11.546875 33.042969 12.371094 32.929688 13.167969 C 32.824219 13.90625 32.707031 14.660156 32.574219 15.421875 C 31.535156 15.339844 26.351562 14.050781 15.195312 12.964844 C 15.109375 12.8125 15.023438 12.65625 14.929688 12.507812 C 14.949219 11.957031 14.941406 11.390625 14.898438 10.8125 C 14.867188 10.347656 14.488281 9.082031 14.707031 8.863281 Z M 5.5625 10.972656 C 6.753906 10.359375 7.5 10.050781 8.726562 10.050781 C 12.667969 10.050781 15.113281 12.941406 15.214844 15.949219 C 15.390625 20.820312 9.121094 24.578125 4.542969 21.144531 C 0.941406 18.375 1.738281 12.996094 5.5625 10.972656 Z M 5.5625 10.972656 " fill-opacity="1" fill-rule="nonzero"/></g><path fill="#545454" d="M 4.785156 19.285156 C 7.890625 22.941406 13.851562 20.363281 13.695312 15.984375 C 13.65625 14.875 13.214844 13.800781 12.445312 12.964844 C 11.480469 11.902344 10.164062 11.398438 8.722656 11.398438 C 7.761719 11.398438 7.152344 11.660156 6.316406 12.09375 C 4.375 13.125 3.363281 15.363281 3.878906 17.480469 C 4.046875 18.136719 4.355469 18.757812 4.785156 19.285156 Z M 6.683594 12.789062 C 7.234375 12.503906 7.746094 12.273438 8.328125 12.214844 L 8.328125 12.964844 C 8.328125 13.183594 8.503906 13.359375 8.722656 13.359375 C 8.9375 13.359375 9.117188 13.183594 9.117188 12.964844 L 9.117188 12.207031 C 9.648438 12.246094 10.148438 12.367188 10.601562 12.574219 C 11.078125 12.789062 11.503906 13.097656 11.863281 13.496094 C 12.453125 14.140625 12.8125 14.945312 12.890625 15.792969 L 11.941406 15.792969 C 11.722656 15.792969 11.546875 15.96875 11.546875 16.183594 C 11.546875 16.402344 11.722656 16.578125 11.941406 16.578125 L 12.878906 16.578125 C 12.648438 18.375 11.054688 19.941406 9.117188 20.203125 L 9.117188 19.40625 C 9.117188 19.1875 8.9375 19.011719 8.722656 19.011719 C 8.503906 19.011719 8.328125 19.1875 8.328125 19.40625 L 8.328125 20.234375 C 6.335938 20.117188 4.65625 18.640625 4.542969 16.578125 L 5.5 16.578125 C 5.71875 16.578125 5.894531 16.402344 5.894531 16.183594 C 5.894531 15.96875 5.71875 15.792969 5.5 15.792969 L 4.578125 15.792969 C 4.769531 14.476562 5.582031 13.378906 6.683594 12.789062 Z M 6.683594 12.789062 " fill-opacity="1" fill-rule="nonzero"/><path fill="#545454" d="M 8.585938 16.824219 C 8.96875 16.75 9.359375 16.730469 9.746094 16.765625 C 9.957031 16.789062 10.15625 16.628906 10.175781 16.410156 C 10.199219 16.195312 10.039062 16.003906 9.820312 15.980469 C 9.542969 15.953125 9.265625 15.953125 8.988281 15.972656 C 9.039062 15.519531 9.03125 15.058594 8.960938 14.613281 C 8.925781 14.398438 8.730469 14.25 8.507812 14.285156 C 8.292969 14.316406 8.148438 14.519531 8.179688 14.734375 C 8.265625 15.265625 8.246094 15.824219 8.125 16.347656 C 8.0625 16.625 8.308594 16.878906 8.585938 16.824219 Z M 8.585938 16.824219 " fill-opacity="1" fill-rule="nonzero"/><path fill="#545454" d="M 4.589844 5.257812 C 4.453125 5.085938 4.203125 5.058594 4.035156 5.195312 C 3.863281 5.332031 3.835938 5.578125 3.972656 5.75 C 4.113281 5.890625 4.195312 6.136719 4.472656 6.136719 C 4.800781 6.136719 4.988281 5.75 4.777344 5.492188 Z M 4.589844 5.257812 " fill-opacity="1" fill-rule="nonzero"/><path fill="#545454" d="M 5.820312 8.042969 C 5.898438 8.140625 6.011719 8.191406 6.128906 8.191406 C 6.457031 8.191406 6.644531 7.808594 6.433594 7.550781 L 5.464844 6.34375 C 5.324219 6.171875 5.078125 6.148438 4.910156 6.285156 C 4.738281 6.417969 4.714844 6.667969 4.851562 6.835938 Z M 5.820312 8.042969 " fill-opacity="1" fill-rule="nonzero"/><g clip-path="url(#faabc75b31)"><path fill="#545454" d="M 7.503906 2.75 C 7.289062 2.785156 7.140625 2.988281 7.175781 3.203125 L 7.847656 7.5625 C 7.882812 7.777344 8.085938 7.921875 8.300781 7.890625 C 8.515625 7.855469 8.664062 7.65625 8.628906 7.441406 L 7.953125 3.082031 C 7.921875 2.867188 7.714844 2.722656 7.503906 2.75 Z M 7.503906 2.75 " fill-opacity="1" fill-rule="nonzero"/></g><path fill="#545454" d="M 11.953125 4.933594 L 12.039062 4.757812 C 12.136719 4.566406 12.058594 4.328125 11.867188 4.230469 C 11.671875 4.132812 11.433594 4.210938 11.335938 4.402344 L 11.25 4.578125 C 11.152344 4.769531 11.230469 5.007812 11.421875 5.105469 C 11.613281 5.203125 11.855469 5.128906 11.953125 4.933594 Z M 11.953125 4.933594 " fill-opacity="1" fill-rule="nonzero"/><path fill="#545454" d="M 11.238281 5.472656 C 11.046875 5.375 10.808594 5.453125 10.710938 5.644531 L 9.863281 7.328125 C 9.730469 7.59375 9.925781 7.902344 10.214844 7.902344 C 10.359375 7.902344 10.5 7.820312 10.570312 7.683594 L 11.414062 6 C 11.511719 5.804688 11.433594 5.570312 11.238281 5.472656 Z M 11.238281 5.472656 " fill-opacity="1" fill-rule="nonzero"/></svg>