<svg xmlns="http://www.w3.org/2000/svg" xmlns:xlink="http://www.w3.org/1999/xlink" width="50" zoomAndPan="magnify" viewBox="0 0 37.5 37.499999" height="50" preserveAspectRatio="xMidYMid meet" version="1.0"><defs><clipPath id="ff70ab6bd6"><path d="M 2.726562 0 L 34.550781 0 L 34.550781 37 L 2.726562 37 Z M 2.726562 0 " clip-rule="nonzero"/></clipPath><clipPath id="d353095c99"><path d="M 22.199219 18.507812 C 22.199219 18.640625 22.175781 18.765625 22.125 18.890625 C 22.074219 19.011719 22 19.121094 21.90625 19.214844 C 21.8125 19.308594 21.703125 19.378906 21.582031 19.429688 C 21.457031 19.480469 21.332031 19.507812 21.199219 19.507812 C 21.066406 19.507812 20.9375 19.480469 20.8125 19.429688 C 20.691406 19.378906 20.582031 19.308594 20.488281 19.214844 C 20.394531 19.121094 20.324219 19.011719 20.273438 18.890625 C 20.222656 18.765625 20.195312 18.636719 20.195312 18.503906 C 20.195312 18.371094 20.222656 18.246094 20.273438 18.121094 C 20.324219 18 20.394531 17.890625 20.492188 17.796875 C 20.585938 17.703125 20.691406 17.632812 20.816406 17.582031 C 20.9375 17.53125 21.066406 17.503906 21.199219 17.503906 C 21.332031 17.503906 21.460938 17.53125 21.582031 17.582031 C 21.703125 17.632812 21.8125 17.703125 21.90625 17.796875 C 22 17.890625 22.074219 18 22.125 18.121094 C 22.175781 18.246094 22.199219 18.375 22.199219 18.507812 Z M 19.199219 19.574219 C 18.9375 19.570312 18.71875 19.664062 18.535156 19.847656 C 18.351562 20.03125 18.257812 20.253906 18.257812 20.511719 C 18.257812 20.769531 18.351562 20.992188 18.535156 21.175781 C 18.71875 21.359375 18.941406 21.449219 19.199219 21.449219 C 19.460938 21.449219 19.679688 21.355469 19.863281 21.171875 C 20.046875 20.988281 20.136719 20.765625 20.136719 20.507812 C 20.136719 20.25 20.046875 20.027344 19.863281 19.84375 C 19.679688 19.660156 19.460938 19.570312 19.199219 19.566406 Z M 17.199219 21.636719 C 16.957031 21.636719 16.75 21.722656 16.578125 21.890625 C 16.40625 22.0625 16.320312 22.269531 16.320312 22.511719 C 16.320312 22.753906 16.40625 22.960938 16.578125 23.128906 C 16.75 23.300781 16.957031 23.386719 17.199219 23.386719 C 17.4375 23.386719 17.644531 23.300781 17.816406 23.128906 C 17.988281 22.957031 18.074219 22.753906 18.074219 22.511719 C 18.074219 22.269531 17.988281 22.0625 17.816406 21.890625 C 17.648438 21.71875 17.441406 21.632812 17.199219 21.632812 Z M 15.203125 23.695312 C 14.976562 23.695312 14.785156 23.773438 14.628906 23.933594 C 14.46875 24.089844 14.390625 24.28125 14.390625 24.507812 C 14.390625 24.730469 14.46875 24.921875 14.628906 25.082031 C 14.785156 25.238281 14.976562 25.320312 15.203125 25.320312 C 15.425781 25.320312 15.617188 25.238281 15.777344 25.082031 C 15.933594 24.921875 16.015625 24.730469 16.015625 24.507812 C 16.015625 24.28125 15.933594 24.089844 15.777344 23.933594 C 15.617188 23.773438 15.425781 23.695312 15.203125 23.695312 Z M 13.203125 25.757812 C 12.996094 25.757812 12.816406 25.832031 12.671875 25.976562 C 12.527344 26.125 12.453125 26.300781 12.453125 26.507812 C 12.453125 26.714844 12.527344 26.890625 12.671875 27.035156 C 12.816406 27.183594 12.996094 27.257812 13.203125 27.257812 C 13.410156 27.257812 13.585938 27.183594 13.730469 27.035156 C 13.878906 26.890625 13.949219 26.714844 13.949219 26.507812 C 13.949219 26.300781 13.878906 26.121094 13.730469 25.976562 C 13.582031 25.828125 13.40625 25.757812 13.195312 25.757812 Z M 11.195312 27.820312 C 11.007812 27.820312 10.84375 27.886719 10.710938 28.019531 C 10.578125 28.15625 10.511719 28.316406 10.511719 28.507812 C 10.511719 28.695312 10.578125 28.859375 10.710938 28.992188 C 10.84375 29.128906 11.007812 29.195312 11.195312 29.195312 C 11.386719 29.195312 11.546875 29.128906 11.683594 28.992188 C 11.816406 28.859375 11.882812 28.695312 11.882812 28.507812 C 11.882812 28.316406 11.816406 28.15625 11.683594 28.019531 C 11.546875 27.886719 11.386719 27.820312 11.195312 27.820312 Z M 9.195312 29.882812 C 9.023438 29.882812 8.878906 29.945312 8.757812 30.066406 C 8.636719 30.1875 8.574219 30.335938 8.574219 30.503906 C 8.574219 30.675781 8.636719 30.824219 8.757812 30.945312 C 8.878906 31.066406 9.023438 31.128906 9.195312 31.128906 C 9.367188 31.128906 9.515625 31.066406 9.636719 30.945312 C 9.757812 30.824219 9.820312 30.675781 9.820312 30.503906 C 9.820312 30.335938 9.757812 30.1875 9.636719 30.066406 C 9.515625 29.945312 9.367188 29.882812 9.195312 29.882812 Z M 7.195312 31.945312 C 7.039062 31.945312 6.910156 32.003906 6.800781 32.113281 C 6.691406 32.222656 6.636719 32.355469 6.636719 32.507812 C 6.636719 32.664062 6.691406 32.796875 6.800781 32.90625 C 6.910156 33.015625 7.042969 33.070312 7.199219 33.070312 C 7.351562 33.066406 7.484375 33.011719 7.59375 32.902344 C 7.703125 32.792969 7.757812 32.660156 7.757812 32.503906 C 7.753906 32.351562 7.699219 32.21875 7.589844 32.109375 C 7.480469 32 7.351562 31.945312 7.195312 31.945312 Z M 5.195312 34.011719 C 5.058594 34.007812 4.941406 34.058594 4.84375 34.15625 C 4.746094 34.253906 4.695312 34.371094 4.695312 34.507812 C 4.695312 34.644531 4.746094 34.761719 4.84375 34.859375 C 4.9375 34.957031 5.058594 35.007812 5.195312 35.007812 C 5.332031 35.007812 5.449219 34.957031 5.546875 34.859375 C 5.644531 34.761719 5.691406 34.644531 5.691406 34.507812 C 5.691406 34.371094 5.644531 34.253906 5.546875 34.15625 C 5.449219 34.058594 5.332031 34.011719 5.195312 34.011719 Z M 3.195312 36.074219 C 3.074219 36.074219 2.972656 36.117188 2.886719 36.199219 C 2.800781 36.285156 2.761719 36.386719 2.757812 36.507812 C 2.757812 36.628906 2.800781 36.730469 2.886719 36.816406 C 2.972656 36.902344 3.074219 36.945312 3.195312 36.945312 C 3.316406 36.945312 3.417969 36.902344 3.503906 36.816406 C 3.589844 36.730469 3.628906 36.628906 3.628906 36.507812 C 3.628906 36.390625 3.589844 36.285156 3.503906 36.203125 C 3.417969 36.117188 3.316406 36.074219 3.195312 36.074219 Z M 25.222656 17.503906 C 25.089844 17.503906 24.960938 17.527344 24.839844 17.578125 C 24.71875 17.628906 24.609375 17.703125 24.515625 17.796875 C 24.417969 17.890625 24.347656 17.996094 24.296875 18.121094 C 24.246094 18.242188 24.21875 18.371094 24.21875 18.503906 C 24.21875 18.636719 24.242188 18.765625 24.292969 18.886719 C 24.34375 19.011719 24.417969 19.117188 24.511719 19.210938 C 24.605469 19.308594 24.710938 19.378906 24.835938 19.429688 C 24.957031 19.480469 25.085938 19.507812 25.21875 19.507812 C 25.351562 19.507812 25.480469 19.480469 25.601562 19.429688 C 25.726562 19.378906 25.832031 19.308594 25.929688 19.214844 C 26.023438 19.121094 26.09375 19.011719 26.144531 18.890625 C 26.195312 18.765625 26.222656 18.640625 26.222656 18.507812 C 26.222656 18.375 26.195312 18.246094 26.144531 18.125 C 26.09375 18 26.023438 17.894531 25.929688 17.800781 C 25.835938 17.707031 25.726562 17.632812 25.605469 17.582031 C 25.484375 17.53125 25.355469 17.503906 25.222656 17.503906 Z M 23.222656 19.566406 C 22.964844 19.566406 22.742188 19.660156 22.558594 19.84375 C 22.375 20.023438 22.285156 20.246094 22.285156 20.503906 C 22.285156 20.765625 22.375 20.984375 22.558594 21.167969 C 22.742188 21.351562 22.960938 21.445312 23.222656 21.445312 C 23.480469 21.445312 23.703125 21.355469 23.886719 21.171875 C 24.070312 20.988281 24.160156 20.765625 24.160156 20.507812 C 24.160156 20.25 24.070312 20.027344 23.886719 19.84375 C 23.703125 19.660156 23.484375 19.566406 23.222656 19.566406 Z M 21.222656 21.632812 C 20.980469 21.632812 20.773438 21.714844 20.601562 21.886719 C 20.433594 22.058594 20.347656 22.265625 20.347656 22.507812 C 20.347656 22.75 20.433594 22.953125 20.601562 23.125 C 20.773438 23.296875 20.980469 23.382812 21.222656 23.382812 C 21.464844 23.382812 21.671875 23.296875 21.839844 23.125 C 22.011719 22.953125 22.097656 22.746094 22.097656 22.507812 C 22.097656 22.265625 22.011719 22.058594 21.839844 21.886719 C 21.671875 21.71875 21.464844 21.632812 21.222656 21.632812 Z M 19.222656 23.695312 C 19 23.695312 18.808594 23.773438 18.648438 23.933594 C 18.488281 24.089844 18.410156 24.28125 18.410156 24.507812 C 18.410156 24.730469 18.488281 24.921875 18.648438 25.082031 C 18.808594 25.238281 19 25.320312 19.222656 25.320312 C 19.445312 25.320312 19.636719 25.238281 19.796875 25.082031 C 19.957031 24.921875 20.035156 24.730469 20.035156 24.507812 C 20.035156 24.28125 19.957031 24.089844 19.796875 23.933594 C 19.636719 23.773438 19.445312 23.695312 19.222656 23.695312 Z M 17.222656 25.757812 C 17.015625 25.757812 16.839844 25.832031 16.691406 25.976562 C 16.546875 26.125 16.472656 26.300781 16.472656 26.507812 C 16.472656 26.714844 16.546875 26.890625 16.691406 27.035156 C 16.839844 27.183594 17.015625 27.257812 17.222656 27.257812 C 17.429688 27.257812 17.605469 27.183594 17.75 27.035156 C 17.898438 26.890625 17.972656 26.714844 17.972656 26.507812 C 17.972656 26.300781 17.898438 26.125 17.753906 25.976562 C 17.605469 25.832031 17.429688 25.757812 17.222656 25.757812 Z M 15.222656 27.820312 C 15.03125 27.820312 14.871094 27.890625 14.738281 28.023438 C 14.605469 28.160156 14.539062 28.320312 14.539062 28.511719 C 14.539062 28.699219 14.609375 28.863281 14.742188 28.996094 C 14.878906 29.128906 15.039062 29.195312 15.230469 29.195312 C 15.417969 29.191406 15.578125 29.125 15.714844 28.992188 C 15.847656 28.855469 15.914062 28.695312 15.914062 28.503906 C 15.914062 28.316406 15.84375 28.152344 15.710938 28.019531 C 15.574219 27.886719 15.410156 27.820312 15.222656 27.820312 Z M 13.222656 29.882812 C 13.050781 29.882812 12.902344 29.945312 12.78125 30.066406 C 12.660156 30.1875 12.597656 30.335938 12.597656 30.503906 C 12.597656 30.675781 12.660156 30.824219 12.78125 30.945312 C 12.902344 31.066406 13.050781 31.128906 13.222656 31.128906 C 13.394531 31.128906 13.539062 31.066406 13.660156 30.945312 C 13.78125 30.824219 13.84375 30.675781 13.84375 30.503906 C 13.84375 30.335938 13.78125 30.1875 13.660156 30.066406 C 13.539062 29.945312 13.394531 29.882812 13.222656 29.882812 Z M 11.222656 31.945312 C 11.066406 31.945312 10.933594 32.003906 10.824219 32.113281 C 10.714844 32.222656 10.660156 32.351562 10.660156 32.507812 C 10.660156 32.664062 10.714844 32.796875 10.824219 32.90625 C 10.933594 33.015625 11.066406 33.070312 11.222656 33.070312 C 11.375 33.070312 11.507812 33.015625 11.617188 32.90625 C 11.726562 32.796875 11.78125 32.664062 11.78125 32.507812 C 11.78125 32.351562 11.726562 32.222656 11.617188 32.113281 C 11.507812 32.003906 11.375 31.945312 11.222656 31.945312 Z M 9.21875 34.011719 C 9.082031 34.011719 8.964844 34.058594 8.867188 34.15625 C 8.769531 34.253906 8.722656 34.371094 8.722656 34.507812 C 8.722656 34.644531 8.769531 34.761719 8.867188 34.859375 C 8.964844 34.957031 9.082031 35.007812 9.21875 35.007812 C 9.359375 35.007812 9.476562 34.957031 9.574219 34.859375 C 9.671875 34.761719 9.71875 34.644531 9.71875 34.507812 C 9.71875 34.371094 9.671875 34.253906 9.574219 34.15625 C 9.476562 34.058594 9.359375 34.011719 9.21875 34.011719 Z M 7.222656 36.074219 C 7.101562 36.074219 6.996094 36.117188 6.914062 36.199219 C 6.828125 36.285156 6.785156 36.386719 6.785156 36.507812 C 6.785156 36.628906 6.828125 36.730469 6.910156 36.816406 C 6.996094 36.902344 7.097656 36.945312 7.21875 36.945312 C 7.339844 36.945312 7.441406 36.902344 7.527344 36.816406 C 7.613281 36.730469 7.65625 36.628906 7.65625 36.507812 C 7.65625 36.390625 7.613281 36.285156 7.527344 36.203125 C 7.445312 36.117188 7.339844 36.074219 7.222656 36.074219 Z M 29.246094 17.503906 C 29.113281 17.503906 28.988281 17.53125 28.863281 17.582031 C 28.742188 17.632812 28.632812 17.703125 28.539062 17.796875 C 28.445312 17.890625 28.375 18 28.324219 18.121094 C 28.273438 18.246094 28.246094 18.375 28.246094 18.507812 C 28.246094 18.640625 28.273438 18.765625 28.324219 18.890625 C 28.375 19.011719 28.445312 19.121094 28.539062 19.214844 C 28.632812 19.308594 28.742188 19.378906 28.863281 19.429688 C 28.988281 19.480469 29.113281 19.507812 29.246094 19.507812 C 29.378906 19.507812 29.507812 19.480469 29.632812 19.429688 C 29.753906 19.378906 29.863281 19.308594 29.957031 19.214844 C 30.050781 19.121094 30.121094 19.011719 30.171875 18.890625 C 30.222656 18.765625 30.25 18.640625 30.25 18.507812 C 30.25 18.375 30.222656 18.246094 30.171875 18.121094 C 30.121094 18 30.050781 17.890625 29.957031 17.796875 C 29.863281 17.703125 29.753906 17.632812 29.632812 17.582031 C 29.507812 17.53125 29.378906 17.503906 29.246094 17.503906 Z M 27.25 19.566406 C 26.988281 19.566406 26.769531 19.660156 26.585938 19.84375 C 26.402344 20.023438 26.308594 20.246094 26.308594 20.503906 C 26.308594 20.765625 26.398438 20.984375 26.582031 21.167969 C 26.765625 21.351562 26.988281 21.445312 27.246094 21.445312 C 27.503906 21.445312 27.726562 21.355469 27.910156 21.171875 C 28.09375 20.988281 28.183594 20.765625 28.1875 20.507812 C 28.1875 20.25 28.09375 20.027344 27.910156 19.84375 C 27.726562 19.660156 27.507812 19.566406 27.25 19.566406 Z M 25.246094 21.632812 C 25.003906 21.632812 24.796875 21.714844 24.625 21.886719 C 24.453125 22.058594 24.367188 22.265625 24.367188 22.507812 C 24.367188 22.75 24.453125 22.953125 24.625 23.125 C 24.796875 23.296875 25 23.382812 25.242188 23.382812 C 25.484375 23.382812 25.691406 23.296875 25.863281 23.125 C 26.035156 22.953125 26.117188 22.746094 26.117188 22.507812 C 26.117188 22.265625 26.035156 22.058594 25.863281 21.886719 C 25.691406 21.71875 25.484375 21.632812 25.246094 21.632812 Z M 23.242188 23.695312 C 23.019531 23.695312 22.828125 23.773438 22.667969 23.933594 C 22.511719 24.089844 22.429688 24.28125 22.429688 24.507812 C 22.429688 24.730469 22.511719 24.921875 22.667969 25.082031 C 22.828125 25.238281 23.019531 25.320312 23.242188 25.320312 C 23.46875 25.320312 23.660156 25.238281 23.816406 25.082031 C 23.976562 24.921875 24.054688 24.730469 24.054688 24.507812 C 24.054688 24.28125 23.976562 24.089844 23.820312 23.933594 C 23.660156 23.773438 23.472656 23.695312 23.246094 23.695312 Z M 21.246094 25.757812 C 21.039062 25.757812 20.863281 25.832031 20.714844 25.976562 C 20.570312 26.125 20.496094 26.300781 20.496094 26.507812 C 20.496094 26.714844 20.570312 26.890625 20.714844 27.035156 C 20.863281 27.183594 21.039062 27.257812 21.246094 27.257812 C 21.453125 27.257812 21.628906 27.183594 21.773438 27.035156 C 21.921875 26.890625 21.996094 26.714844 21.996094 26.507812 C 21.996094 26.300781 21.921875 26.125 21.773438 25.976562 C 21.628906 25.832031 21.453125 25.757812 21.246094 25.757812 Z M 19.246094 27.820312 C 19.054688 27.820312 18.894531 27.886719 18.757812 28.019531 C 18.625 28.15625 18.558594 28.316406 18.558594 28.507812 C 18.558594 28.695312 18.625 28.859375 18.757812 28.992188 C 18.894531 29.128906 19.054688 29.195312 19.246094 29.195312 C 19.433594 29.195312 19.597656 29.128906 19.730469 28.992188 C 19.863281 28.859375 19.929688 28.695312 19.929688 28.507812 C 19.933594 28.316406 19.863281 28.15625 19.730469 28.023438 C 19.597656 27.886719 19.4375 27.820312 19.246094 27.820312 Z M 17.246094 29.882812 C 17.074219 29.882812 16.925781 29.945312 16.804688 30.066406 C 16.683594 30.1875 16.625 30.335938 16.625 30.503906 C 16.625 30.675781 16.683594 30.824219 16.804688 30.945312 C 16.925781 31.066406 17.074219 31.128906 17.246094 31.128906 C 17.417969 31.128906 17.5625 31.066406 17.6875 30.945312 C 17.808594 30.824219 17.867188 30.675781 17.867188 30.503906 C 17.867188 30.335938 17.808594 30.1875 17.6875 30.066406 C 17.5625 29.945312 17.417969 29.882812 17.246094 29.882812 Z M 15.246094 31.945312 C 15.089844 31.945312 14.957031 32.003906 14.847656 32.113281 C 14.738281 32.222656 14.683594 32.355469 14.683594 32.507812 C 14.683594 32.664062 14.742188 32.796875 14.851562 32.90625 C 14.960938 33.015625 15.09375 33.070312 15.246094 33.070312 C 15.402344 33.066406 15.535156 33.011719 15.644531 32.902344 C 15.753906 32.792969 15.808594 32.660156 15.804688 32.503906 C 15.804688 32.351562 15.75 32.21875 15.640625 32.109375 C 15.53125 32 15.398438 31.945312 15.246094 31.945312 Z M 13.246094 34.011719 C 13.109375 34.011719 12.992188 34.058594 12.894531 34.15625 C 12.796875 34.253906 12.75 34.371094 12.75 34.507812 C 12.75 34.644531 12.796875 34.761719 12.894531 34.859375 C 12.992188 34.957031 13.109375 35.007812 13.246094 35.007812 C 13.382812 35.007812 13.503906 34.957031 13.597656 34.859375 C 13.695312 34.761719 13.746094 34.644531 13.746094 34.507812 C 13.746094 34.371094 13.695312 34.253906 13.597656 34.15625 C 13.503906 34.058594 13.382812 34.011719 13.246094 34.011719 Z M 11.246094 36.074219 C 11.128906 36.074219 11.023438 36.117188 10.9375 36.199219 C 10.855469 36.285156 10.8125 36.386719 10.8125 36.507812 C 10.8125 36.628906 10.851562 36.730469 10.9375 36.816406 C 11.023438 36.902344 11.125 36.945312 11.246094 36.945312 C 11.367188 36.945312 11.46875 36.902344 11.554688 36.816406 C 11.640625 36.730469 11.683594 36.628906 11.683594 36.507812 C 11.683594 36.386719 11.640625 36.285156 11.554688 36.199219 C 11.46875 36.117188 11.367188 36.074219 11.246094 36.074219 Z M 33.273438 17.503906 C 33.140625 17.503906 33.011719 17.53125 32.890625 17.582031 C 32.765625 17.632812 32.65625 17.703125 32.5625 17.796875 C 32.46875 17.890625 32.398438 18 32.347656 18.121094 C 32.296875 18.246094 32.269531 18.375 32.269531 18.507812 C 32.269531 18.640625 32.296875 18.765625 32.347656 18.890625 C 32.398438 19.011719 32.46875 19.121094 32.5625 19.214844 C 32.65625 19.308594 32.765625 19.378906 32.890625 19.429688 C 33.011719 19.480469 33.140625 19.507812 33.273438 19.507812 C 33.40625 19.507812 33.53125 19.480469 33.65625 19.429688 C 33.777344 19.378906 33.886719 19.308594 33.980469 19.214844 C 34.074219 19.121094 34.148438 19.011719 34.199219 18.890625 C 34.25 18.765625 34.273438 18.640625 34.273438 18.507812 C 34.273438 18.375 34.25 18.246094 34.199219 18.121094 C 34.148438 18 34.074219 17.890625 33.980469 17.796875 C 33.886719 17.703125 33.777344 17.632812 33.65625 17.582031 C 33.53125 17.53125 33.40625 17.503906 33.273438 17.503906 Z M 31.273438 19.566406 C 31.015625 19.566406 30.792969 19.660156 30.609375 19.84375 C 30.425781 20.023438 30.332031 20.246094 30.332031 20.503906 C 30.332031 20.765625 30.425781 20.984375 30.609375 21.167969 C 30.789062 21.351562 31.011719 21.445312 31.269531 21.445312 C 31.53125 21.445312 31.75 21.355469 31.933594 21.171875 C 32.117188 20.988281 32.210938 20.765625 32.210938 20.507812 C 32.210938 20.25 32.121094 20.027344 31.9375 19.84375 C 31.753906 19.660156 31.53125 19.566406 31.273438 19.566406 Z M 29.273438 21.632812 C 29.03125 21.632812 28.824219 21.714844 28.652344 21.886719 C 28.480469 22.058594 28.394531 22.265625 28.394531 22.507812 C 28.394531 22.75 28.480469 22.953125 28.652344 23.125 C 28.824219 23.296875 29.03125 23.382812 29.273438 23.382812 C 29.515625 23.382812 29.71875 23.296875 29.890625 23.125 C 30.0625 22.953125 30.148438 22.746094 30.148438 22.507812 C 30.148438 22.265625 30.0625 22.058594 29.890625 21.886719 C 29.71875 21.71875 29.515625 21.632812 29.273438 21.632812 Z M 27.273438 23.695312 C 27.046875 23.695312 26.855469 23.773438 26.699219 23.933594 C 26.542969 24.09375 26.460938 24.285156 26.464844 24.507812 C 26.464844 24.734375 26.542969 24.921875 26.703125 25.082031 C 26.863281 25.238281 27.054688 25.320312 27.277344 25.320312 C 27.5 25.316406 27.691406 25.238281 27.851562 25.082031 C 28.007812 24.921875 28.089844 24.730469 28.089844 24.507812 C 28.089844 24.28125 28.007812 24.089844 27.847656 23.929688 C 27.6875 23.773438 27.496094 23.691406 27.273438 23.695312 Z M 25.273438 25.757812 C 25.066406 25.757812 24.886719 25.832031 24.742188 25.976562 C 24.59375 26.125 24.523438 26.300781 24.523438 26.507812 C 24.523438 26.714844 24.59375 26.890625 24.742188 27.035156 C 24.886719 27.183594 25.066406 27.257812 25.273438 27.257812 C 25.480469 27.257812 25.65625 27.183594 25.800781 27.035156 C 25.949219 26.890625 26.019531 26.714844 26.019531 26.507812 C 26.019531 26.300781 25.949219 26.125 25.800781 25.976562 C 25.65625 25.832031 25.480469 25.757812 25.273438 25.757812 Z M 23.269531 27.820312 C 23.082031 27.820312 22.917969 27.886719 22.785156 28.019531 C 22.652344 28.15625 22.585938 28.316406 22.585938 28.507812 C 22.585938 28.695312 22.652344 28.859375 22.785156 28.992188 C 22.917969 29.128906 23.082031 29.195312 23.269531 29.195312 C 23.460938 29.195312 23.621094 29.128906 23.757812 28.992188 C 23.890625 28.859375 23.957031 28.695312 23.957031 28.507812 C 23.957031 28.316406 23.890625 28.15625 23.757812 28.019531 C 23.625 27.886719 23.460938 27.820312 23.269531 27.820312 Z M 21.269531 29.882812 C 21.097656 29.882812 20.953125 29.945312 20.832031 30.066406 C 20.710938 30.1875 20.648438 30.335938 20.648438 30.503906 C 20.648438 30.675781 20.710938 30.824219 20.832031 30.945312 C 20.953125 31.066406 21.097656 31.128906 21.269531 31.128906 C 21.441406 31.128906 21.589844 31.066406 21.710938 30.945312 C 21.832031 30.824219 21.894531 30.675781 21.894531 30.503906 C 21.894531 30.335938 21.832031 30.1875 21.710938 30.066406 C 21.589844 29.945312 21.441406 29.882812 21.269531 29.882812 Z M 19.269531 31.945312 C 19.117188 31.945312 18.984375 32.003906 18.875 32.113281 C 18.765625 32.222656 18.710938 32.351562 18.710938 32.507812 C 18.710938 32.664062 18.765625 32.796875 18.875 32.90625 C 18.984375 33.015625 19.117188 33.070312 19.269531 33.070312 C 19.425781 33.070312 19.558594 33.015625 19.667969 32.90625 C 19.777344 32.796875 19.832031 32.664062 19.832031 32.507812 C 19.832031 32.351562 19.777344 32.222656 19.667969 32.113281 C 19.558594 32.003906 19.425781 31.945312 19.269531 31.945312 Z M 17.269531 34.011719 C 17.132812 34.011719 17.015625 34.058594 16.917969 34.15625 C 16.820312 34.253906 16.773438 34.371094 16.773438 34.507812 C 16.773438 34.644531 16.820312 34.761719 16.917969 34.859375 C 17.015625 34.957031 17.132812 35.007812 17.269531 35.007812 C 17.40625 35.007812 17.523438 34.957031 17.621094 34.859375 C 17.71875 34.761719 17.769531 34.644531 17.769531 34.507812 C 17.769531 34.371094 17.71875 34.253906 17.621094 34.15625 C 17.523438 34.058594 17.40625 34.011719 17.269531 34.011719 Z M 15.269531 36.074219 C 15.148438 36.074219 15.046875 36.117188 14.960938 36.199219 C 14.878906 36.285156 14.835938 36.386719 14.835938 36.507812 C 14.835938 36.628906 14.875 36.730469 14.960938 36.816406 C 15.046875 36.902344 15.148438 36.945312 15.269531 36.945312 C 15.390625 36.945312 15.492188 36.902344 15.578125 36.816406 C 15.664062 36.730469 15.703125 36.628906 15.703125 36.507812 C 15.703125 36.390625 15.664062 36.285156 15.578125 36.203125 C 15.492188 36.117188 15.390625 36.074219 15.269531 36.074219 Z M 19.199219 15.566406 C 18.941406 15.566406 18.71875 15.65625 18.535156 15.839844 C 18.351562 16.023438 18.261719 16.242188 18.257812 16.503906 C 18.257812 16.761719 18.347656 16.984375 18.53125 17.167969 C 18.714844 17.351562 18.933594 17.441406 19.195312 17.445312 C 19.453125 17.445312 19.675781 17.355469 19.859375 17.171875 C 20.042969 16.988281 20.136719 16.765625 20.136719 16.507812 C 20.136719 16.25 20.046875 16.027344 19.863281 15.84375 C 19.679688 15.660156 19.460938 15.566406 19.199219 15.566406 Z M 17.199219 13.628906 C 16.957031 13.628906 16.753906 13.714844 16.582031 13.886719 C 16.410156 14.054688 16.324219 14.261719 16.324219 14.503906 C 16.324219 14.746094 16.410156 14.953125 16.582031 15.125 C 16.75 15.292969 16.957031 15.378906 17.199219 15.378906 C 17.441406 15.378906 17.648438 15.296875 17.820312 15.125 C 17.988281 14.953125 18.074219 14.746094 18.074219 14.503906 C 18.074219 14.261719 17.988281 14.054688 17.816406 13.886719 C 17.648438 13.714844 17.441406 13.628906 17.199219 13.628906 Z M 15.203125 11.691406 C 14.976562 11.691406 14.785156 11.773438 14.628906 11.929688 C 14.46875 12.089844 14.390625 12.28125 14.390625 12.503906 C 14.390625 12.730469 14.46875 12.921875 14.628906 13.078125 C 14.785156 13.238281 14.976562 13.316406 15.203125 13.316406 C 15.425781 13.316406 15.617188 13.238281 15.777344 13.078125 C 15.933594 12.921875 16.015625 12.730469 16.015625 12.503906 C 16.015625 12.28125 15.933594 12.089844 15.777344 11.929688 C 15.617188 11.773438 15.425781 11.691406 15.203125 11.691406 Z M 13.195312 9.753906 C 12.992188 9.753906 12.8125 9.828125 12.667969 9.972656 C 12.519531 10.121094 12.449219 10.296875 12.449219 10.503906 C 12.449219 10.710938 12.519531 10.886719 12.667969 11.03125 C 12.8125 11.179688 12.992188 11.253906 13.195312 11.253906 C 13.402344 11.253906 13.582031 11.179688 13.726562 11.03125 C 13.875 10.886719 13.945312 10.710938 13.945312 10.503906 C 13.945312 10.296875 13.875 10.121094 13.726562 9.972656 C 13.582031 9.828125 13.402344 9.753906 13.195312 9.753906 Z M 11.195312 7.816406 C 11.007812 7.816406 10.84375 7.886719 10.710938 8.019531 C 10.578125 8.152344 10.511719 8.316406 10.511719 8.503906 C 10.511719 8.695312 10.578125 8.855469 10.710938 8.992188 C 10.84375 9.125 11.007812 9.191406 11.199219 9.191406 C 11.386719 9.191406 11.550781 9.125 11.683594 8.988281 C 11.816406 8.855469 11.882812 8.695312 11.882812 8.503906 C 11.882812 8.3125 11.816406 8.152344 11.683594 8.019531 C 11.546875 7.882812 11.386719 7.816406 11.195312 7.816406 Z M 9.195312 5.878906 C 9.023438 5.878906 8.878906 5.941406 8.757812 6.0625 C 8.636719 6.183594 8.574219 6.328125 8.574219 6.5 C 8.574219 6.671875 8.636719 6.820312 8.757812 6.941406 C 8.878906 7.0625 9.023438 7.125 9.195312 7.125 C 9.367188 7.125 9.515625 7.0625 9.636719 6.941406 C 9.757812 6.820312 9.820312 6.671875 9.820312 6.5 C 9.820312 6.328125 9.757812 6.183594 9.636719 6.0625 C 9.515625 5.941406 9.367188 5.878906 9.195312 5.878906 Z M 7.195312 3.941406 C 7.042969 3.941406 6.910156 3.996094 6.800781 4.105469 C 6.691406 4.214844 6.636719 4.347656 6.636719 4.503906 C 6.636719 4.65625 6.691406 4.789062 6.800781 4.898438 C 6.910156 5.007812 7.042969 5.0625 7.195312 5.0625 C 7.351562 5.0625 7.484375 5.007812 7.59375 4.898438 C 7.703125 4.789062 7.757812 4.65625 7.757812 4.503906 C 7.757812 4.347656 7.703125 4.214844 7.59375 4.105469 C 7.484375 3.996094 7.351562 3.941406 7.195312 3.941406 Z M 5.195312 2.003906 C 5.058594 2.003906 4.941406 2.054688 4.84375 2.152344 C 4.746094 2.246094 4.695312 2.363281 4.695312 2.503906 C 4.695312 2.640625 4.746094 2.757812 4.84375 2.855469 C 4.9375 2.953125 5.058594 3.003906 5.195312 3.003906 C 5.332031 3.003906 5.449219 2.953125 5.546875 2.855469 C 5.644531 2.757812 5.691406 2.640625 5.691406 2.503906 C 5.691406 2.367188 5.644531 2.25 5.546875 2.152344 C 5.449219 2.054688 5.332031 2.003906 5.195312 2.003906 Z M 3.195312 0.0664062 C 3.074219 0.0664062 2.972656 0.109375 2.886719 0.195312 C 2.800781 0.28125 2.761719 0.382812 2.757812 0.503906 C 2.757812 0.621094 2.800781 0.726562 2.886719 0.8125 C 2.972656 0.894531 3.074219 0.9375 3.195312 0.9375 C 3.316406 0.9375 3.417969 0.894531 3.503906 0.8125 C 3.589844 0.726562 3.628906 0.625 3.628906 0.503906 C 3.628906 0.382812 3.589844 0.28125 3.503906 0.195312 C 3.417969 0.109375 3.316406 0.0664062 3.195312 0.0664062 Z M 23.222656 15.566406 C 22.964844 15.566406 22.742188 15.65625 22.558594 15.839844 C 22.375 16.023438 22.285156 16.246094 22.285156 16.503906 C 22.285156 16.761719 22.375 16.984375 22.558594 17.167969 C 22.742188 17.351562 22.960938 17.445312 23.21875 17.445312 C 23.480469 17.445312 23.699219 17.351562 23.882812 17.171875 C 24.066406 16.988281 24.160156 16.765625 24.160156 16.507812 C 24.160156 16.25 24.070312 16.027344 23.886719 15.84375 C 23.703125 15.660156 23.484375 15.566406 23.222656 15.566406 Z M 21.222656 15.378906 C 21.464844 15.378906 21.671875 15.292969 21.84375 15.125 C 22.011719 14.953125 22.097656 14.746094 22.097656 14.503906 C 22.097656 14.261719 22.011719 14.054688 21.839844 13.886719 C 21.671875 13.714844 21.464844 13.628906 21.222656 13.628906 C 20.980469 13.628906 20.773438 13.714844 20.601562 13.886719 C 20.433594 14.058594 20.347656 14.261719 20.347656 14.503906 C 20.347656 14.746094 20.433594 14.953125 20.605469 15.125 C 20.773438 15.292969 20.980469 15.378906 21.222656 15.378906 Z M 19.222656 13.316406 C 19.445312 13.316406 19.640625 13.238281 19.796875 13.078125 C 19.957031 12.917969 20.035156 12.726562 20.035156 12.503906 C 20.035156 12.277344 19.953125 12.085938 19.796875 11.929688 C 19.636719 11.769531 19.445312 11.691406 19.21875 11.691406 C 18.996094 11.691406 18.804688 11.773438 18.644531 11.933594 C 18.488281 12.09375 18.410156 12.285156 18.410156 12.507812 C 18.410156 12.734375 18.492188 12.921875 18.648438 13.082031 C 18.808594 13.238281 19 13.316406 19.222656 13.316406 Z M 17.222656 11.253906 C 17.429688 11.253906 17.605469 11.179688 17.75 11.035156 C 17.898438 10.886719 17.972656 10.710938 17.972656 10.503906 C 17.972656 10.296875 17.898438 10.121094 17.75 9.972656 C 17.605469 9.828125 17.429688 9.753906 17.222656 9.753906 C 17.015625 9.753906 16.839844 9.828125 16.691406 9.972656 C 16.546875 10.121094 16.472656 10.296875 16.472656 10.503906 C 16.472656 10.710938 16.546875 10.886719 16.691406 11.035156 C 16.839844 11.179688 17.015625 11.253906 17.222656 11.253906 Z M 15.222656 9.191406 C 15.410156 9.191406 15.574219 9.125 15.707031 8.988281 C 15.84375 8.855469 15.910156 8.695312 15.910156 8.503906 C 15.910156 8.316406 15.84375 8.152344 15.707031 8.019531 C 15.574219 7.882812 15.414062 7.816406 15.222656 7.816406 C 15.03125 7.816406 14.871094 7.882812 14.738281 8.019531 C 14.601562 8.152344 14.535156 8.3125 14.535156 8.503906 C 14.535156 8.695312 14.601562 8.855469 14.738281 8.988281 C 14.871094 9.125 15.03125 9.191406 15.222656 9.191406 Z M 13.222656 7.128906 C 13.394531 7.128906 13.539062 7.066406 13.660156 6.945312 C 13.78125 6.824219 13.84375 6.675781 13.84375 6.503906 C 13.84375 6.332031 13.78125 6.1875 13.660156 6.066406 C 13.539062 5.945312 13.394531 5.882812 13.222656 5.882812 C 13.050781 5.882812 12.902344 5.945312 12.78125 6.066406 C 12.660156 6.1875 12.597656 6.332031 12.597656 6.503906 C 12.597656 6.675781 12.660156 6.824219 12.78125 6.945312 C 12.902344 7.066406 13.050781 7.128906 13.222656 7.128906 Z M 11.222656 5.0625 C 11.375 5.0625 11.507812 5.007812 11.617188 4.898438 C 11.726562 4.789062 11.78125 4.65625 11.78125 4.503906 C 11.78125 4.347656 11.726562 4.214844 11.617188 4.105469 C 11.507812 3.996094 11.375 3.941406 11.222656 3.941406 C 11.066406 3.941406 10.933594 3.996094 10.824219 4.105469 C 10.714844 4.214844 10.660156 4.347656 10.660156 4.503906 C 10.660156 4.65625 10.714844 4.789062 10.824219 4.898438 C 10.933594 5.007812 11.066406 5.0625 11.222656 5.0625 Z M 9.21875 3 C 9.359375 3 9.476562 2.953125 9.574219 2.855469 C 9.671875 2.757812 9.71875 2.640625 9.71875 2.503906 C 9.71875 2.363281 9.671875 2.246094 9.574219 2.148438 C 9.476562 2.050781 9.359375 2.003906 9.222656 2.003906 C 9.082031 2.003906 8.964844 2.050781 8.867188 2.148438 C 8.769531 2.246094 8.722656 2.363281 8.722656 2.503906 C 8.722656 2.640625 8.773438 2.757812 8.867188 2.855469 C 8.964844 2.953125 9.082031 3 9.21875 3 Z M 7.222656 0.9375 C 7.339844 0.9375 7.445312 0.894531 7.527344 0.808594 C 7.613281 0.726562 7.65625 0.621094 7.65625 0.5 C 7.65625 0.382812 7.613281 0.277344 7.527344 0.195312 C 7.441406 0.109375 7.339844 0.0664062 7.21875 0.0664062 C 7.101562 0.0664062 6.996094 0.109375 6.914062 0.195312 C 6.828125 0.28125 6.785156 0.382812 6.785156 0.503906 C 6.785156 0.625 6.828125 0.726562 6.914062 0.8125 C 7 0.894531 7.101562 0.9375 7.222656 0.9375 Z M 27.25 15.566406 C 26.988281 15.566406 26.769531 15.65625 26.585938 15.839844 C 26.402344 16.023438 26.308594 16.246094 26.308594 16.503906 C 26.308594 16.761719 26.398438 16.984375 26.582031 17.167969 C 26.765625 17.351562 26.984375 17.445312 27.246094 17.445312 C 27.503906 17.445312 27.726562 17.351562 27.910156 17.171875 C 28.09375 16.988281 28.183594 16.765625 28.1875 16.507812 C 28.1875 16.25 28.09375 16.027344 27.910156 15.84375 C 27.730469 15.660156 27.507812 15.566406 27.25 15.566406 Z M 25.246094 15.378906 C 25.484375 15.378906 25.691406 15.292969 25.863281 15.125 C 26.035156 14.953125 26.121094 14.746094 26.121094 14.503906 C 26.121094 14.261719 26.035156 14.054688 25.863281 13.886719 C 25.691406 13.714844 25.484375 13.628906 25.242188 13.628906 C 25 13.628906 24.796875 13.714844 24.625 13.886719 C 24.453125 14.058594 24.367188 14.261719 24.367188 14.503906 C 24.367188 14.746094 24.453125 14.953125 24.625 15.125 C 24.796875 15.292969 25.003906 15.378906 25.246094 15.378906 Z M 23.242188 13.316406 C 23.46875 13.316406 23.660156 13.238281 23.816406 13.078125 C 23.976562 12.921875 24.054688 12.730469 24.054688 12.503906 C 24.054688 12.28125 23.976562 12.089844 23.816406 11.929688 C 23.660156 11.773438 23.46875 11.691406 23.242188 11.691406 C 23.019531 11.691406 22.828125 11.773438 22.667969 11.929688 C 22.511719 12.089844 22.429688 12.28125 22.429688 12.503906 C 22.429688 12.730469 22.511719 12.921875 22.671875 13.082031 C 22.832031 13.238281 23.023438 13.316406 23.246094 13.316406 Z M 21.246094 11.253906 C 21.453125 11.253906 21.628906 11.179688 21.773438 11.035156 C 21.921875 10.886719 21.996094 10.710938 21.996094 10.503906 C 21.996094 10.296875 21.921875 10.121094 21.773438 9.972656 C 21.628906 9.828125 21.453125 9.753906 21.246094 9.753906 C 21.039062 9.753906 20.863281 9.828125 20.714844 9.972656 C 20.570312 10.121094 20.496094 10.296875 20.496094 10.503906 C 20.496094 10.710938 20.570312 10.886719 20.714844 11.035156 C 20.863281 11.179688 21.039062 11.253906 21.246094 11.253906 Z M 19.246094 9.191406 C 19.433594 9.191406 19.597656 9.125 19.730469 8.988281 C 19.863281 8.855469 19.933594 8.695312 19.933594 8.503906 C 19.933594 8.316406 19.867188 8.152344 19.730469 8.019531 C 19.597656 7.882812 19.4375 7.816406 19.246094 7.816406 C 19.054688 7.816406 18.894531 7.882812 18.761719 8.019531 C 18.625 8.152344 18.558594 8.3125 18.558594 8.503906 C 18.558594 8.695312 18.625 8.855469 18.761719 8.988281 C 18.894531 9.125 19.054688 9.191406 19.246094 9.191406 Z M 17.246094 7.128906 C 17.417969 7.128906 17.5625 7.066406 17.6875 6.945312 C 17.808594 6.824219 17.867188 6.675781 17.867188 6.503906 C 17.867188 6.332031 17.808594 6.1875 17.6875 6.066406 C 17.5625 5.945312 17.417969 5.882812 17.246094 5.882812 C 17.074219 5.882812 16.925781 5.945312 16.804688 6.066406 C 16.683594 6.1875 16.625 6.332031 16.625 6.503906 C 16.625 6.675781 16.683594 6.824219 16.804688 6.945312 C 16.925781 7.066406 17.074219 7.128906 17.246094 7.128906 Z M 15.246094 5.0625 C 15.402344 5.0625 15.53125 5.007812 15.640625 4.898438 C 15.75 4.789062 15.804688 4.65625 15.804688 4.503906 C 15.804688 4.347656 15.75 4.214844 15.640625 4.105469 C 15.53125 3.996094 15.402344 3.941406 15.246094 3.941406 C 15.089844 3.941406 14.957031 3.996094 14.847656 4.105469 C 14.738281 4.214844 14.683594 4.347656 14.683594 4.503906 C 14.683594 4.65625 14.738281 4.789062 14.847656 4.898438 C 14.957031 5.007812 15.089844 5.0625 15.246094 5.0625 Z M 13.246094 3 C 13.386719 3 13.503906 2.953125 13.601562 2.855469 C 13.699219 2.757812 13.746094 2.640625 13.746094 2.503906 C 13.746094 2.363281 13.699219 2.246094 13.601562 2.148438 C 13.503906 2.050781 13.386719 2.003906 13.246094 2.003906 C 13.109375 2.003906 12.992188 2.050781 12.894531 2.148438 C 12.796875 2.246094 12.75 2.363281 12.75 2.503906 C 12.75 2.640625 12.796875 2.757812 12.894531 2.855469 C 12.992188 2.953125 13.109375 3 13.246094 3 Z M 11.246094 0.9375 C 11.367188 0.9375 11.46875 0.894531 11.554688 0.808594 C 11.640625 0.726562 11.679688 0.621094 11.679688 0.5 C 11.679688 0.382812 11.636719 0.277344 11.554688 0.195312 C 11.46875 0.109375 11.367188 0.0664062 11.246094 0.0664062 C 11.125 0.0664062 11.023438 0.109375 10.9375 0.195312 C 10.851562 0.28125 10.808594 0.382812 10.808594 0.503906 C 10.808594 0.625 10.851562 0.726562 10.9375 0.8125 C 11.023438 0.894531 11.125 0.9375 11.246094 0.9375 Z M 31.273438 15.566406 C 31.015625 15.566406 30.792969 15.65625 30.609375 15.839844 C 30.425781 16.023438 30.335938 16.246094 30.332031 16.503906 C 30.332031 16.761719 30.425781 16.984375 30.605469 17.167969 C 30.789062 17.351562 31.011719 17.445312 31.269531 17.445312 C 31.527344 17.445312 31.75 17.351562 31.933594 17.171875 C 32.117188 16.988281 32.210938 16.765625 32.210938 16.507812 C 32.210938 16.25 32.121094 16.027344 31.9375 15.84375 C 31.753906 15.660156 31.53125 15.566406 31.273438 15.566406 Z M 29.273438 15.378906 C 29.515625 15.378906 29.71875 15.292969 29.890625 15.125 C 30.0625 14.953125 30.148438 14.746094 30.148438 14.503906 C 30.148438 14.261719 30.0625 14.054688 29.890625 13.886719 C 29.71875 13.714844 29.515625 13.628906 29.273438 13.628906 C 29.03125 13.628906 28.824219 13.714844 28.652344 13.886719 C 28.480469 14.058594 28.398438 14.261719 28.398438 14.503906 C 28.398438 14.746094 28.480469 14.953125 28.652344 15.125 C 28.824219 15.292969 29.03125 15.378906 29.273438 15.378906 Z M 27.273438 13.316406 C 27.496094 13.316406 27.6875 13.238281 27.847656 13.078125 C 28.003906 12.921875 28.085938 12.730469 28.085938 12.503906 C 28.085938 12.28125 28.003906 12.089844 27.847656 11.929688 C 27.6875 11.773438 27.496094 11.691406 27.273438 11.691406 C 27.046875 11.691406 26.855469 11.773438 26.699219 11.929688 C 26.539062 12.089844 26.460938 12.28125 26.460938 12.503906 C 26.460938 12.730469 26.539062 12.921875 26.699219 13.078125 C 26.855469 13.238281 27.046875 13.316406 27.273438 13.316406 Z M 25.273438 11.253906 C 25.480469 11.253906 25.65625 11.179688 25.800781 11.035156 C 25.949219 10.886719 26.019531 10.710938 26.019531 10.503906 C 26.019531 10.296875 25.949219 10.121094 25.800781 9.972656 C 25.65625 9.828125 25.480469 9.753906 25.273438 9.753906 C 25.066406 9.753906 24.886719 9.828125 24.742188 9.972656 C 24.59375 10.121094 24.523438 10.296875 24.523438 10.503906 C 24.523438 10.710938 24.59375 10.886719 24.742188 11.035156 C 24.886719 11.179688 25.066406 11.253906 25.273438 11.253906 Z M 23.269531 9.191406 C 23.460938 9.191406 23.625 9.125 23.757812 8.988281 C 23.890625 8.855469 23.957031 8.695312 23.960938 8.503906 C 23.960938 8.316406 23.890625 8.152344 23.757812 8.019531 C 23.625 7.882812 23.460938 7.816406 23.273438 7.816406 C 23.082031 7.816406 22.921875 7.882812 22.785156 8.019531 C 22.652344 8.152344 22.585938 8.3125 22.585938 8.503906 C 22.585938 8.695312 22.652344 8.855469 22.785156 8.988281 C 22.921875 9.125 23.082031 9.191406 23.269531 9.191406 Z M 21.269531 7.128906 C 21.441406 7.128906 21.589844 7.066406 21.710938 6.945312 C 21.832031 6.824219 21.894531 6.675781 21.894531 6.503906 C 21.894531 6.332031 21.832031 6.1875 21.710938 6.066406 C 21.589844 5.945312 21.441406 5.882812 21.269531 5.882812 C 21.097656 5.882812 20.953125 5.945312 20.832031 6.066406 C 20.710938 6.1875 20.648438 6.332031 20.648438 6.503906 C 20.648438 6.675781 20.710938 6.824219 20.832031 6.945312 C 20.953125 7.066406 21.097656 7.128906 21.269531 7.128906 Z M 19.269531 5.0625 C 19.425781 5.0625 19.558594 5.007812 19.667969 4.898438 C 19.777344 4.789062 19.832031 4.65625 19.832031 4.503906 C 19.832031 4.347656 19.777344 4.214844 19.667969 4.105469 C 19.558594 3.996094 19.425781 3.941406 19.269531 3.941406 C 19.117188 3.941406 18.984375 3.996094 18.875 4.105469 C 18.765625 4.214844 18.710938 4.347656 18.710938 4.503906 C 18.710938 4.65625 18.765625 4.789062 18.875 4.898438 C 18.984375 5.007812 19.117188 5.0625 19.269531 5.0625 Z M 17.269531 3 C 17.40625 3 17.527344 2.953125 17.621094 2.855469 C 17.71875 2.757812 17.769531 2.640625 17.769531 2.503906 C 17.769531 2.363281 17.722656 2.246094 17.625 2.148438 C 17.527344 2.050781 17.410156 2.003906 17.269531 2.003906 C 17.132812 2.003906 17.015625 2.050781 16.917969 2.148438 C 16.820312 2.246094 16.773438 2.363281 16.773438 2.503906 C 16.773438 2.640625 16.820312 2.757812 16.917969 2.855469 C 17.015625 2.953125 17.132812 3 17.269531 3 Z M 15.269531 0.9375 C 15.390625 0.9375 15.492188 0.894531 15.578125 0.808594 C 15.664062 0.726562 15.707031 0.621094 15.707031 0.5 C 15.707031 0.382812 15.664062 0.277344 15.578125 0.195312 C 15.492188 0.109375 15.390625 0.0664062 15.269531 0.0664062 C 15.148438 0.0664062 15.046875 0.109375 14.960938 0.195312 C 14.878906 0.28125 14.835938 0.382812 14.835938 0.503906 C 14.835938 0.625 14.878906 0.726562 14.960938 0.8125 C 15.046875 0.894531 15.148438 0.9375 15.269531 0.9375 Z M 15.269531 0.9375 " clip-rule="nonzero"/></clipPath><linearGradient x1="354.609981" gradientTransform="matrix(0.0888679, 0, 0, 0.0888679, 2.760577, 0.0676401)" y1="207.48" x2="-0.0118374" gradientUnits="userSpaceOnUse" y2="207.48" id="8539c4c12e"><stop stop-opacity="1" stop-color="rgb(100%, 0%, 78.799438%)" offset="0"/><stop stop-opacity="1" stop-color="rgb(100%, 0%, 78.799438%)" offset="0.0625"/><stop stop-opacity="1" stop-color="rgb(100%, 0%, 78.799438%)" offset="0.09375"/><stop stop-opacity="1" stop-color="rgb(100%, 0%, 78.799438%)" offset="0.101563"/><stop stop-opacity="1" stop-color="rgb(99.980164%, 0.364685%, 78.860474%)" offset="0.105469"/><stop stop-opacity="1" stop-color="rgb(99.960327%, 0.730896%, 78.923035%)" offset="0.109375"/><stop stop-opacity="1" stop-color="rgb(99.938965%, 1.127625%, 78.990173%)" offset="0.113281"/><stop stop-opacity="1" stop-color="rgb(99.917603%, 1.524353%, 79.057312%)" offset="0.117188"/><stop stop-opacity="1" stop-color="rgb(99.89624%, 1.921082%, 79.124451%)" offset="0.121094"/><stop stop-opacity="1" stop-color="rgb(99.874878%, 2.31781%, 79.193115%)" offset="0.125"/><stop stop-opacity="1" stop-color="rgb(99.853516%, 2.714539%, 79.260254%)" offset="0.128906"/><stop stop-opacity="1" stop-color="rgb(99.832153%, 3.111267%, 79.327393%)" offset="0.132813"/><stop stop-opacity="1" stop-color="rgb(99.810791%, 3.507996%, 79.394531%)" offset="0.136719"/><stop stop-opacity="1" stop-color="rgb(99.789429%, 3.904724%, 79.46167%)" offset="0.140625"/><stop stop-opacity="1" stop-color="rgb(99.768066%, 4.301453%, 79.528809%)" offset="0.144531"/><stop stop-opacity="1" stop-color="rgb(99.746704%, 4.698181%, 79.595947%)" offset="0.148438"/><stop stop-opacity="1" stop-color="rgb(99.725342%, 5.09491%, 79.663086%)" offset="0.152344"/><stop stop-opacity="1" stop-color="rgb(99.703979%, 5.491638%, 79.730225%)" offset="0.15625"/><stop stop-opacity="1" stop-color="rgb(99.682617%, 5.888367%, 79.797363%)" offset="0.160156"/><stop stop-opacity="1" stop-color="rgb(99.661255%, 6.285095%, 79.866028%)" offset="0.164062"/><stop stop-opacity="1" stop-color="rgb(99.639893%, 6.681824%, 79.933167%)" offset="0.167969"/><stop stop-opacity="1" stop-color="rgb(99.61853%, 7.078552%, 80.000305%)" offset="0.171875"/><stop stop-opacity="1" stop-color="rgb(99.597168%, 7.475281%, 80.067444%)" offset="0.175781"/><stop stop-opacity="1" stop-color="rgb(99.575806%, 7.872009%, 80.134583%)" offset="0.179688"/><stop stop-opacity="1" stop-color="rgb(99.554443%, 8.267212%, 80.201721%)" offset="0.183594"/><stop stop-opacity="1" stop-color="rgb(99.533081%, 8.66394%, 80.26886%)" offset="0.1875"/><stop stop-opacity="1" stop-color="rgb(99.511719%, 9.060669%, 80.335999%)" offset="0.191406"/><stop stop-opacity="1" stop-color="rgb(99.490356%, 9.457397%, 80.404663%)" offset="0.195312"/><stop stop-opacity="1" stop-color="rgb(99.468994%, 9.854126%, 80.471802%)" offset="0.199219"/><stop stop-opacity="1" stop-color="rgb(99.447632%, 10.250854%, 80.53894%)" offset="0.203125"/><stop stop-opacity="1" stop-color="rgb(99.42627%, 10.647583%, 80.606079%)" offset="0.207031"/><stop stop-opacity="1" stop-color="rgb(99.404907%, 11.044312%, 80.673218%)" offset="0.210938"/><stop stop-opacity="1" stop-color="rgb(99.383545%, 11.44104%, 80.740356%)" offset="0.214844"/><stop stop-opacity="1" stop-color="rgb(99.363708%, 11.837769%, 80.807495%)" offset="0.21875"/><stop stop-opacity="1" stop-color="rgb(99.342346%, 12.234497%, 80.874634%)" offset="0.222656"/><stop stop-opacity="1" stop-color="rgb(99.320984%, 12.631226%, 80.941772%)" offset="0.226562"/><stop stop-opacity="1" stop-color="rgb(99.299622%, 13.027954%, 81.008911%)" offset="0.230469"/><stop stop-opacity="1" stop-color="rgb(99.278259%, 13.424683%, 81.077576%)" offset="0.234375"/><stop stop-opacity="1" stop-color="rgb(99.256897%, 13.821411%, 81.144714%)" offset="0.238281"/><stop stop-opacity="1" stop-color="rgb(99.235535%, 14.21814%, 81.211853%)" offset="0.242188"/><stop stop-opacity="1" stop-color="rgb(99.214172%, 14.614868%, 81.278992%)" offset="0.246094"/><stop stop-opacity="1" stop-color="rgb(99.19281%, 15.011597%, 81.34613%)" offset="0.25"/><stop stop-opacity="1" stop-color="rgb(99.171448%, 15.408325%, 81.413269%)" offset="0.253906"/><stop stop-opacity="1" stop-color="rgb(99.150085%, 15.805054%, 81.480408%)" offset="0.257812"/><stop stop-opacity="1" stop-color="rgb(99.128723%, 16.201782%, 81.547546%)" offset="0.261719"/><stop stop-opacity="1" stop-color="rgb(99.107361%, 16.598511%, 81.614685%)" offset="0.265625"/><stop stop-opacity="1" stop-color="rgb(99.085999%, 16.995239%, 81.681824%)" offset="0.269531"/><stop stop-opacity="1" stop-color="rgb(99.064636%, 17.391968%, 81.750488%)" offset="0.273438"/><stop stop-opacity="1" stop-color="rgb(99.043274%, 17.78717%, 81.817627%)" offset="0.277344"/><stop stop-opacity="1" stop-color="rgb(99.021912%, 18.183899%, 81.884766%)" offset="0.28125"/><stop stop-opacity="1" stop-color="rgb(99.000549%, 18.580627%, 81.951904%)" offset="0.285156"/><stop stop-opacity="1" stop-color="rgb(98.979187%, 18.977356%, 82.019043%)" offset="0.289062"/><stop stop-opacity="1" stop-color="rgb(98.957825%, 19.374084%, 82.086182%)" offset="0.292969"/><stop stop-opacity="1" stop-color="rgb(98.936462%, 19.770813%, 82.15332%)" offset="0.296875"/><stop stop-opacity="1" stop-color="rgb(98.9151%, 20.167542%, 82.220459%)" offset="0.300781"/><stop stop-opacity="1" stop-color="rgb(98.893738%, 20.56427%, 82.287598%)" offset="0.304687"/><stop stop-opacity="1" stop-color="rgb(98.872375%, 20.960999%, 82.354736%)" offset="0.308594"/><stop stop-opacity="1" stop-color="rgb(98.851013%, 21.357727%, 82.423401%)" offset="0.3125"/><stop stop-opacity="1" stop-color="rgb(98.829651%, 21.754456%, 82.49054%)" offset="0.316406"/><stop stop-opacity="1" stop-color="rgb(98.808289%, 22.151184%, 82.557678%)" offset="0.320312"/><stop stop-opacity="1" stop-color="rgb(98.786926%, 22.547913%, 82.624817%)" offset="0.324219"/><stop stop-opacity="1" stop-color="rgb(98.765564%, 22.944641%, 82.691956%)" offset="0.328125"/><stop stop-opacity="1" stop-color="rgb(98.744202%, 23.34137%, 82.759094%)" offset="0.332031"/><stop stop-opacity="1" stop-color="rgb(98.722839%, 23.738098%, 82.826233%)" offset="0.335938"/><stop stop-opacity="1" stop-color="rgb(98.701477%, 24.134827%, 82.893372%)" offset="0.339844"/><stop stop-opacity="1" stop-color="rgb(98.680115%, 24.531555%, 82.96051%)" offset="0.34375"/><stop stop-opacity="1" stop-color="rgb(98.658752%, 24.928284%, 83.027649%)" offset="0.347656"/><stop stop-opacity="1" stop-color="rgb(98.638916%, 25.325012%, 83.096313%)" offset="0.351562"/><stop stop-opacity="1" stop-color="rgb(98.617554%, 25.721741%, 83.163452%)" offset="0.355469"/><stop stop-opacity="1" stop-color="rgb(98.596191%, 26.118469%, 83.230591%)" offset="0.359375"/><stop stop-opacity="1" stop-color="rgb(98.574829%, 26.515198%, 83.297729%)" offset="0.363281"/><stop stop-opacity="1" stop-color="rgb(98.553467%, 26.911926%, 83.364868%)" offset="0.367188"/><stop stop-opacity="1" stop-color="rgb(98.532104%, 27.308655%, 83.432007%)" offset="0.371094"/><stop stop-opacity="1" stop-color="rgb(98.510742%, 27.705383%, 83.499146%)" offset="0.375"/><stop stop-opacity="1" stop-color="rgb(98.48938%, 28.100586%, 83.566284%)" offset="0.378906"/><stop stop-opacity="1" stop-color="rgb(98.468018%, 28.497314%, 83.633423%)" offset="0.382812"/><stop stop-opacity="1" stop-color="rgb(98.446655%, 28.894043%, 83.700562%)" offset="0.386719"/><stop stop-opacity="1" stop-color="rgb(98.425293%, 29.290771%, 83.769226%)" offset="0.390625"/><stop stop-opacity="1" stop-color="rgb(98.403931%, 29.6875%, 83.836365%)" offset="0.394531"/><stop stop-opacity="1" stop-color="rgb(98.382568%, 30.084229%, 83.903503%)" offset="0.398438"/><stop stop-opacity="1" stop-color="rgb(98.361206%, 30.480957%, 83.970642%)" offset="0.402344"/><stop stop-opacity="1" stop-color="rgb(98.339844%, 30.877686%, 84.037781%)" offset="0.40625"/><stop stop-opacity="1" stop-color="rgb(98.318481%, 31.274414%, 84.104919%)" offset="0.410156"/><stop stop-opacity="1" stop-color="rgb(98.297119%, 31.671143%, 84.172058%)" offset="0.414062"/><stop stop-opacity="1" stop-color="rgb(98.275757%, 32.067871%, 84.239197%)" offset="0.417969"/><stop stop-opacity="1" stop-color="rgb(98.254395%, 32.4646%, 84.306335%)" offset="0.421875"/><stop stop-opacity="1" stop-color="rgb(98.233032%, 32.861328%, 84.373474%)" offset="0.425781"/><stop stop-opacity="1" stop-color="rgb(98.21167%, 33.258057%, 84.442139%)" offset="0.429688"/><stop stop-opacity="1" stop-color="rgb(98.190308%, 33.654785%, 84.509277%)" offset="0.433594"/><stop stop-opacity="1" stop-color="rgb(98.168945%, 34.051514%, 84.576416%)" offset="0.4375"/><stop stop-opacity="1" stop-color="rgb(98.147583%, 34.448242%, 84.643555%)" offset="0.441406"/><stop stop-opacity="1" stop-color="rgb(98.126221%, 34.844971%, 84.710693%)" offset="0.445312"/><stop stop-opacity="1" stop-color="rgb(98.104858%, 35.241699%, 84.777832%)" offset="0.449219"/><stop stop-opacity="1" stop-color="rgb(98.083496%, 35.638428%, 84.844971%)" offset="0.453125"/><stop stop-opacity="1" stop-color="rgb(98.062134%, 36.035156%, 84.912109%)" offset="0.457031"/><stop stop-opacity="1" stop-color="rgb(98.040771%, 36.431885%, 84.980774%)" offset="0.460938"/><stop stop-opacity="1" stop-color="rgb(98.019409%, 36.828613%, 85.047913%)" offset="0.464844"/><stop stop-opacity="1" stop-color="rgb(97.998047%, 37.225342%, 85.115051%)" offset="0.46875"/><stop stop-opacity="1" stop-color="rgb(97.976685%, 37.620544%, 85.18219%)" offset="0.472656"/><stop stop-opacity="1" stop-color="rgb(97.955322%, 38.017273%, 85.249329%)" offset="0.476562"/><stop stop-opacity="1" stop-color="rgb(97.93396%, 38.414001%, 85.316467%)" offset="0.480469"/><stop stop-opacity="1" stop-color="rgb(97.914124%, 38.81073%, 85.383606%)" offset="0.484375"/><stop stop-opacity="1" stop-color="rgb(97.892761%, 39.207458%, 85.450745%)" offset="0.488281"/><stop stop-opacity="1" stop-color="rgb(97.871399%, 39.604187%, 85.517883%)" offset="0.492188"/><stop stop-opacity="1" stop-color="rgb(97.850037%, 40.000916%, 85.585022%)" offset="0.496094"/><stop stop-opacity="1" stop-color="rgb(97.828674%, 40.397644%, 85.653687%)" offset="0.5"/><stop stop-opacity="1" stop-color="rgb(97.807312%, 40.794373%, 85.720825%)" offset="0.503906"/><stop stop-opacity="1" stop-color="rgb(97.78595%, 41.191101%, 85.787964%)" offset="0.507812"/><stop stop-opacity="1" stop-color="rgb(97.764587%, 41.58783%, 85.855103%)" offset="0.511719"/><stop stop-opacity="1" stop-color="rgb(97.743225%, 41.984558%, 85.922241%)" offset="0.515625"/><stop stop-opacity="1" stop-color="rgb(97.721863%, 42.381287%, 85.98938%)" offset="0.519531"/><stop stop-opacity="1" stop-color="rgb(97.7005%, 42.778015%, 86.056519%)" offset="0.523438"/><stop stop-opacity="1" stop-color="rgb(97.679138%, 43.174744%, 86.123657%)" offset="0.527344"/><stop stop-opacity="1" stop-color="rgb(97.657776%, 43.571472%, 86.190796%)" offset="0.53125"/><stop stop-opacity="1" stop-color="rgb(97.636414%, 43.968201%, 86.257935%)" offset="0.535156"/><stop stop-opacity="1" stop-color="rgb(97.615051%, 44.364929%, 86.326599%)" offset="0.539062"/><stop stop-opacity="1" stop-color="rgb(97.593689%, 44.761658%, 86.393738%)" offset="0.542969"/><stop stop-opacity="1" stop-color="rgb(97.572327%, 45.158386%, 86.460876%)" offset="0.546875"/><stop stop-opacity="1" stop-color="rgb(97.550964%, 45.555115%, 86.528015%)" offset="0.550781"/><stop stop-opacity="1" stop-color="rgb(97.529602%, 45.951843%, 86.595154%)" offset="0.554688"/><stop stop-opacity="1" stop-color="rgb(97.50824%, 46.348572%, 86.662292%)" offset="0.558594"/><stop stop-opacity="1" stop-color="rgb(97.486877%, 46.7453%, 86.729431%)" offset="0.5625"/><stop stop-opacity="1" stop-color="rgb(97.465515%, 47.142029%, 86.79657%)" offset="0.566406"/><stop stop-opacity="1" stop-color="rgb(97.444153%, 47.538757%, 86.863708%)" offset="0.570313"/><stop stop-opacity="1" stop-color="rgb(97.422791%, 47.93396%, 86.930847%)" offset="0.574219"/><stop stop-opacity="1" stop-color="rgb(97.401428%, 48.330688%, 86.999512%)" offset="0.578125"/><stop stop-opacity="1" stop-color="rgb(97.380066%, 48.727417%, 87.06665%)" offset="0.582031"/><stop stop-opacity="1" stop-color="rgb(97.358704%, 49.124146%, 87.133789%)" offset="0.585938"/><stop stop-opacity="1" stop-color="rgb(97.337341%, 49.520874%, 87.200928%)" offset="0.589844"/><stop stop-opacity="1" stop-color="rgb(97.315979%, 49.917603%, 87.268066%)" offset="0.59375"/><stop stop-opacity="1" stop-color="rgb(97.294617%, 50.314331%, 87.335205%)" offset="0.597656"/><stop stop-opacity="1" stop-color="rgb(97.273254%, 50.71106%, 87.402344%)" offset="0.601562"/><stop stop-opacity="1" stop-color="rgb(97.251892%, 51.107788%, 87.469482%)" offset="0.605469"/><stop stop-opacity="1" stop-color="rgb(97.232056%, 51.504517%, 87.536621%)" offset="0.609375"/><stop stop-opacity="1" stop-color="rgb(97.210693%, 51.901245%, 87.60376%)" offset="0.613281"/><stop stop-opacity="1" stop-color="rgb(97.189331%, 52.297974%, 87.672424%)" offset="0.617188"/><stop stop-opacity="1" stop-color="rgb(97.167969%, 52.694702%, 87.739563%)" offset="0.621094"/><stop stop-opacity="1" stop-color="rgb(97.146606%, 53.091431%, 87.806702%)" offset="0.625"/><stop stop-opacity="1" stop-color="rgb(97.125244%, 53.488159%, 87.87384%)" offset="0.628906"/><stop stop-opacity="1" stop-color="rgb(97.103882%, 53.884888%, 87.940979%)" offset="0.632812"/><stop stop-opacity="1" stop-color="rgb(97.08252%, 54.281616%, 88.008118%)" offset="0.636719"/><stop stop-opacity="1" stop-color="rgb(97.061157%, 54.678345%, 88.075256%)" offset="0.640625"/><stop stop-opacity="1" stop-color="rgb(97.039795%, 55.075073%, 88.142395%)" offset="0.644531"/><stop stop-opacity="1" stop-color="rgb(97.018433%, 55.471802%, 88.209534%)" offset="0.648438"/><stop stop-opacity="1" stop-color="rgb(96.99707%, 55.86853%, 88.276672%)" offset="0.652344"/><stop stop-opacity="1" stop-color="rgb(96.975708%, 56.265259%, 88.345337%)" offset="0.65625"/><stop stop-opacity="1" stop-color="rgb(96.954346%, 56.661987%, 88.412476%)" offset="0.660156"/><stop stop-opacity="1" stop-color="rgb(96.932983%, 57.058716%, 88.479614%)" offset="0.664062"/><stop stop-opacity="1" stop-color="rgb(96.911621%, 57.453918%, 88.546753%)" offset="0.667969"/><stop stop-opacity="1" stop-color="rgb(96.890259%, 57.850647%, 88.613892%)" offset="0.671875"/><stop stop-opacity="1" stop-color="rgb(96.868896%, 58.247375%, 88.68103%)" offset="0.675781"/><stop stop-opacity="1" stop-color="rgb(96.847534%, 58.644104%, 88.748169%)" offset="0.679688"/><stop stop-opacity="1" stop-color="rgb(96.826172%, 59.040833%, 88.815308%)" offset="0.683594"/><stop stop-opacity="1" stop-color="rgb(96.80481%, 59.437561%, 88.882446%)" offset="0.6875"/><stop stop-opacity="1" stop-color="rgb(96.783447%, 59.83429%, 88.949585%)" offset="0.691406"/><stop stop-opacity="1" stop-color="rgb(96.762085%, 60.231018%, 89.01825%)" offset="0.695313"/><stop stop-opacity="1" stop-color="rgb(96.740723%, 60.627747%, 89.085388%)" offset="0.699219"/><stop stop-opacity="1" stop-color="rgb(96.71936%, 61.024475%, 89.152527%)" offset="0.703125"/><stop stop-opacity="1" stop-color="rgb(96.697998%, 61.421204%, 89.219666%)" offset="0.707031"/><stop stop-opacity="1" stop-color="rgb(96.676636%, 61.817932%, 89.286804%)" offset="0.710938"/><stop stop-opacity="1" stop-color="rgb(96.655273%, 62.214661%, 89.353943%)" offset="0.714844"/><stop stop-opacity="1" stop-color="rgb(96.633911%, 62.611389%, 89.421082%)" offset="0.71875"/><stop stop-opacity="1" stop-color="rgb(96.612549%, 63.008118%, 89.48822%)" offset="0.722656"/><stop stop-opacity="1" stop-color="rgb(96.591187%, 63.404846%, 89.556885%)" offset="0.726562"/><stop stop-opacity="1" stop-color="rgb(96.569824%, 63.801575%, 89.624023%)" offset="0.730469"/><stop stop-opacity="1" stop-color="rgb(96.548462%, 64.198303%, 89.691162%)" offset="0.734375"/><stop stop-opacity="1" stop-color="rgb(96.5271%, 64.595032%, 89.758301%)" offset="0.738281"/><stop stop-opacity="1" stop-color="rgb(96.507263%, 64.99176%, 89.825439%)" offset="0.742188"/><stop stop-opacity="1" stop-color="rgb(96.485901%, 65.388489%, 89.892578%)" offset="0.746094"/><stop stop-opacity="1" stop-color="rgb(96.464539%, 65.785217%, 89.959717%)" offset="0.75"/><stop stop-opacity="1" stop-color="rgb(96.443176%, 66.181946%, 90.026855%)" offset="0.753906"/><stop stop-opacity="1" stop-color="rgb(96.421814%, 66.578674%, 90.093994%)" offset="0.757812"/><stop stop-opacity="1" stop-color="rgb(96.400452%, 66.975403%, 90.161133%)" offset="0.761719"/><stop stop-opacity="1" stop-color="rgb(96.379089%, 67.372131%, 90.229797%)" offset="0.765625"/><stop stop-opacity="1" stop-color="rgb(96.357727%, 67.767334%, 90.296936%)" offset="0.769531"/><stop stop-opacity="1" stop-color="rgb(96.336365%, 68.164062%, 90.364075%)" offset="0.773438"/><stop stop-opacity="1" stop-color="rgb(96.315002%, 68.560791%, 90.431213%)" offset="0.777344"/><stop stop-opacity="1" stop-color="rgb(96.29364%, 68.95752%, 90.498352%)" offset="0.78125"/><stop stop-opacity="1" stop-color="rgb(96.272278%, 69.354248%, 90.565491%)" offset="0.785156"/><stop stop-opacity="1" stop-color="rgb(96.250916%, 69.750977%, 90.632629%)" offset="0.789062"/><stop stop-opacity="1" stop-color="rgb(96.229553%, 70.147705%, 90.699768%)" offset="0.792969"/><stop stop-opacity="1" stop-color="rgb(96.208191%, 70.544434%, 90.766907%)" offset="0.796875"/><stop stop-opacity="1" stop-color="rgb(96.186829%, 70.941162%, 90.834045%)" offset="0.800781"/><stop stop-opacity="1" stop-color="rgb(96.165466%, 71.337891%, 90.90271%)" offset="0.804688"/><stop stop-opacity="1" stop-color="rgb(96.144104%, 71.734619%, 90.969849%)" offset="0.808594"/><stop stop-opacity="1" stop-color="rgb(96.122742%, 72.131348%, 91.036987%)" offset="0.8125"/><stop stop-opacity="1" stop-color="rgb(96.101379%, 72.528076%, 91.104126%)" offset="0.816406"/><stop stop-opacity="1" stop-color="rgb(96.080017%, 72.924805%, 91.171265%)" offset="0.820313"/><stop stop-opacity="1" stop-color="rgb(96.058655%, 73.321533%, 91.238403%)" offset="0.824219"/><stop stop-opacity="1" stop-color="rgb(96.037292%, 73.718262%, 91.305542%)" offset="0.828125"/><stop stop-opacity="1" stop-color="rgb(96.01593%, 74.11499%, 91.372681%)" offset="0.832031"/><stop stop-opacity="1" stop-color="rgb(95.994568%, 74.511719%, 91.439819%)" offset="0.835938"/><stop stop-opacity="1" stop-color="rgb(95.973206%, 74.908447%, 91.506958%)" offset="0.839844"/><stop stop-opacity="1" stop-color="rgb(95.951843%, 75.305176%, 91.575623%)" offset="0.84375"/><stop stop-opacity="1" stop-color="rgb(95.930481%, 75.701904%, 91.642761%)" offset="0.847656"/><stop stop-opacity="1" stop-color="rgb(95.909119%, 76.098633%, 91.7099%)" offset="0.851563"/><stop stop-opacity="1" stop-color="rgb(95.887756%, 76.495361%, 91.777039%)" offset="0.855469"/><stop stop-opacity="1" stop-color="rgb(95.866394%, 76.89209%, 91.844177%)" offset="0.859375"/><stop stop-opacity="1" stop-color="rgb(95.845032%, 77.287292%, 91.911316%)" offset="0.863281"/><stop stop-opacity="1" stop-color="rgb(95.823669%, 77.684021%, 91.978455%)" offset="0.867188"/><stop stop-opacity="1" stop-color="rgb(95.802307%, 78.08075%, 92.045593%)" offset="0.871094"/><stop stop-opacity="1" stop-color="rgb(95.782471%, 78.477478%, 92.112732%)" offset="0.875"/><stop stop-opacity="1" stop-color="rgb(95.761108%, 78.874207%, 92.179871%)" offset="0.878906"/><stop stop-opacity="1" stop-color="rgb(95.739746%, 79.270935%, 92.248535%)" offset="0.882812"/><stop stop-opacity="1" stop-color="rgb(95.718384%, 79.667664%, 92.315674%)" offset="0.886719"/><stop stop-opacity="1" stop-color="rgb(95.697021%, 80.064392%, 92.382812%)" offset="0.890625"/><stop stop-opacity="1" stop-color="rgb(95.675659%, 80.461121%, 92.449951%)" offset="0.894531"/><stop stop-opacity="1" stop-color="rgb(95.654297%, 80.857849%, 92.51709%)" offset="0.898438"/><stop stop-opacity="1" stop-color="rgb(95.632935%, 81.254578%, 92.584229%)" offset="0.902344"/><stop stop-opacity="1" stop-color="rgb(95.611572%, 81.651306%, 92.651367%)" offset="0.90625"/><stop stop-opacity="1" stop-color="rgb(95.59021%, 82.048035%, 92.718506%)" offset="0.910156"/><stop stop-opacity="1" stop-color="rgb(95.568848%, 82.444763%, 92.785645%)" offset="0.914062"/><stop stop-opacity="1" stop-color="rgb(95.547485%, 82.841492%, 92.852783%)" offset="0.917969"/><stop stop-opacity="1" stop-color="rgb(95.526123%, 83.23822%, 92.921448%)" offset="0.921875"/><stop stop-opacity="1" stop-color="rgb(95.504761%, 83.634949%, 92.988586%)" offset="0.925781"/><stop stop-opacity="1" stop-color="rgb(95.483398%, 84.031677%, 93.055725%)" offset="0.929688"/><stop stop-opacity="1" stop-color="rgb(95.462036%, 84.428406%, 93.122864%)" offset="0.933594"/><stop stop-opacity="1" stop-color="rgb(95.440674%, 84.825134%, 93.190002%)" offset="0.9375"/><stop stop-opacity="1" stop-color="rgb(95.419312%, 85.221863%, 93.257141%)" offset="0.941406"/><stop stop-opacity="1" stop-color="rgb(95.397949%, 85.618591%, 93.32428%)" offset="0.945312"/><stop stop-opacity="1" stop-color="rgb(95.376587%, 86.01532%, 93.391418%)" offset="0.949219"/><stop stop-opacity="1" stop-color="rgb(95.355225%, 86.412048%, 93.458557%)" offset="0.953125"/><stop stop-opacity="1" stop-color="rgb(95.333862%, 86.808777%, 93.525696%)" offset="0.957031"/><stop stop-opacity="1" stop-color="rgb(95.3125%, 87.205505%, 93.59436%)" offset="0.960938"/><stop stop-opacity="1" stop-color="rgb(95.291138%, 87.600708%, 93.661499%)" offset="0.964844"/><stop stop-opacity="1" stop-color="rgb(95.269775%, 87.997437%, 93.728638%)" offset="0.96875"/><stop stop-opacity="1" stop-color="rgb(95.248413%, 88.394165%, 93.795776%)" offset="0.972656"/><stop stop-opacity="1" stop-color="rgb(95.227051%, 88.790894%, 93.862915%)" offset="0.976562"/><stop stop-opacity="1" stop-color="rgb(95.205688%, 89.187622%, 93.930054%)" offset="0.980469"/><stop stop-opacity="1" stop-color="rgb(95.184326%, 89.584351%, 93.997192%)" offset="0.984375"/><stop stop-opacity="1" stop-color="rgb(95.162964%, 89.981079%, 94.064331%)" offset="0.988281"/><stop stop-opacity="1" stop-color="rgb(95.141602%, 90.377808%, 94.13147%)" offset="0.992188"/><stop stop-opacity="1" stop-color="rgb(95.120239%, 90.774536%, 94.198608%)" offset="0.996094"/><stop stop-opacity="1" stop-color="rgb(95.098877%, 91.171265%, 94.267273%)" offset="1"/></linearGradient></defs><g clip-path="url(#ff70ab6bd6)"><g clip-path="url(#d353095c99)"><path fill="url(#8539c4c12e)" d="M 2.757812 0.0664062 L 2.757812 36.945312 L 34.273438 36.945312 L 34.273438 0.0664062 Z M 2.757812 0.0664062 " fill-rule="nonzero"/></g></g></svg>