<svg xmlns="http://www.w3.org/2000/svg" xmlns:xlink="http://www.w3.org/1999/xlink" width="60" zoomAndPan="magnify" viewBox="0 0 45 74.999997" height="100" preserveAspectRatio="xMidYMid meet" version="1.0"><defs><clipPath id="c75f9c87a7"><path d="M 1.296875 0 L 44 0 L 44 75 L 1.296875 75 Z M 1.296875 0 " clip-rule="nonzero"/></clipPath></defs><g clip-path="url(#c75f9c87a7)"><path fill="#000000" d="M 22.839844 70.015625 C 22.746094 69.917969 22.65625 69.816406 22.5625 69.714844 C 21.691406 70.222656 21.691406 70.222656 21.625 71.171875 C 22.03125 70.785156 22.433594 70.402344 22.839844 70.015625 Z M 17.773438 70.089844 C 18.53125 70.492188 19.011719 70.816406 19.539062 71.003906 C 19.773438 71.085938 20.207031 70.980469 20.378906 70.800781 C 20.914062 70.246094 21.371094 69.613281 21.996094 68.84375 C 20.4375 68.867188 19.195312 69.105469 17.773438 70.089844 Z M 23.871094 68.066406 C 23.8125 67.109375 23.09375 66.976562 22.410156 66.949219 C 20.8125 66.886719 19.445312 67.394531 18.386719 68.707031 C 20.234375 68.492188 21.988281 68.285156 23.871094 68.066406 Z M 22.945312 65.699219 C 18.898438 64.589844 16.105469 66.25 16.453125 69.449219 C 17.441406 66.15625 20.503906 66.464844 22.945312 65.699219 Z M 21.382812 64.710938 C 21.957031 64.847656 23.125 65.039062 24.226562 65.410156 C 25.835938 65.953125 26.488281 67.375 25.9375 68.972656 C 25.710938 69.621094 25.417969 70.265625 25.027344 70.820312 C 24.328125 71.816406 23.570312 72.777344 22.765625 73.691406 C 21.769531 74.828125 20.664062 74.988281 19.164062 74.367188 C 18.777344 74.207031 18.347656 74.144531 17.941406 74.023438 C 16.542969 73.605469 15.769531 72.542969 15.753906 71.078125 C 15.742188 70.398438 15.578125 69.710938 15.636719 69.039062 C 15.886719 66.320312 17.972656 64.585938 21.382812 64.710938 Z M 8.089844 15.714844 C 8.011719 15.640625 7.933594 15.566406 7.855469 15.492188 C 7.628906 15.800781 7.402344 16.105469 7.175781 16.414062 C 7.246094 16.46875 7.3125 16.519531 7.378906 16.574219 C 7.617188 16.285156 7.851562 16 8.089844 15.714844 Z M 30.214844 9.503906 C 30.167969 9.585938 30.121094 9.667969 30.078125 9.753906 C 30.347656 9.902344 30.613281 10.054688 30.882812 10.203125 C 30.933594 10.113281 30.984375 10.019531 31.039062 9.925781 C 30.761719 9.785156 30.488281 9.644531 30.214844 9.503906 Z M 20.871094 47.152344 C 20.988281 47.234375 21.105469 47.3125 21.222656 47.394531 C 21.359375 47.140625 21.496094 46.890625 21.632812 46.636719 C 21.535156 46.582031 21.4375 46.53125 21.339844 46.476562 C 21.183594 46.703125 21.027344 46.925781 20.871094 47.152344 Z M 31.769531 38.789062 C 31.710938 38.742188 31.652344 38.699219 31.59375 38.652344 C 31.371094 38.929688 31.144531 39.210938 30.917969 39.488281 C 30.976562 39.535156 31.03125 39.582031 31.089844 39.625 C 31.316406 39.347656 31.542969 39.070312 31.769531 38.789062 Z M 31.097656 31.230469 C 30.996094 31.171875 30.894531 31.113281 30.792969 31.054688 C 30.523438 31.488281 30.253906 31.925781 29.980469 32.363281 C 30.085938 32.425781 30.191406 32.492188 30.296875 32.554688 C 30.5625 32.113281 30.832031 31.671875 31.097656 31.230469 Z M 33.199219 12.503906 C 33.175781 11.460938 33.175781 11.460938 32.425781 10.878906 C 32.730469 11.515625 32.964844 12.007812 33.199219 12.503906 Z M 19.429688 8 C 19.316406 7.859375 19.203125 7.71875 19.089844 7.578125 C 18.6875 7.90625 18.28125 8.238281 17.878906 8.570312 C 17.941406 8.660156 18.007812 8.75 18.070312 8.839844 C 18.523438 8.558594 18.976562 8.28125 19.429688 8 Z M 33.851562 31.390625 C 34.011719 31.488281 34.167969 31.582031 34.328125 31.679688 C 34.5625 31.203125 34.792969 30.726562 35.027344 30.25 C 34.914062 30.191406 34.800781 30.132812 34.6875 30.070312 C 34.410156 30.511719 34.128906 30.953125 33.851562 31.390625 Z M 20.316406 51.800781 C 20.152344 53.019531 20.160156 53.015625 20.777344 53.730469 C 20.644531 53.035156 21.101562 52.410156 20.316406 51.800781 Z M 38.519531 15.863281 C 38.667969 14.496094 38.667969 14.496094 37.628906 13.421875 C 37.988281 14.410156 38.253906 15.136719 38.519531 15.863281 Z M 21.652344 45.191406 C 22.21875 44.675781 22.785156 44.160156 23.488281 43.523438 C 22 43.226562 21.902344 44.285156 21.652344 45.191406 Z M 12.417969 9.863281 C 12.308594 9.742188 12.199219 9.625 12.089844 9.503906 C 11.472656 10.078125 10.851562 10.652344 10.230469 11.226562 C 10.304688 11.304688 10.378906 11.386719 10.453125 11.46875 C 11.109375 10.933594 11.761719 10.398438 12.417969 9.863281 Z M 25.5 36.335938 C 26.046875 35.644531 26.597656 34.953125 27.144531 34.261719 C 26.226562 34.675781 25.460938 35.207031 25.5 36.335938 Z M 28.472656 35.511719 C 28.410156 35.417969 28.351562 35.324219 28.289062 35.230469 C 27.277344 35.46875 26.875 36.332031 26.484375 37.210938 C 27.148438 36.644531 27.808594 36.078125 28.472656 35.511719 Z M 24.089844 43.824219 C 23.5625 44.523438 23.03125 45.222656 22.308594 46.175781 C 23.632812 45.699219 23.976562 44.851562 24.089844 43.824219 Z M 37.152344 24.640625 C 38.398438 24.203125 38.105469 23.46875 37.949219 22.632812 C 36.964844 23.019531 37.132812 23.714844 37.152344 24.640625 Z M 26.078125 2.269531 C 26.105469 2.398438 26.128906 2.527344 26.15625 2.660156 C 26.964844 2.445312 27.917969 2.882812 28.890625 1.753906 C 27.726562 1.96875 26.902344 2.117188 26.078125 2.269531 Z M 34.703125 15.972656 C 34.804688 17.054688 34.878906 17.855469 34.953125 18.652344 C 35.503906 17.785156 35.796875 16.941406 34.703125 15.972656 Z M 37.542969 19.191406 C 37.40625 19.214844 37.273438 19.238281 37.136719 19.261719 C 37.265625 20.132812 36.851562 21.109375 37.941406 21.8125 C 37.808594 20.9375 37.675781 20.0625 37.542969 19.191406 Z M 20.222656 55.496094 C 20.085938 55.066406 19.949219 54.640625 19.804688 54.214844 C 19.671875 53.820312 19.527344 53.429688 19.386719 53.039062 C 19.199219 54.664062 19.226562 54.746094 20.222656 55.496094 Z M 18.449219 53.742188 C 18.371094 52.621094 18.613281 51.832031 18.15625 50.898438 C 17.699219 51.910156 17.429688 52.695312 18.449219 53.742188 Z M 38.765625 10.402344 C 38.726562 12.597656 39.070312 13.523438 39.972656 13.941406 C 39.550781 12.703125 39.15625 11.554688 38.765625 10.402344 Z M 13.6875 11.457031 C 14.582031 10.871094 15.476562 10.285156 16.371094 9.699219 C 16.300781 9.601562 16.234375 9.503906 16.167969 9.402344 C 15.042969 9.65625 14.269531 10.410156 13.6875 11.457031 Z M 35.996094 29.910156 C 36.53125 29.039062 37.289062 28.222656 37.316406 26.875 C 35.886719 27.609375 36.390625 28.949219 35.996094 29.910156 Z M 17.601562 54.230469 C 17.542969 55.539062 18.015625 56.324219 19.335938 56.832031 C 19.148438 55.597656 18.417969 54.976562 17.601562 54.230469 Z M 30.9375 33.585938 C 32.371094 33.078125 32.710938 32.039062 33.355469 30.832031 C 32.027344 31.441406 31.402344 32.242188 30.9375 33.585938 Z M 40.222656 18.753906 C 40.585938 17.410156 40.996094 16 39.339844 14.648438 C 39.683594 16.238281 39.953125 17.496094 40.222656 18.753906 Z M 34.269531 32.9375 C 34.179688 32.835938 34.085938 32.738281 33.992188 32.636719 C 32.464844 33.230469 31.847656 34.621094 31.03125 35.835938 C 31.113281 35.910156 31.195312 35.988281 31.277344 36.0625 C 32.273438 35.019531 33.273438 33.976562 34.269531 32.9375 Z M 29.726562 2.527344 C 30.988281 2.835938 32.050781 3.09375 33.324219 3.40625 C 32.019531 1.800781 31.695312 1.722656 29.726562 2.527344 Z M 16.863281 44.246094 C 15.789062 45.242188 15.121094 46.414062 15.238281 47.113281 C 15.285156 47.378906 15.597656 47.601562 15.917969 48.015625 C 16.257812 46.65625 16.53125 45.566406 16.863281 44.246094 Z M 29.71875 4.402344 C 28.019531 3.382812 24.625 3.722656 22.304688 5.167969 C 24.929688 4.632812 27.222656 3.527344 29.71875 4.402344 Z M 31.386719 37.445312 C 31.300781 37.363281 31.214844 37.277344 31.128906 37.191406 C 29.875 38.335938 28.265625 39.1875 28.105469 41.234375 C 29.199219 39.972656 30.292969 38.710938 31.386719 37.445312 Z M 21.886719 55.902344 C 22.0625 54.3125 22.234375 52.71875 22.441406 50.808594 C 21.261719 52.714844 20.984375 54.8125 21.886719 55.902344 Z M 25.59375 8.085938 C 28.898438 8.933594 28.898438 8.933594 29.699219 8.613281 C 28.847656 7.652344 27.164062 7.433594 25.59375 8.085938 Z M 40.910156 20.734375 C 40.140625 23.09375 39.367188 25.457031 38.597656 27.816406 C 39.976562 25.683594 40.738281 23.359375 40.910156 20.734375 Z M 6.765625 21.640625 C 7.359375 19.894531 7.925781 18.238281 8.601562 16.253906 C 6.476562 18.832031 6.109375 19.9375 6.765625 21.640625 Z M 40.023438 26.894531 C 41.28125 25.738281 42.144531 21.945312 41.828125 19.921875 C 41.566406 21.152344 41.351562 22.347656 41.050781 23.515625 C 40.753906 24.65625 40.371094 25.769531 40.023438 26.894531 Z M 35.414062 15.507812 C 35.957031 13.484375 35.542969 12.34375 33.878906 11.335938 C 34.457031 12.746094 34.207031 14.273438 35.414062 15.507812 Z M 10.953125 14.488281 C 10.097656 16.011719 9.003906 17.292969 8.941406 19.03125 C 9.871094 17.925781 10.703125 16.78125 11.539062 15.636719 C 11.902344 15.140625 11.597656 14.875 10.953125 14.488281 Z M 28.214844 0.960938 C 25.847656 1.023438 23.777344 1.871094 21.855469 3.1875 C 22.582031 3.160156 23.324219 3.121094 23.976562 2.863281 C 25.382812 2.304688 26.746094 1.628906 28.214844 0.960938 Z M 40.246094 6.582031 C 39.847656 4.328125 37.738281 2.382812 35.847656 2.386719 C 37.246094 3.726562 38.785156 5.191406 40.246094 6.582031 Z M 42.125 13.015625 C 41.277344 14.4375 42.265625 17.40625 42.914062 19.960938 C 43.222656 17.441406 42.984375 15.34375 42.125 13.015625 Z M 27.882812 4.84375 C 28.953125 5.335938 29.863281 5.667969 30.679688 6.160156 C 31.453125 6.621094 32.160156 7.214844 32.835938 7.816406 C 33.503906 8.410156 34.101562 9.089844 34.972656 9.980469 C 34.175781 7.148438 31.074219 4.96875 27.882812 4.84375 Z M 35.964844 25.050781 C 34.257812 26.191406 33.898438 28.148438 33.046875 29.8125 C 34.820312 28.734375 36.097656 27.34375 35.964844 25.050781 Z M 23.613281 42.164062 C 26.214844 40.839844 28.40625 39.085938 29.339844 35.761719 C 27.265625 38.078125 25.441406 40.121094 23.613281 42.164062 Z M 14.804688 48.203125 C 14.675781 50.394531 14.894531 52.316406 16.425781 53.902344 C 16.519531 53.546875 16.511719 53.207031 16.4375 52.882812 C 16.40625 52.722656 16.148438 52.496094 16.183594 52.457031 C 16.957031 51.554688 16.164062 50.628906 16.234375 49.71875 C 16.292969 48.921875 15.867188 48.433594 14.804688 48.203125 Z M 39.894531 7.554688 C 38.230469 5.113281 36.601562 3.222656 33.898438 2.644531 C 34.460938 3.4375 35.046875 4.214844 35.792969 4.789062 C 36.996094 5.710938 38.308594 6.496094 39.894531 7.554688 Z M 27.199219 7.007812 C 27.195312 6.902344 27.195312 6.792969 27.191406 6.6875 C 24.921875 6.136719 22.714844 6.589844 20.546875 7.316406 C 20.320312 7.390625 20.222656 7.84375 19.972656 8.28125 C 22.542969 7.828125 24.871094 7.417969 27.199219 7.007812 Z M 40.03125 27.773438 C 37.976562 29.742188 36.96875 32.257812 36.335938 34.96875 C 38.105469 32.855469 39.277344 30.429688 40.03125 27.773438 Z M 41.203125 15.324219 C 41.382812 10.984375 39.960938 7.769531 37.824219 6.960938 C 38.871094 9.554688 39.96875 12.269531 41.203125 15.324219 Z M 11.917969 14.574219 C 12 14.613281 12.082031 14.652344 12.164062 14.691406 C 13.464844 13.976562 14.710938 13.109375 16.089844 12.59375 C 17.359375 12.117188 17.984375 11.375 18.082031 10.105469 C 18.085938 10.066406 17.929688 10.019531 17.746094 9.925781 C 17.609375 10.304688 17.476562 10.675781 17.300781 11.167969 C 16.21875 10.386719 15.378906 10.972656 14.578125 11.589844 C 13.949219 12.078125 13.324219 12.585938 12.785156 13.167969 C 12.417969 13.5625 12.203125 14.101562 11.917969 14.574219 Z M 33.753906 37.835938 C 30.839844 40.625 27.925781 43.414062 25.011719 46.203125 C 28.773438 44.28125 31.757812 41.570312 33.753906 37.835938 Z M 23.070312 37.820312 C 21.78125 39.078125 20.523438 40.371094 19.195312 41.585938 C 18.03125 42.652344 17.613281 44.0625 17.179688 45.472656 C 17.113281 45.695312 17.265625 45.988281 17.363281 46.496094 C 18.511719 44.910156 19.734375 43.757812 20.367188 42.128906 C 20.992188 40.535156 22.835938 39.679688 23.070312 37.820312 Z M 31.203125 3.59375 C 34.242188 5.507812 35.691406 8.671875 37.71875 11.375 C 37.820312 11 37.875 10.660156 37.757812 10.390625 C 37.144531 8.984375 36.523438 7.578125 35.832031 6.207031 C 34.890625 4.34375 33.132812 3.792969 31.203125 3.59375 Z M 18.324219 11.574219 C 21.324219 10.796875 24.175781 10.058594 27.027344 9.320312 C 24.9375 8.398438 22.898438 8.484375 20.78125 8.914062 C 19.3125 9.214844 18.449219 9.832031 18.324219 11.574219 Z M 8.496094 11.839844 C 8.414062 11.769531 8.332031 11.699219 8.246094 11.632812 C 7.128906 12.738281 5.976562 13.8125 4.894531 14.953125 C 3.75 16.160156 3.132812 17.59375 3.203125 19.292969 C 3.21875 19.707031 3.210938 20.238281 2.976562 20.523438 C 2.183594 21.492188 2.566406 22.4375 2.964844 23.335938 C 3.253906 23.992188 3.472656 24.839844 4.539062 24.980469 C 4.539062 22.527344 3.84375 20.160156 4.722656 17.820312 C 5.566406 15.570312 7.082031 13.738281 8.496094 11.839844 Z M 24.078125 1.011719 C 17.699219 1.15625 8.1875 8.855469 6.296875 12.445312 C 11.9375 8.035156 18.289062 4.949219 24.078125 1.011719 Z M 39.40625 31.597656 C 40.105469 31.273438 40.148438 30.636719 40.011719 29.9375 C 39.820312 30.5 39.628906 31.066406 39.4375 31.628906 C 38.675781 32.601562 38.164062 33.597656 38.042969 34.347656 C 39.097656 33.023438 39.242188 32.738281 39.40625 31.597656 Z M 23.710938 40.308594 C 24.09375 39.878906 24.472656 39.449219 24.855469 39.019531 C 24.765625 38.953125 24.675781 38.886719 24.585938 38.820312 C 24.238281 39.265625 23.890625 39.710938 23.542969 40.152344 C 22.886719 40.523438 22.605469 41.101562 22.679688 41.886719 C 23.023438 41.363281 23.367188 40.835938 23.710938 40.308594 Z M 21.585938 37.355469 C 22.34375 36.808594 23.113281 36.277344 23.859375 35.71875 C 26.585938 33.667969 28.554688 30.925781 30.699219 28.347656 C 31.414062 27.488281 31.957031 26.492188 32.652344 25.613281 C 33.457031 24.605469 33.773438 23.441406 33.871094 22.214844 C 33.992188 20.726562 34.148438 19.226562 34.054688 17.75 C 33.847656 14.449219 32.613281 11.664062 29.457031 10.089844 C 28.980469 9.851562 28.320312 9.730469 27.800781 9.835938 C 23.921875 10.648438 20.070312 11.53125 16.371094 13.039062 C 12.738281 14.519531 10.578125 17.296875 9.011719 20.675781 C 8.84375 21.035156 8.941406 21.507812 8.882812 21.925781 C 8.820312 22.390625 8.882812 23.042969 8.605469 23.273438 C 7.210938 24.4375 7.988281 25.519531 8.585938 26.640625 C 8.628906 26.71875 8.632812 26.824219 8.695312 27.085938 C 7.792969 26.785156 7.65625 26.039062 7.371094 25.417969 C 7.085938 24.8125 6.246094 24.515625 6.386719 23.675781 C 6.507812 22.933594 6.421875 22.25 5.710938 21.449219 C 5.5625 22.644531 5.179688 23.679688 5.398438 24.566406 C 5.617188 25.46875 6.4375 26.226562 7.105469 27.214844 C 6.664062 27.34375 6.257812 27.605469 5.9375 27.527344 C 5.445312 27.410156 4.96875 27.109375 4.574219 26.78125 C 4.308594 26.558594 4.246094 26.109375 4 25.84375 C 1.296875 22.902344 1.660156 19.632812 2.996094 16.296875 C 4.039062 13.683594 5.753906 11.492188 7.765625 9.550781 C 11.011719 6.425781 14.480469 3.585938 18.71875 1.832031 C 21.265625 0.773438 23.9375 0.199219 26.683594 0.0507812 C 27.785156 -0.0117188 28.917969 0.214844 30.019531 0.402344 C 31.222656 0.609375 32.40625 0.929688 33.597656 1.191406 C 34.433594 1.375 35.289062 1.488281 36.109375 1.734375 C 38.46875 2.433594 40.183594 3.886719 40.902344 6.265625 C 41.773438 9.15625 42.628906 12.058594 43.3125 15 C 44.035156 18.113281 43.753906 21.234375 42.859375 24.300781 C 41.964844 27.363281 41.085938 30.429688 39.488281 33.230469 C 38.539062 34.902344 37.554688 36.539062 35.683594 37.402344 C 35.378906 37.542969 35.183594 37.945312 34.96875 38.246094 C 32.253906 42.050781 28.765625 44.984375 24.6875 47.257812 C 23.257812 48.058594 22.9375 48.917969 23.550781 50.433594 C 23.925781 51.371094 24.378906 52.277344 24.773438 53.207031 C 25.316406 54.484375 26.144531 55.476562 27.578125 55.945312 C 26.570312 56.148438 26.445312 56.214844 25.929688 55.667969 C 25.242188 54.941406 24.652344 54.117188 24.101562 53.277344 C 23.730469 52.714844 23.5 52.058594 23.082031 51.175781 C 22.46875 53.039062 22.683594 54.691406 22.433594 56.253906 C 23.058594 56.578125 23.605469 56.859375 24.453125 57.300781 C 23.726562 57.472656 23.382812 57.554688 22.921875 57.660156 C 23.277344 58.058594 23.523438 58.476562 23.886719 58.710938 C 24.300781 58.980469 24.8125 59.152344 25.304688 59.25 C 25.753906 59.335938 26.234375 59.269531 26.675781 59.269531 C 25.886719 59.882812 24.914062 60.019531 23.695312 59.519531 C 22.480469 59.023438 21.046875 59.039062 20.070312 57.960938 C 19.898438 57.773438 19.445312 57.871094 19.148438 57.761719 C 18.707031 57.597656 18.164062 57.476562 17.878906 57.148438 C 16.507812 55.597656 15.105469 54.058594 14.574219 51.957031 C 13.949219 49.496094 14.21875 47.09375 14.996094 44.742188 C 15.976562 41.757812 17.929688 39.464844 20.445312 37.617188 C 20.648438 37.464844 20.933594 37.421875 21.179688 37.324219 C 20.894531 37.632812 20.609375 37.933594 20.332031 38.242188 C 19.132812 39.578125 17.921875 40.90625 16.75 42.265625 C 16.507812 42.550781 16.410156 42.960938 16.246094 43.3125 C 16.355469 43.382812 16.460938 43.453125 16.570312 43.523438 C 18.242188 41.464844 19.914062 39.410156 21.585938 37.355469 " fill-opacity="1" fill-rule="nonzero"/></g></svg>