<svg xmlns="http://www.w3.org/2000/svg" xmlns:xlink="http://www.w3.org/1999/xlink" width="500" zoomAndPan="magnify" viewBox="0 0 375 374.999991" height="500" preserveAspectRatio="xMidYMid meet" version="1.0"><defs><g/><clipPath id="8d707a6eba"><rect x="0" width="296" y="0" height="301"/></clipPath></defs><rect x="-37.5" width="450" fill="#ffffff" y="-37.499999" height="449.999989" fill-opacity="1"/><rect x="-37.5" width="450" fill="#f6f4f0" y="-37.499999" height="449.999989" fill-opacity="1"/><g transform="matrix(1, 0, 0, 1, 44, 37)"><g clip-path="url(#8d707a6eba)"><g fill="#222222" fill-opacity="1"><g transform="translate(1.773217, 243.671224)"><g><path d="M 18.3125 0 L 18.3125 -193.9375 L 58.875 -193.9375 L 58.875 -126.765625 L 60.453125 -126.765625 C 63.222656 -130.273438 66.703125 -133.535156 70.890625 -136.546875 C 75.085938 -139.554688 79.972656 -142 85.546875 -143.875 C 91.128906 -145.75 97.335938 -146.6875 104.171875 -146.6875 C 114.191406 -146.6875 122.882812 -144.523438 130.25 -140.203125 C 137.625 -135.890625 143.34375 -129.742188 147.40625 -121.765625 C 151.476562 -113.785156 153.515625 -104.300781 153.515625 -93.3125 L 153.515625 0 L 112.84375 0 L 112.84375 -84.15625 C 112.84375 -94.570312 110.644531 -102.019531 106.25 -106.5 C 101.851562 -110.976562 95.910156 -113.21875 88.421875 -113.21875 C 82.804688 -113.21875 77.835938 -112.015625 73.515625 -109.609375 C 69.203125 -107.210938 65.800781 -103.40625 63.3125 -98.1875 C 60.832031 -92.976562 59.59375 -86.140625 59.59375 -77.671875 L 59.59375 0 Z M 18.3125 0 "/></g></g></g><g fill="#222222" fill-opacity="1"><g transform="translate(152.92376, 243.671224)"><g><path d="M 18.3125 0 L 18.3125 -143.875 L 58.140625 -143.875 L 58.140625 -117.984375 L 58.875 -117.984375 C 62.78125 -128.316406 68.722656 -135.679688 76.703125 -140.078125 C 84.679688 -144.484375 94.65625 -146.6875 106.625 -146.6875 L 106.625 -111.015625 C 97.582031 -110.285156 90.023438 -108.632812 83.953125 -106.0625 C 77.890625 -103.5 73.066406 -99.9375 69.484375 -95.375 C 65.910156 -90.820312 63.347656 -85.101562 61.796875 -78.21875 C 60.253906 -71.34375 59.484375 -63.179688 59.484375 -53.734375 L 59.484375 0 Z M 18.3125 0 "/></g></g></g><g fill="#222222" fill-opacity="1"><g transform="translate(244.23356, 243.671224)"><g/></g></g></g></g><g fill="#222222" fill-opacity="1"><g transform="translate(119.352939, 114.931713)"><g><path d="M 13.9375 0 L 8.15625 0 L 8.15625 -22.4375 L 0.765625 -22.4375 L 0.765625 -27.25 L 21.34375 -27.25 L 21.34375 -22.4375 L 13.9375 -22.4375 Z M 13.9375 0 "/></g></g></g><g fill="#222222" fill-opacity="1"><g transform="translate(146.915563, 114.931713)"><g><path d="M 11.90625 -16.03125 L 17.59375 -27.25 L 23.8125 -27.25 L 14.78125 -10.609375 L 14.78125 0 L 9.046875 0 L 9.046875 -10.421875 L 0 -27.25 L 6.265625 -27.25 Z M 11.90625 -16.03125 "/></g></g></g><g fill="#222222" fill-opacity="1"><g transform="translate(176.200592, 114.931713)"><g><path d="M 10.84375 -27.25 C 14.363281 -27.25 16.929688 -26.5625 18.546875 -25.1875 C 20.171875 -23.8125 20.984375 -21.847656 20.984375 -19.296875 C 20.984375 -18.140625 20.789062 -17.039062 20.40625 -16 C 20.03125 -14.957031 19.421875 -14.039062 18.578125 -13.25 C 17.734375 -12.46875 16.625 -11.847656 15.25 -11.390625 C 13.882812 -10.941406 12.207031 -10.71875 10.21875 -10.71875 L 6.890625 -10.71875 L 6.890625 0 L 3.734375 0 L 3.734375 -27.25 Z M 10.546875 -24.546875 L 6.890625 -24.546875 L 6.890625 -13.4375 L 9.859375 -13.4375 C 11.597656 -13.4375 13.046875 -13.625 14.203125 -14 C 15.367188 -14.375 16.242188 -14.976562 16.828125 -15.8125 C 17.410156 -16.65625 17.703125 -17.769531 17.703125 -19.15625 C 17.703125 -20.96875 17.125 -22.316406 15.96875 -23.203125 C 14.8125 -24.097656 13.003906 -24.546875 10.546875 -24.546875 Z M 10.546875 -24.546875 "/></g></g></g><g fill="#222222" fill-opacity="1"><g transform="translate(204.620504, 114.931713)"><g><path d="M 27.359375 -13.65625 C 27.359375 -11.5625 27.09375 -9.648438 26.5625 -7.921875 C 26.03125 -6.203125 25.238281 -4.722656 24.1875 -3.484375 C 23.132812 -2.253906 21.832031 -1.300781 20.28125 -0.625 C 18.726562 0.0390625 16.925781 0.375 14.875 0.375 C 12.757812 0.375 10.914062 0.0390625 9.34375 -0.625 C 7.769531 -1.300781 6.460938 -2.257812 5.421875 -3.5 C 4.390625 -4.75 3.613281 -6.234375 3.09375 -7.953125 C 2.582031 -9.679688 2.328125 -11.597656 2.328125 -13.703125 C 2.328125 -16.484375 2.785156 -18.921875 3.703125 -21.015625 C 4.628906 -23.117188 6.023438 -24.753906 7.890625 -25.921875 C 9.765625 -27.085938 12.109375 -27.671875 14.921875 -27.671875 C 17.617188 -27.671875 19.890625 -27.09375 21.734375 -25.9375 C 23.585938 -24.789062 24.988281 -23.171875 25.9375 -21.078125 C 26.882812 -18.984375 27.359375 -16.507812 27.359375 -13.65625 Z M 5.671875 -13.65625 C 5.671875 -11.351562 6 -9.351562 6.65625 -7.65625 C 7.3125 -5.96875 8.316406 -4.660156 9.671875 -3.734375 C 11.035156 -2.816406 12.769531 -2.359375 14.875 -2.359375 C 16.988281 -2.359375 18.71875 -2.816406 20.0625 -3.734375 C 21.414062 -4.660156 22.414062 -5.96875 23.0625 -7.65625 C 23.707031 -9.351562 24.03125 -11.351562 24.03125 -13.65625 C 24.03125 -17.175781 23.289062 -19.925781 21.8125 -21.90625 C 20.34375 -23.882812 18.046875 -24.875 14.921875 -24.875 C 12.816406 -24.875 11.078125 -24.421875 9.703125 -23.515625 C 8.335938 -22.609375 7.320312 -21.316406 6.65625 -19.640625 C 6 -17.972656 5.671875 -15.976562 5.671875 -13.65625 Z M 5.671875 -13.65625 "/></g></g></g><g fill="#222222" fill-opacity="1"><g transform="translate(239.768271, 114.931713)"><g><path d="M 34.6875 -27.25 L 27.40625 0 L 24.21875 0 L 18.8125 -18.34375 C 18.644531 -18.863281 18.488281 -19.382812 18.34375 -19.90625 C 18.207031 -20.4375 18.078125 -20.941406 17.953125 -21.421875 C 17.828125 -21.898438 17.722656 -22.320312 17.640625 -22.6875 C 17.554688 -23.0625 17.5 -23.335938 17.46875 -23.515625 C 17.4375 -23.335938 17.382812 -23.066406 17.3125 -22.703125 C 17.25 -22.335938 17.164062 -21.921875 17.0625 -21.453125 C 16.957031 -20.984375 16.832031 -20.476562 16.6875 -19.9375 C 16.539062 -19.40625 16.390625 -18.867188 16.234375 -18.328125 L 10.984375 0 L 7.796875 0 L 0.5625 -27.25 L 3.859375 -27.25 L 8.234375 -10.15625 C 8.390625 -9.582031 8.53125 -9.019531 8.65625 -8.46875 C 8.789062 -7.914062 8.910156 -7.378906 9.015625 -6.859375 C 9.117188 -6.335938 9.210938 -5.828125 9.296875 -5.328125 C 9.390625 -4.828125 9.472656 -4.34375 9.546875 -3.875 C 9.609375 -4.363281 9.6875 -4.867188 9.78125 -5.390625 C 9.882812 -5.921875 9.992188 -6.457031 10.109375 -7 C 10.222656 -7.550781 10.351562 -8.101562 10.5 -8.65625 C 10.644531 -9.21875 10.796875 -9.78125 10.953125 -10.34375 L 15.859375 -27.25 L 19.125 -27.25 L 24.234375 -10.21875 C 24.398438 -9.632812 24.554688 -9.054688 24.703125 -8.484375 C 24.859375 -7.910156 24.992188 -7.351562 25.109375 -6.8125 C 25.234375 -6.269531 25.34375 -5.753906 25.4375 -5.265625 C 25.53125 -4.773438 25.613281 -4.3125 25.6875 -3.875 C 25.769531 -4.488281 25.875 -5.128906 26 -5.796875 C 26.125 -6.460938 26.269531 -7.160156 26.4375 -7.890625 C 26.601562 -8.628906 26.785156 -9.390625 26.984375 -10.171875 L 31.375 -27.25 Z M 34.6875 -27.25 "/></g></g></g><g fill="#222222" fill-opacity="1"><g transform="translate(280.469777, 114.931713)"><g><path d="M 20.8125 0 L 17.46875 -8.640625 L 6.546875 -8.640625 L 3.203125 0 L 0 0 L 10.65625 -27.359375 L 13.515625 -27.359375 L 24.09375 0 Z M 16.515625 -11.46875 L 13.328125 -20.0625 C 13.253906 -20.28125 13.132812 -20.644531 12.96875 -21.15625 C 12.800781 -21.664062 12.628906 -22.191406 12.453125 -22.734375 C 12.273438 -23.285156 12.128906 -23.726562 12.015625 -24.0625 C 11.890625 -23.550781 11.753906 -23.039062 11.609375 -22.53125 C 11.472656 -22.03125 11.335938 -21.566406 11.203125 -21.140625 C 11.066406 -20.710938 10.945312 -20.351562 10.84375 -20.0625 L 7.609375 -11.46875 Z M 16.515625 -11.46875 "/></g></g></g><g fill="#222222" fill-opacity="1"><g transform="translate(258.82074, 281.44003)"><g><path d="M 12.53125 -6.265625 C 12.53125 -5.296875 12.40625 -4.414062 12.15625 -3.625 C 11.914062 -2.84375 11.554688 -2.164062 11.078125 -1.59375 C 10.597656 -1.03125 10 -0.59375 9.28125 -0.28125 C 8.570312 0.0195312 7.75 0.171875 6.8125 0.171875 C 5.84375 0.171875 5 0.0195312 4.28125 -0.28125 C 3.5625 -0.59375 2.960938 -1.03125 2.484375 -1.59375 C 2.015625 -2.164062 1.660156 -2.847656 1.421875 -3.640625 C 1.179688 -4.429688 1.0625 -5.3125 1.0625 -6.28125 C 1.0625 -7.550781 1.269531 -8.664062 1.6875 -9.625 C 2.113281 -10.59375 2.753906 -11.34375 3.609375 -11.875 C 4.472656 -12.40625 5.550781 -12.671875 6.84375 -12.671875 C 8.070312 -12.671875 9.109375 -12.40625 9.953125 -11.875 C 10.796875 -11.351562 11.4375 -10.613281 11.875 -9.65625 C 12.3125 -8.695312 12.53125 -7.566406 12.53125 -6.265625 Z M 2.59375 -6.265625 C 2.59375 -5.203125 2.742188 -4.28125 3.046875 -3.5 C 3.347656 -2.726562 3.8125 -2.128906 4.4375 -1.703125 C 5.0625 -1.285156 5.851562 -1.078125 6.8125 -1.078125 C 7.78125 -1.078125 8.570312 -1.285156 9.1875 -1.703125 C 9.800781 -2.128906 10.253906 -2.726562 10.546875 -3.5 C 10.847656 -4.28125 11 -5.203125 11 -6.265625 C 11 -7.867188 10.660156 -9.125 9.984375 -10.03125 C 9.316406 -10.9375 8.269531 -11.390625 6.84375 -11.390625 C 5.875 -11.390625 5.078125 -11.179688 4.453125 -10.765625 C 3.828125 -10.359375 3.359375 -9.769531 3.046875 -9 C 2.742188 -8.238281 2.59375 -7.328125 2.59375 -6.265625 Z M 2.59375 -6.265625 "/></g></g></g><g fill="#222222" fill-opacity="1"><g transform="translate(274.912505, 281.44003)"><g><path d="M 15.890625 -12.484375 L 12.546875 0 L 11.09375 0 L 8.609375 -8.40625 C 8.535156 -8.644531 8.46875 -8.882812 8.40625 -9.125 C 8.34375 -9.363281 8.28125 -9.59375 8.21875 -9.8125 C 8.164062 -10.03125 8.117188 -10.222656 8.078125 -10.390625 C 8.046875 -10.554688 8.019531 -10.6875 8 -10.78125 C 7.988281 -10.6875 7.96875 -10.554688 7.9375 -10.390625 C 7.90625 -10.234375 7.863281 -10.046875 7.8125 -9.828125 C 7.769531 -9.609375 7.710938 -9.375 7.640625 -9.125 C 7.578125 -8.882812 7.507812 -8.640625 7.4375 -8.390625 L 5.03125 0 L 3.5625 0 L 0.25 -12.484375 L 1.765625 -12.484375 L 3.78125 -4.65625 C 3.84375 -4.394531 3.90625 -4.132812 3.96875 -3.875 C 4.03125 -3.625 4.082031 -3.378906 4.125 -3.140625 C 4.175781 -2.898438 4.21875 -2.664062 4.25 -2.4375 C 4.289062 -2.207031 4.332031 -1.988281 4.375 -1.78125 C 4.394531 -2 4.425781 -2.226562 4.46875 -2.46875 C 4.519531 -2.707031 4.570312 -2.953125 4.625 -3.203125 C 4.6875 -3.453125 4.75 -3.707031 4.8125 -3.96875 C 4.875 -4.226562 4.941406 -4.484375 5.015625 -4.734375 L 7.265625 -12.484375 L 8.765625 -12.484375 L 11.09375 -4.671875 C 11.175781 -4.410156 11.25 -4.144531 11.3125 -3.875 C 11.382812 -3.613281 11.445312 -3.359375 11.5 -3.109375 C 11.550781 -2.867188 11.597656 -2.632812 11.640625 -2.40625 C 11.691406 -2.1875 11.734375 -1.976562 11.765625 -1.78125 C 11.804688 -2.050781 11.851562 -2.335938 11.90625 -2.640625 C 11.96875 -2.953125 12.035156 -3.273438 12.109375 -3.609375 C 12.179688 -3.953125 12.265625 -4.300781 12.359375 -4.65625 L 14.375 -12.484375 Z M 15.890625 -12.484375 "/></g></g></g><g fill="#222222" fill-opacity="1"><g transform="translate(293.546678, 281.44003)"><g><path d="M 9.53125 0 L 8 -3.96875 L 3 -3.96875 L 1.46875 0 L 0 0 L 4.890625 -12.53125 L 6.1875 -12.53125 L 11.03125 0 Z M 7.5625 -5.25 L 6.109375 -9.1875 C 6.066406 -9.289062 6.007812 -9.457031 5.9375 -9.6875 C 5.863281 -9.925781 5.785156 -10.171875 5.703125 -10.421875 C 5.617188 -10.671875 5.550781 -10.867188 5.5 -11.015625 C 5.445312 -10.785156 5.382812 -10.554688 5.3125 -10.328125 C 5.25 -10.097656 5.1875 -9.882812 5.125 -9.6875 C 5.0625 -9.488281 5.007812 -9.320312 4.96875 -9.1875 L 3.484375 -5.25 Z M 7.5625 -5.25 "/></g></g></g></svg>